<?xml version="1.0" encoding="UTF-8" standalone="no"?>
<!DOCTYPE svg PUBLIC "-//W3C//DTD SVG 1.1//EN"
 "http://www.w3.org/Graphics/SVG/1.1/DTD/svg11.dtd">
<!-- Generated by graphviz version 2.43.0 (0)
 -->
<!-- Title: /mnt/c/Linux/projet&#45;lifap4&#45;2022/src/affichage2D.h Pages: 1 -->
<svg width="661pt" height="263pt"
 viewBox="0.00 0.00 661.40 263.00" xmlns="http://www.w3.org/2000/svg" xmlns:xlink="http://www.w3.org/1999/xlink">
<g id="graph0" class="graph" transform="scale(1 1) rotate(0) translate(4 259)">
<title>/mnt/c/Linux/projet&#45;lifap4&#45;2022/src/affichage2D.h</title>
<polygon fill="white" stroke="transparent" points="-4,4 -4,-259 657.4,-259 657.4,4 -4,4"/>
<!-- Node1 -->
<g id="node1" class="node">
<title>Node1</title>
<g id="a_node1"><a xlink:title=" ">
<polygon fill="#bfbfbf" stroke="black" points="103,-224.5 103,-254.5 267,-254.5 267,-224.5 103,-224.5"/>
<text text-anchor="start" x="111" y="-242.5" font-family="Helvetica,sans-Serif" font-size="10.00">/mnt/c/Linux/projet</text>
<text text-anchor="middle" x="185" y="-231.5" font-family="Helvetica,sans-Serif" font-size="10.00">&#45;lifap4&#45;2022/src/affichage2D.h</text>
</a>
</g>
</g>
<!-- Node2 -->
<g id="node2" class="node">
<title>Node2</title>
<g id="a_node2"><a xlink:title=" ">
<polygon fill="white" stroke="#bfbfbf" points="0,-168.5 0,-187.5 72,-187.5 72,-168.5 0,-168.5"/>
<text text-anchor="middle" x="36" y="-175.5" font-family="Helvetica,sans-Serif" font-size="10.00">SDL2/SDL.h</text>
</a>
</g>
</g>
<!-- Node1&#45;&gt;Node2 -->
<g id="edge1" class="edge">
<title>Node1&#45;&gt;Node2</title>
<path fill="none" stroke="midnightblue" d="M149.69,-224.4C124.58,-214.37 91.16,-201.03 67.06,-191.4"/>
<polygon fill="midnightblue" stroke="midnightblue" points="68.27,-188.12 57.68,-187.66 65.67,-194.62 68.27,-188.12"/>
</g>
<!-- Node3 -->
<g id="node3" class="node">
<title>Node3</title>
<g id="a_node3"><a xlink:title=" ">
<polygon fill="white" stroke="#bfbfbf" points="90,-168.5 90,-187.5 198,-187.5 198,-168.5 90,-168.5"/>
<text text-anchor="middle" x="144" y="-175.5" font-family="Helvetica,sans-Serif" font-size="10.00">SDL2/SDL_image.h</text>
</a>
</g>
</g>
<!-- Node1&#45;&gt;Node3 -->
<g id="edge2" class="edge">
<title>Node1&#45;&gt;Node3</title>
<path fill="none" stroke="midnightblue" d="M175.28,-224.4C169.45,-215.93 161.98,-205.1 155.81,-196.14"/>
<polygon fill="midnightblue" stroke="midnightblue" points="158.52,-193.91 149.97,-187.66 152.76,-197.88 158.52,-193.91"/>
</g>
<!-- Node4 -->
<g id="node4" class="node">
<title>Node4</title>
<g id="a_node4"><a xlink:title=" ">
<polygon fill="white" stroke="#bfbfbf" points="252,-0.5 252,-19.5 312,-19.5 312,-0.5 252,-0.5"/>
<text text-anchor="middle" x="282" y="-7.5" font-family="Helvetica,sans-Serif" font-size="10.00">iostream</text>
</a>
</g>
</g>
<!-- Node1&#45;&gt;Node4 -->
<g id="edge3" class="edge">
<title>Node1&#45;&gt;Node4</title>
<path fill="none" stroke="midnightblue" d="M191.86,-224.12C196.49,-214.12 202.53,-200.42 207,-188 227.68,-130.56 216.58,-110.03 245,-56 250.58,-45.39 258.92,-34.96 266.27,-26.82"/>
<polygon fill="midnightblue" stroke="midnightblue" points="268.84,-29.19 273.16,-19.52 263.75,-24.39 268.84,-29.19"/>
</g>
<!-- Node5 -->
<g id="node5" class="node">
<title>Node5</title>
<g id="a_node5"><a xlink:href="unit_8h.html" target="_top" xlink:title=" ">
<polygon fill="white" stroke="black" points="354,-168.5 354,-187.5 398,-187.5 398,-168.5 354,-168.5"/>
<text text-anchor="middle" x="376" y="-175.5" font-family="Helvetica,sans-Serif" font-size="10.00">unit.h</text>
</a>
</g>
</g>
<!-- Node1&#45;&gt;Node5 -->
<g id="edge4" class="edge">
<title>Node1&#45;&gt;Node5</title>
<path fill="none" stroke="midnightblue" d="M230.26,-224.4C265.25,-213.5 312.81,-198.68 343.95,-188.99"/>
<polygon fill="midnightblue" stroke="midnightblue" points="345.33,-192.22 353.83,-185.91 343.24,-185.54 345.33,-192.22"/>
</g>
<!-- Node6 -->
<g id="node6" class="node">
<title>Node6</title>
<g id="a_node6"><a xlink:href="cardLib_8h.html" target="_top" xlink:title=" ">
<polygon fill="white" stroke="black" points="500.5,-112.5 500.5,-131.5 561.5,-131.5 561.5,-112.5 500.5,-112.5"/>
<text text-anchor="middle" x="531" y="-119.5" font-family="Helvetica,sans-Serif" font-size="10.00">cardLib.h</text>
</a>
</g>
</g>
<!-- Node5&#45;&gt;Node6 -->
<g id="edge5" class="edge">
<title>Node5&#45;&gt;Node6</title>
<path fill="none" stroke="midnightblue" d="M398.21,-169.26C424,-160.28 466.85,-145.35 496.88,-134.89"/>
<polygon fill="midnightblue" stroke="midnightblue" points="498.24,-138.12 506.53,-131.52 495.94,-131.51 498.24,-138.12"/>
</g>
<!-- Node13 -->
<g id="node13" class="node">
<title>Node13</title>
<g id="a_node13"><a xlink:href="statusCodex_8h.html" target="_top" xlink:title=" ">
<polygon fill="white" stroke="black" points="333,-112.5 333,-131.5 419,-131.5 419,-112.5 333,-112.5"/>
<text text-anchor="middle" x="376" y="-119.5" font-family="Helvetica,sans-Serif" font-size="10.00">statusCodex.h</text>
</a>
</g>
</g>
<!-- Node5&#45;&gt;Node13 -->
<g id="edge14" class="edge">
<title>Node5&#45;&gt;Node13</title>
<path fill="none" stroke="midnightblue" d="M376,-168.08C376,-161.01 376,-150.86 376,-141.99"/>
<polygon fill="midnightblue" stroke="midnightblue" points="379.5,-141.75 376,-131.75 372.5,-141.75 379.5,-141.75"/>
</g>
<!-- Node7 -->
<g id="node7" class="node">
<title>Node7</title>
<g id="a_node7"><a xlink:href="card_8h.html" target="_top" xlink:title=" ">
<polygon fill="white" stroke="black" points="542.5,-56.5 542.5,-75.5 589.5,-75.5 589.5,-56.5 542.5,-56.5"/>
<text text-anchor="middle" x="566" y="-63.5" font-family="Helvetica,sans-Serif" font-size="10.00">card.h</text>
</a>
</g>
</g>
<!-- Node6&#45;&gt;Node7 -->
<g id="edge6" class="edge">
<title>Node6&#45;&gt;Node7</title>
<path fill="none" stroke="midnightblue" d="M536.78,-112.08C541.67,-104.53 548.83,-93.49 554.83,-84.23"/>
<polygon fill="midnightblue" stroke="midnightblue" points="557.83,-86.05 560.33,-75.75 551.95,-82.24 557.83,-86.05"/>
</g>
<!-- Node8 -->
<g id="node8" class="node">
<title>Node8</title>
<g id="a_node8"><a xlink:title=" ">
<polygon fill="white" stroke="#bfbfbf" points="544,-0.5 544,-19.5 588,-19.5 588,-0.5 544,-0.5"/>
<text text-anchor="middle" x="566" y="-7.5" font-family="Helvetica,sans-Serif" font-size="10.00">string</text>
</a>
</g>
</g>
<!-- Node6&#45;&gt;Node8 -->
<g id="edge13" class="edge">
<title>Node6&#45;&gt;Node8</title>
<path fill="none" stroke="midnightblue" d="M561.53,-118.73C589.51,-114.85 629.47,-104.35 649,-76 665.88,-51.49 627.83,-31.89 597.82,-20.85"/>
<polygon fill="midnightblue" stroke="midnightblue" points="598.63,-17.43 588.04,-17.44 596.33,-24.04 598.63,-17.43"/>
</g>
<!-- Node10 -->
<g id="node10" class="node">
<title>Node10</title>
<g id="a_node10"><a xlink:title=" ">
<polygon fill="white" stroke="#bfbfbf" points="404.5,-56.5 404.5,-75.5 451.5,-75.5 451.5,-56.5 404.5,-56.5"/>
<text text-anchor="middle" x="428" y="-63.5" font-family="Helvetica,sans-Serif" font-size="10.00">vector</text>
</a>
</g>
</g>
<!-- Node6&#45;&gt;Node10 -->
<g id="edge10" class="edge">
<title>Node6&#45;&gt;Node10</title>
<path fill="none" stroke="midnightblue" d="M514.45,-112.32C498.01,-103.7 472.57,-90.36 453.53,-80.39"/>
<polygon fill="midnightblue" stroke="midnightblue" points="454.99,-77.2 444.51,-75.65 451.74,-83.4 454.99,-77.2"/>
</g>
<!-- Node11 -->
<g id="node11" class="node">
<title>Node11</title>
<g id="a_node11"><a xlink:title=" ">
<polygon fill="white" stroke="#bfbfbf" points="608,-56.5 608,-75.5 640,-75.5 640,-56.5 608,-56.5"/>
<text text-anchor="middle" x="624" y="-63.5" font-family="Helvetica,sans-Serif" font-size="10.00">list</text>
</a>
</g>
</g>
<!-- Node6&#45;&gt;Node11 -->
<g id="edge11" class="edge">
<title>Node6&#45;&gt;Node11</title>
<path fill="none" stroke="midnightblue" d="M545.94,-112.32C560.59,-103.82 583.13,-90.73 600.24,-80.8"/>
<polygon fill="midnightblue" stroke="midnightblue" points="602.2,-83.7 609.1,-75.65 598.69,-77.65 602.2,-83.7"/>
</g>
<!-- Node12 -->
<g id="node12" class="node">
<title>Node12</title>
<g id="a_node12"><a xlink:title=" ">
<polygon fill="white" stroke="#bfbfbf" points="469.5,-56.5 469.5,-75.5 524.5,-75.5 524.5,-56.5 469.5,-56.5"/>
<text text-anchor="middle" x="497" y="-63.5" font-family="Helvetica,sans-Serif" font-size="10.00">fstream</text>
</a>
</g>
</g>
<!-- Node6&#45;&gt;Node12 -->
<g id="edge12" class="edge">
<title>Node6&#45;&gt;Node12</title>
<path fill="none" stroke="midnightblue" d="M525.39,-112.08C520.63,-104.53 513.68,-93.49 507.85,-84.23"/>
<polygon fill="midnightblue" stroke="midnightblue" points="510.8,-82.35 502.51,-75.75 504.88,-86.08 510.8,-82.35"/>
</g>
<!-- Node7&#45;&gt;Node4 -->
<g id="edge8" class="edge">
<title>Node7&#45;&gt;Node4</title>
<path fill="none" stroke="midnightblue" d="M542.3,-58.06C539.51,-57.32 536.7,-56.62 534,-56 459.79,-38.98 372.05,-24.59 322.12,-16.93"/>
<polygon fill="midnightblue" stroke="midnightblue" points="322.47,-13.44 312.06,-15.4 321.42,-20.36 322.47,-13.44"/>
</g>
<!-- Node7&#45;&gt;Node8 -->
<g id="edge7" class="edge">
<title>Node7&#45;&gt;Node8</title>
<path fill="none" stroke="midnightblue" d="M566,-56.08C566,-49.01 566,-38.86 566,-29.99"/>
<polygon fill="midnightblue" stroke="midnightblue" points="569.5,-29.75 566,-19.75 562.5,-29.75 569.5,-29.75"/>
</g>
<!-- Node9 -->
<g id="node9" class="node">
<title>Node9</title>
<g id="a_node9"><a xlink:title=" ">
<polygon fill="white" stroke="#bfbfbf" points="400,-0.5 400,-19.5 456,-19.5 456,-0.5 400,-0.5"/>
<text text-anchor="middle" x="428" y="-7.5" font-family="Helvetica,sans-Serif" font-size="10.00">assert.h</text>
</a>
</g>
</g>
<!-- Node7&#45;&gt;Node9 -->
<g id="edge9" class="edge">
<title>Node7&#45;&gt;Node9</title>
<path fill="none" stroke="midnightblue" d="M544.13,-56.44C521.22,-47.48 485.02,-33.31 459.13,-23.18"/>
<polygon fill="midnightblue" stroke="midnightblue" points="460.35,-19.9 449.76,-19.52 457.8,-26.42 460.35,-19.9"/>
</g>
<!-- Node13&#45;&gt;Node8 -->
<g id="edge20" class="edge">
<title>Node13&#45;&gt;Node8</title>
<path fill="none" stroke="midnightblue" d="M376.12,-112.49C376.78,-98.63 380.17,-71.22 396,-56 433.32,-20.13 495.78,-12.03 533.71,-10.66"/>
<polygon fill="midnightblue" stroke="midnightblue" points="533.8,-14.16 543.71,-10.43 533.64,-7.16 533.8,-14.16"/>
</g>
<!-- Node13&#45;&gt;Node9 -->
<g id="edge19" class="edge">
<title>Node13&#45;&gt;Node9</title>
<path fill="none" stroke="midnightblue" d="M370.46,-112.07C363.16,-99.04 352.29,-74.37 362,-56 369.42,-41.95 383.42,-31.47 396.62,-24.17"/>
<polygon fill="midnightblue" stroke="midnightblue" points="398.22,-27.28 405.54,-19.62 395.04,-21.04 398.22,-27.28"/>
</g>
<!-- Node13&#45;&gt;Node10 -->
<g id="edge17" class="edge">
<title>Node13&#45;&gt;Node10</title>
<path fill="none" stroke="midnightblue" d="M384.59,-112.08C392.16,-104.22 403.38,-92.57 412.51,-83.08"/>
<polygon fill="midnightblue" stroke="midnightblue" points="415.16,-85.38 419.57,-75.75 410.12,-80.53 415.16,-85.38"/>
</g>
<!-- Node13&#45;&gt;Node12 -->
<g id="edge18" class="edge">
<title>Node13&#45;&gt;Node12</title>
<path fill="none" stroke="midnightblue" d="M395.17,-112.44C414.91,-103.64 445.89,-89.81 468.49,-79.72"/>
<polygon fill="midnightblue" stroke="midnightblue" points="470.21,-82.79 477.92,-75.52 467.36,-76.4 470.21,-82.79"/>
</g>
<!-- Node14 -->
<g id="node14" class="node">
<title>Node14</title>
<g id="a_node14"><a xlink:href="status_8h.html" target="_top" xlink:title=" ">
<polygon fill="white" stroke="black" points="254,-56.5 254,-75.5 310,-75.5 310,-56.5 254,-56.5"/>
<text text-anchor="middle" x="282" y="-63.5" font-family="Helvetica,sans-Serif" font-size="10.00">status.h</text>
</a>
</g>
</g>
<!-- Node13&#45;&gt;Node14 -->
<g id="edge15" class="edge">
<title>Node13&#45;&gt;Node14</title>
<path fill="none" stroke="midnightblue" d="M360.9,-112.32C346.1,-103.82 323.31,-90.73 306.02,-80.8"/>
<polygon fill="midnightblue" stroke="midnightblue" points="307.48,-77.6 297.07,-75.65 303.99,-83.67 307.48,-77.6"/>
</g>
<!-- Node14&#45;&gt;Node4 -->
<g id="edge16" class="edge">
<title>Node14&#45;&gt;Node4</title>
<path fill="none" stroke="midnightblue" d="M282,-56.08C282,-49.01 282,-38.86 282,-29.99"/>
<polygon fill="midnightblue" stroke="midnightblue" points="285.5,-29.75 282,-19.75 278.5,-29.75 285.5,-29.75"/>
</g>
</g>
</svg>
