<?xml version="1.0" encoding="UTF-8" standalone="no"?>
<!DOCTYPE svg PUBLIC "-//W3C//DTD SVG 1.1//EN"
 "http://www.w3.org/Graphics/SVG/1.1/DTD/svg11.dtd">
<!-- Generated by graphviz version 2.43.0 (0)
 -->
<!-- Title: /mnt/c/Linux/projet&#45;lifap4&#45;2022/src/card.h Pages: 1 -->
<svg width="1297pt" height="519pt"
 viewBox="0.00 0.00 1296.50 519.00" xmlns="http://www.w3.org/2000/svg" xmlns:xlink="http://www.w3.org/1999/xlink">
<g id="graph0" class="graph" transform="scale(1 1) rotate(0) translate(4 515)">
<title>/mnt/c/Linux/projet&#45;lifap4&#45;2022/src/card.h</title>
<polygon fill="white" stroke="transparent" points="-4,4 -4,-515 1292.5,-515 1292.5,4 -4,4"/>
<!-- Node1 -->
<g id="node1" class="node">
<title>Node1</title>
<g id="a_node1"><a xlink:title=" ">
<polygon fill="#bfbfbf" stroke="black" points="782,-480.5 782,-510.5 908,-510.5 908,-480.5 782,-480.5"/>
<text text-anchor="start" x="790" y="-498.5" font-family="Helvetica,sans-Serif" font-size="10.00">/mnt/c/Linux/projet</text>
<text text-anchor="middle" x="845" y="-487.5" font-family="Helvetica,sans-Serif" font-size="10.00">&#45;lifap4&#45;2022/src/card.h</text>
</a>
</g>
</g>
<!-- Node2 -->
<g id="node2" class="node">
<title>Node2</title>
<g id="a_node2"><a xlink:href="cardLib_8h.html" target="_top" xlink:title=" ">
<polygon fill="white" stroke="black" points="697,-413.5 697,-443.5 837,-443.5 837,-413.5 697,-413.5"/>
<text text-anchor="start" x="705" y="-431.5" font-family="Helvetica,sans-Serif" font-size="10.00">/mnt/c/Linux/projet</text>
<text text-anchor="middle" x="767" y="-420.5" font-family="Helvetica,sans-Serif" font-size="10.00">&#45;lifap4&#45;2022/src/cardLib.h</text>
</a>
</g>
</g>
<!-- Node1&#45;&gt;Node2 -->
<g id="edge1" class="edge">
<title>Node1&#45;&gt;Node2</title>
<path fill="none" stroke="midnightblue" d="M820.26,-473.88C808.41,-464.01 794.52,-452.43 783.89,-443.58"/>
<polygon fill="midnightblue" stroke="midnightblue" points="818.15,-476.68 828.08,-480.4 822.63,-471.31 818.15,-476.68"/>
</g>
<!-- Node23 -->
<g id="node23" class="node">
<title>Node23</title>
<g id="a_node23"><a xlink:href="card_8cpp.html" target="_top" xlink:title=" ">
<polygon fill="white" stroke="black" points="855.5,-413.5 855.5,-443.5 992.5,-443.5 992.5,-413.5 855.5,-413.5"/>
<text text-anchor="start" x="863.5" y="-431.5" font-family="Helvetica,sans-Serif" font-size="10.00">/mnt/c/Linux/projet</text>
<text text-anchor="middle" x="924" y="-420.5" font-family="Helvetica,sans-Serif" font-size="10.00">&#45;lifap4&#45;2022/src/card.cpp</text>
</a>
</g>
</g>
<!-- Node1&#45;&gt;Node23 -->
<g id="edge24" class="edge">
<title>Node1&#45;&gt;Node23</title>
<path fill="none" stroke="midnightblue" d="M870.06,-473.88C882.06,-464.01 896.13,-452.43 906.89,-443.58"/>
<polygon fill="midnightblue" stroke="midnightblue" points="867.64,-471.34 862.14,-480.4 872.09,-476.75 867.64,-471.34"/>
</g>
<!-- Node3 -->
<g id="node3" class="node">
<title>Node3</title>
<g id="a_node3"><a xlink:href="unit_8h.html" target="_top" xlink:title=" ">
<polygon fill="white" stroke="black" points="535,-346.5 535,-376.5 659,-376.5 659,-346.5 535,-346.5"/>
<text text-anchor="start" x="543" y="-364.5" font-family="Helvetica,sans-Serif" font-size="10.00">/mnt/c/Linux/projet</text>
<text text-anchor="middle" x="597" y="-353.5" font-family="Helvetica,sans-Serif" font-size="10.00">&#45;lifap4&#45;2022/src/unit.h</text>
</a>
</g>
</g>
<!-- Node2&#45;&gt;Node3 -->
<g id="edge2" class="edge">
<title>Node2&#45;&gt;Node3</title>
<path fill="none" stroke="midnightblue" d="M720.76,-409.82C693.43,-399.37 659.31,-386.32 633.82,-376.58"/>
<polygon fill="midnightblue" stroke="midnightblue" points="719.52,-413.09 730.11,-413.4 722.02,-406.56 719.52,-413.09"/>
</g>
<!-- Node19 -->
<g id="node19" class="node">
<title>Node19</title>
<g id="a_node19"><a xlink:href="cardLib_8cpp.html" target="_top" xlink:title=" ">
<polygon fill="white" stroke="black" points="691,-346.5 691,-376.5 843,-376.5 843,-346.5 691,-346.5"/>
<text text-anchor="start" x="699" y="-364.5" font-family="Helvetica,sans-Serif" font-size="10.00">/mnt/c/Linux/projet</text>
<text text-anchor="middle" x="767" y="-353.5" font-family="Helvetica,sans-Serif" font-size="10.00">&#45;lifap4&#45;2022/src/cardLib.cpp</text>
</a>
</g>
</g>
<!-- Node2&#45;&gt;Node19 -->
<g id="edge19" class="edge">
<title>Node2&#45;&gt;Node19</title>
<path fill="none" stroke="midnightblue" d="M767,-403.11C767,-394.15 767,-384.32 767,-376.58"/>
<polygon fill="midnightblue" stroke="midnightblue" points="763.5,-403.4 767,-413.4 770.5,-403.4 763.5,-403.4"/>
</g>
<!-- Node20 -->
<g id="node20" class="node">
<title>Node20</title>
<g id="a_node20"><a xlink:href="deckBuilder_8h.html" target="_top" xlink:title=" ">
<polygon fill="white" stroke="black" points="868,-346.5 868,-376.5 1030,-376.5 1030,-346.5 868,-346.5"/>
<text text-anchor="start" x="876" y="-364.5" font-family="Helvetica,sans-Serif" font-size="10.00">/mnt/c/Linux/projet</text>
<text text-anchor="middle" x="949" y="-353.5" font-family="Helvetica,sans-Serif" font-size="10.00">&#45;lifap4&#45;2022/src/deckBuilder.h</text>
</a>
</g>
</g>
<!-- Node2&#45;&gt;Node20 -->
<g id="edge20" class="edge">
<title>Node2&#45;&gt;Node20</title>
<path fill="none" stroke="midnightblue" d="M816.13,-409.96C845.44,-399.48 882.18,-386.37 909.59,-376.58"/>
<polygon fill="midnightblue" stroke="midnightblue" points="814.73,-406.74 806.49,-413.4 817.09,-413.33 814.73,-406.74"/>
</g>
<!-- Node4 -->
<g id="node4" class="node">
<title>Node4</title>
<g id="a_node4"><a xlink:href="affichage2D_8h.html" target="_top" xlink:title=" ">
<polygon fill="white" stroke="black" points="206,-279.5 206,-309.5 370,-309.5 370,-279.5 206,-279.5"/>
<text text-anchor="start" x="214" y="-297.5" font-family="Helvetica,sans-Serif" font-size="10.00">/mnt/c/Linux/projet</text>
<text text-anchor="middle" x="288" y="-286.5" font-family="Helvetica,sans-Serif" font-size="10.00">&#45;lifap4&#45;2022/src/affichage2D.h</text>
</a>
</g>
</g>
<!-- Node3&#45;&gt;Node4 -->
<g id="edge3" class="edge">
<title>Node3&#45;&gt;Node4</title>
<path fill="none" stroke="midnightblue" d="M524.79,-345.31C473.35,-334.49 404.73,-320.06 354.61,-309.51"/>
<polygon fill="midnightblue" stroke="midnightblue" points="524.33,-348.79 534.84,-347.42 525.78,-341.94 524.33,-348.79"/>
</g>
<!-- Node9 -->
<g id="node9" class="node">
<title>Node9</title>
<g id="a_node9"><a xlink:href="gameSquare_8h.html" target="_top" xlink:title=" ">
<polygon fill="white" stroke="black" points="485.5,-279.5 485.5,-309.5 652.5,-309.5 652.5,-279.5 485.5,-279.5"/>
<text text-anchor="start" x="493.5" y="-297.5" font-family="Helvetica,sans-Serif" font-size="10.00">/mnt/c/Linux/projet</text>
<text text-anchor="middle" x="569" y="-286.5" font-family="Helvetica,sans-Serif" font-size="10.00">&#45;lifap4&#45;2022/src/gameSquare.h</text>
</a>
</g>
</g>
<!-- Node3&#45;&gt;Node9 -->
<g id="edge8" class="edge">
<title>Node3&#45;&gt;Node9</title>
<path fill="none" stroke="midnightblue" d="M586.87,-336.99C582.92,-327.8 578.51,-317.58 575.06,-309.58"/>
<polygon fill="midnightblue" stroke="midnightblue" points="583.75,-338.6 590.92,-346.4 590.18,-335.83 583.75,-338.6"/>
</g>
<!-- Node18 -->
<g id="node18" class="node">
<title>Node18</title>
<g id="a_node18"><a xlink:href="unit_8cpp.html" target="_top" xlink:title=" ">
<polygon fill="white" stroke="black" points="670.5,-279.5 670.5,-309.5 805.5,-309.5 805.5,-279.5 670.5,-279.5"/>
<text text-anchor="start" x="678.5" y="-297.5" font-family="Helvetica,sans-Serif" font-size="10.00">/mnt/c/Linux/projet</text>
<text text-anchor="middle" x="738" y="-286.5" font-family="Helvetica,sans-Serif" font-size="10.00">&#45;lifap4&#45;2022/src/unit.cpp</text>
</a>
</g>
</g>
<!-- Node3&#45;&gt;Node18 -->
<g id="edge18" class="edge">
<title>Node3&#45;&gt;Node18</title>
<path fill="none" stroke="midnightblue" d="M636.85,-342.13C659.25,-331.8 686.78,-319.11 707.46,-309.58"/>
<polygon fill="midnightblue" stroke="midnightblue" points="635.21,-339.03 627.59,-346.4 638.14,-345.39 635.21,-339.03"/>
</g>
<!-- Node5 -->
<g id="node5" class="node">
<title>Node5</title>
<g id="a_node5"><a xlink:href="affichage2D_8cpp.html" target="_top" xlink:title=" ">
<polygon fill="white" stroke="black" points="112.5,-201.5 112.5,-242.5 259.5,-242.5 259.5,-201.5 112.5,-201.5"/>
<text text-anchor="start" x="120.5" y="-230.5" font-family="Helvetica,sans-Serif" font-size="10.00">/mnt/c/Linux/projet</text>
<text text-anchor="start" x="120.5" y="-219.5" font-family="Helvetica,sans-Serif" font-size="10.00">&#45;lifap4&#45;2022/src/affichage2</text>
<text text-anchor="middle" x="186" y="-208.5" font-family="Helvetica,sans-Serif" font-size="10.00">D.cpp</text>
</a>
</g>
</g>
<!-- Node4&#45;&gt;Node5 -->
<g id="edge4" class="edge">
<title>Node4&#45;&gt;Node5</title>
<path fill="none" stroke="midnightblue" d="M259.04,-273.48C245.03,-263.8 228.27,-252.22 214.34,-242.59"/>
<polygon fill="midnightblue" stroke="midnightblue" points="257.14,-276.43 267.36,-279.23 261.12,-270.67 257.14,-276.43"/>
</g>
<!-- Node6 -->
<g id="node6" class="node">
<title>Node6</title>
<g id="a_node6"><a xlink:href="game2D_8h.html" target="_top" xlink:title=" ">
<polygon fill="white" stroke="black" points="93,-67.5 93,-97.5 239,-97.5 239,-67.5 93,-67.5"/>
<text text-anchor="start" x="101" y="-85.5" font-family="Helvetica,sans-Serif" font-size="10.00">/mnt/c/Linux/projet</text>
<text text-anchor="middle" x="166" y="-74.5" font-family="Helvetica,sans-Serif" font-size="10.00">&#45;lifap4&#45;2022/src/game2D.h</text>
</a>
</g>
</g>
<!-- Node4&#45;&gt;Node6 -->
<g id="edge5" class="edge">
<title>Node4&#45;&gt;Node6</title>
<path fill="none" stroke="midnightblue" d="M286.09,-269.21C283.8,-249.88 278.81,-222.6 268,-201 246.48,-158 205.58,-117.99 182.65,-97.6"/>
<polygon fill="midnightblue" stroke="midnightblue" points="282.62,-269.71 287.12,-279.3 289.58,-269 282.62,-269.71"/>
</g>
<!-- Node7 -->
<g id="node7" class="node">
<title>Node7</title>
<g id="a_node7"><a xlink:href="game2D_8cpp.html" target="_top" xlink:title=" ">
<polygon fill="white" stroke="black" points="0,-0.5 0,-30.5 158,-30.5 158,-0.5 0,-0.5"/>
<text text-anchor="start" x="8" y="-18.5" font-family="Helvetica,sans-Serif" font-size="10.00">/mnt/c/Linux/projet</text>
<text text-anchor="middle" x="79" y="-7.5" font-family="Helvetica,sans-Serif" font-size="10.00">&#45;lifap4&#45;2022/src/game2D.cpp</text>
</a>
</g>
</g>
<!-- Node6&#45;&gt;Node7 -->
<g id="edge6" class="edge">
<title>Node6&#45;&gt;Node7</title>
<path fill="none" stroke="midnightblue" d="M138.79,-61.17C125.48,-51.23 109.8,-39.51 97.84,-30.58"/>
<polygon fill="midnightblue" stroke="midnightblue" points="137.02,-64.21 147.12,-67.4 141.21,-58.61 137.02,-64.21"/>
</g>
<!-- Node8 -->
<g id="node8" class="node">
<title>Node8</title>
<g id="a_node8"><a xlink:href="main2D_8cpp.html" target="_top" xlink:title=" ">
<polygon fill="white" stroke="black" points="176.5,-0.5 176.5,-30.5 331.5,-30.5 331.5,-0.5 176.5,-0.5"/>
<text text-anchor="start" x="184.5" y="-18.5" font-family="Helvetica,sans-Serif" font-size="10.00">/mnt/c/Linux/projet</text>
<text text-anchor="middle" x="254" y="-7.5" font-family="Helvetica,sans-Serif" font-size="10.00">&#45;lifap4&#45;2022/src/main2D.cpp</text>
</a>
</g>
</g>
<!-- Node6&#45;&gt;Node8 -->
<g id="edge7" class="edge">
<title>Node6&#45;&gt;Node8</title>
<path fill="none" stroke="midnightblue" d="M193.14,-61.45C206.68,-51.45 222.73,-39.6 234.94,-30.58"/>
<polygon fill="midnightblue" stroke="midnightblue" points="191.06,-58.64 185.09,-67.4 195.22,-64.27 191.06,-58.64"/>
</g>
<!-- Node10 -->
<g id="node10" class="node">
<title>Node10</title>
<g id="a_node10"><a xlink:href="gameBoard_8h.html" target="_top" xlink:title=" ">
<polygon fill="white" stroke="black" points="484.5,-207 484.5,-237 645.5,-237 645.5,-207 484.5,-207"/>
<text text-anchor="start" x="492.5" y="-225" font-family="Helvetica,sans-Serif" font-size="10.00">/mnt/c/Linux/projet</text>
<text text-anchor="middle" x="565" y="-214" font-family="Helvetica,sans-Serif" font-size="10.00">&#45;lifap4&#45;2022/src/gameBoard.h</text>
</a>
</g>
</g>
<!-- Node9&#45;&gt;Node10 -->
<g id="edge9" class="edge">
<title>Node9&#45;&gt;Node10</title>
<path fill="none" stroke="midnightblue" d="M567.62,-269.23C567.02,-258.57 566.33,-246.41 565.81,-237.25"/>
<polygon fill="midnightblue" stroke="midnightblue" points="564.13,-269.45 568.19,-279.23 571.12,-269.05 564.13,-269.45"/>
</g>
<!-- Node17 -->
<g id="node17" class="node">
<title>Node17</title>
<g id="a_node17"><a xlink:href="gameSquare_8cpp.html" target="_top" xlink:title=" ">
<polygon fill="white" stroke="black" points="664,-207 664,-237 842,-237 842,-207 664,-207"/>
<text text-anchor="start" x="672" y="-225" font-family="Helvetica,sans-Serif" font-size="10.00">/mnt/c/Linux/projet</text>
<text text-anchor="middle" x="753" y="-214" font-family="Helvetica,sans-Serif" font-size="10.00">&#45;lifap4&#45;2022/src/gameSquare.cpp</text>
</a>
</g>
</g>
<!-- Node9&#45;&gt;Node17 -->
<g id="edge17" class="edge">
<title>Node9&#45;&gt;Node17</title>
<path fill="none" stroke="midnightblue" d="M615.17,-275.81C646.44,-263.83 687.2,-248.21 716.27,-237.07"/>
<polygon fill="midnightblue" stroke="midnightblue" points="613.88,-272.56 605.79,-279.4 616.38,-279.09 613.88,-272.56"/>
</g>
<!-- Node11 -->
<g id="node11" class="node">
<title>Node11</title>
<g id="a_node11"><a xlink:href="gameConsole_8h.html" target="_top" xlink:title=" ">
<polygon fill="white" stroke="black" points="458,-134.5 458,-164.5 630,-164.5 630,-134.5 458,-134.5"/>
<text text-anchor="start" x="466" y="-152.5" font-family="Helvetica,sans-Serif" font-size="10.00">/mnt/c/Linux/projet</text>
<text text-anchor="middle" x="544" y="-141.5" font-family="Helvetica,sans-Serif" font-size="10.00">&#45;lifap4&#45;2022/src/gameConsole.h</text>
</a>
</g>
</g>
<!-- Node10&#45;&gt;Node11 -->
<g id="edge10" class="edge">
<title>Node10&#45;&gt;Node11</title>
<path fill="none" stroke="midnightblue" d="M557.87,-197.06C554.67,-186.32 551,-174.01 548.24,-164.75"/>
<polygon fill="midnightblue" stroke="midnightblue" points="554.54,-198.15 560.75,-206.73 561.25,-196.15 554.54,-198.15"/>
</g>
<!-- Node16 -->
<g id="node16" class="node">
<title>Node16</title>
<g id="a_node16"><a xlink:href="gameBoard_8cpp.html" target="_top" xlink:title=" ">
<polygon fill="white" stroke="black" points="648.5,-134.5 648.5,-164.5 821.5,-164.5 821.5,-134.5 648.5,-134.5"/>
<text text-anchor="start" x="656.5" y="-152.5" font-family="Helvetica,sans-Serif" font-size="10.00">/mnt/c/Linux/projet</text>
<text text-anchor="middle" x="735" y="-141.5" font-family="Helvetica,sans-Serif" font-size="10.00">&#45;lifap4&#45;2022/src/gameBoard.cpp</text>
</a>
</g>
</g>
<!-- Node10&#45;&gt;Node16 -->
<g id="edge16" class="edge">
<title>Node10&#45;&gt;Node16</title>
<path fill="none" stroke="midnightblue" d="M608.41,-203C637.2,-191.06 674.44,-175.61 701.07,-164.57"/>
<polygon fill="midnightblue" stroke="midnightblue" points="606.89,-199.84 598.99,-206.9 609.57,-206.3 606.89,-199.84"/>
</g>
<!-- Node11&#45;&gt;Node6 -->
<g id="edge11" class="edge">
<title>Node11&#45;&gt;Node6</title>
<path fill="none" stroke="midnightblue" d="M451.11,-132.8C392.78,-122.9 315.97,-109.81 248,-98 245.15,-97.51 242.25,-97 239.31,-96.49"/>
<polygon fill="midnightblue" stroke="midnightblue" points="450.6,-136.26 461.04,-134.48 451.77,-129.36 450.6,-136.26"/>
</g>
<!-- Node12 -->
<g id="node12" class="node">
<title>Node12</title>
<g id="a_node12"><a xlink:href="gameConsole_8cpp.html" target="_top" xlink:title=" ">
<polygon fill="white" stroke="black" points="257.5,-67.5 257.5,-97.5 440.5,-97.5 440.5,-67.5 257.5,-67.5"/>
<text text-anchor="start" x="265.5" y="-85.5" font-family="Helvetica,sans-Serif" font-size="10.00">/mnt/c/Linux/projet</text>
<text text-anchor="middle" x="349" y="-74.5" font-family="Helvetica,sans-Serif" font-size="10.00">&#45;lifap4&#45;2022/src/gameConsole.cpp</text>
</a>
</g>
</g>
<!-- Node11&#45;&gt;Node12 -->
<g id="edge12" class="edge">
<title>Node11&#45;&gt;Node12</title>
<path fill="none" stroke="midnightblue" d="M492.18,-131.23C460.64,-120.71 420.85,-107.45 391.23,-97.58"/>
<polygon fill="midnightblue" stroke="midnightblue" points="491.09,-134.55 501.69,-134.4 493.31,-127.91 491.09,-134.55"/>
</g>
<!-- Node13 -->
<g id="node13" class="node">
<title>Node13</title>
<g id="a_node13"><a xlink:href="mainClient_8cpp.html" target="_top" xlink:title=" ">
<polygon fill="white" stroke="black" points="459,-67.5 459,-97.5 629,-97.5 629,-67.5 459,-67.5"/>
<text text-anchor="start" x="467" y="-85.5" font-family="Helvetica,sans-Serif" font-size="10.00">/mnt/c/Linux/projet</text>
<text text-anchor="middle" x="544" y="-74.5" font-family="Helvetica,sans-Serif" font-size="10.00">&#45;lifap4&#45;2022/src/mainClient.cpp</text>
</a>
</g>
</g>
<!-- Node11&#45;&gt;Node13 -->
<g id="edge13" class="edge">
<title>Node11&#45;&gt;Node13</title>
<path fill="none" stroke="midnightblue" d="M544,-124.11C544,-115.15 544,-105.32 544,-97.58"/>
<polygon fill="midnightblue" stroke="midnightblue" points="540.5,-124.4 544,-134.4 547.5,-124.4 540.5,-124.4"/>
</g>
<!-- Node14 -->
<g id="node14" class="node">
<title>Node14</title>
<g id="a_node14"><a xlink:href="mainGameTest_8cpp.html" target="_top" xlink:title=" ">
<polygon fill="white" stroke="black" points="837,-67.5 837,-97.5 1027,-97.5 1027,-67.5 837,-67.5"/>
<text text-anchor="start" x="845" y="-85.5" font-family="Helvetica,sans-Serif" font-size="10.00">/mnt/c/Linux/projet</text>
<text text-anchor="middle" x="932" y="-74.5" font-family="Helvetica,sans-Serif" font-size="10.00">&#45;lifap4&#45;2022/src/mainGameTest.cpp</text>
</a>
</g>
</g>
<!-- Node11&#45;&gt;Node14 -->
<g id="edge14" class="edge">
<title>Node11&#45;&gt;Node14</title>
<path fill="none" stroke="midnightblue" d="M637.83,-132.78C701.95,-122.04 786.21,-107.92 848.1,-97.55"/>
<polygon fill="midnightblue" stroke="midnightblue" points="637,-129.37 627.71,-134.48 638.15,-136.28 637,-129.37"/>
</g>
<!-- Node15 -->
<g id="node15" class="node">
<title>Node15</title>
<g id="a_node15"><a xlink:href="mainServer_8cpp.html" target="_top" xlink:title=" ">
<polygon fill="white" stroke="black" points="647,-67.5 647,-97.5 819,-97.5 819,-67.5 647,-67.5"/>
<text text-anchor="start" x="655" y="-85.5" font-family="Helvetica,sans-Serif" font-size="10.00">/mnt/c/Linux/projet</text>
<text text-anchor="middle" x="733" y="-74.5" font-family="Helvetica,sans-Serif" font-size="10.00">&#45;lifap4&#45;2022/src/mainServer.cpp</text>
</a>
</g>
</g>
<!-- Node11&#45;&gt;Node15 -->
<g id="edge15" class="edge">
<title>Node11&#45;&gt;Node15</title>
<path fill="none" stroke="midnightblue" d="M594.62,-131.09C625.13,-120.6 663.48,-107.41 692.07,-97.58"/>
<polygon fill="midnightblue" stroke="midnightblue" points="593.33,-127.83 585.01,-134.4 595.6,-134.45 593.33,-127.83"/>
</g>
<!-- Node20&#45;&gt;Node14 -->
<g id="edge23" class="edge">
<title>Node20&#45;&gt;Node14</title>
<path fill="none" stroke="midnightblue" d="M938.11,-336.88C934.82,-328.57 931.64,-319.04 930,-310 915.61,-230.88 925.49,-133.63 930.04,-97.71"/>
<polygon fill="midnightblue" stroke="midnightblue" points="934.97,-338.46 942.09,-346.31 941.42,-335.74 934.97,-338.46"/>
</g>
<!-- Node21 -->
<g id="node21" class="node">
<title>Node21</title>
<g id="a_node21"><a xlink:href="deckBuilder_8cpp.html" target="_top" xlink:title=" ">
<polygon fill="white" stroke="black" points="938.5,-279.5 938.5,-309.5 1111.5,-309.5 1111.5,-279.5 938.5,-279.5"/>
<text text-anchor="start" x="946.5" y="-297.5" font-family="Helvetica,sans-Serif" font-size="10.00">/mnt/c/Linux/projet</text>
<text text-anchor="middle" x="1025" y="-286.5" font-family="Helvetica,sans-Serif" font-size="10.00">&#45;lifap4&#45;2022/src/deckBuilder.cpp</text>
</a>
</g>
</g>
<!-- Node20&#45;&gt;Node21 -->
<g id="edge21" class="edge">
<title>Node20&#45;&gt;Node21</title>
<path fill="none" stroke="midnightblue" d="M973.11,-339.88C984.66,-330.01 998.19,-318.43 1008.54,-309.58"/>
<polygon fill="midnightblue" stroke="midnightblue" points="970.82,-337.24 965.49,-346.4 975.37,-342.56 970.82,-337.24"/>
</g>
<!-- Node22 -->
<g id="node22" class="node">
<title>Node22</title>
<g id="a_node22"><a xlink:href="deckTest_8cpp.html" target="_top" xlink:title=" ">
<polygon fill="white" stroke="black" points="1129.5,-279.5 1129.5,-309.5 1288.5,-309.5 1288.5,-279.5 1129.5,-279.5"/>
<text text-anchor="start" x="1137.5" y="-297.5" font-family="Helvetica,sans-Serif" font-size="10.00">/mnt/c/Linux/projet</text>
<text text-anchor="middle" x="1209" y="-286.5" font-family="Helvetica,sans-Serif" font-size="10.00">&#45;lifap4&#45;2022/src/deckTest.cpp</text>
</a>
</g>
</g>
<!-- Node20&#45;&gt;Node22 -->
<g id="edge22" class="edge">
<title>Node20&#45;&gt;Node22</title>
<path fill="none" stroke="midnightblue" d="M1015.06,-343.98C1057.53,-333.37 1112.12,-319.72 1152.56,-309.61"/>
<polygon fill="midnightblue" stroke="midnightblue" points="1013.95,-340.66 1005.1,-346.48 1015.65,-347.45 1013.95,-340.66"/>
</g>
</g>
</svg>
