<?xml version="1.0" encoding="UTF-8" standalone="no"?>
<!DOCTYPE svg PUBLIC "-//W3C//DTD SVG 1.1//EN"
 "http://www.w3.org/Graphics/SVG/1.1/DTD/svg11.dtd">
<!-- Generated by graphviz version 2.43.0 (0)
 -->
<!-- Title: gameConsole Pages: 1 -->
<svg width="783pt" height="1244pt"
 viewBox="0.00 0.00 783.00 1244.00" xmlns="http://www.w3.org/2000/svg" xmlns:xlink="http://www.w3.org/1999/xlink">
<g id="graph0" class="graph" transform="scale(1 1) rotate(0) translate(4 1240)">
<title>gameConsole</title>
<polygon fill="white" stroke="transparent" points="-4,4 -4,-1240 779,-1240 779,4 -4,4"/>
<!-- Node1 -->
<g id="node1" class="node">
<title>Node1</title>
<g id="a_node1"><a xlink:title="Classe qui gère le jeu en version console.">
<polygon fill="#bfbfbf" stroke="black" points="299,-0.5 299,-442.5 460,-442.5 460,-0.5 299,-0.5"/>
<text text-anchor="middle" x="379.5" y="-430.5" font-family="Helvetica,sans-Serif" font-size="10.00">gameConsole</text>
<polyline fill="none" stroke="black" points="299,-423.5 460,-423.5 "/>
<text text-anchor="start" x="307" y="-411.5" font-family="Helvetica,sans-Serif" font-size="10.00">&#45; xmove</text>
<text text-anchor="start" x="307" y="-400.5" font-family="Helvetica,sans-Serif" font-size="10.00">&#45; ymove</text>
<text text-anchor="start" x="307" y="-389.5" font-family="Helvetica,sans-Serif" font-size="10.00">&#45; input</text>
<text text-anchor="start" x="307" y="-378.5" font-family="Helvetica,sans-Serif" font-size="10.00">&#45; stay</text>
<text text-anchor="start" x="307" y="-367.5" font-family="Helvetica,sans-Serif" font-size="10.00">&#45; deployPhase</text>
<text text-anchor="start" x="307" y="-356.5" font-family="Helvetica,sans-Serif" font-size="10.00">&#45; actUnit</text>
<text text-anchor="start" x="307" y="-345.5" font-family="Helvetica,sans-Serif" font-size="10.00">&#45; playerTurn</text>
<text text-anchor="start" x="307" y="-334.5" font-family="Helvetica,sans-Serif" font-size="10.00">&#45; dim</text>
<text text-anchor="start" x="307" y="-323.5" font-family="Helvetica,sans-Serif" font-size="10.00">&#45; tableLine</text>
<text text-anchor="start" x="307" y="-312.5" font-family="Helvetica,sans-Serif" font-size="10.00">&#45; playerUnits</text>
<text text-anchor="start" x="307" y="-301.5" font-family="Helvetica,sans-Serif" font-size="10.00">&#45; ennemyUnits</text>
<polyline fill="none" stroke="black" points="299,-294.5 460,-294.5 "/>
<text text-anchor="start" x="307" y="-282.5" font-family="Helvetica,sans-Serif" font-size="10.00">+ gameConsole()</text>
<text text-anchor="start" x="307" y="-271.5" font-family="Helvetica,sans-Serif" font-size="10.00">+ ~gameConsole()</text>
<text text-anchor="start" x="307" y="-260.5" font-family="Helvetica,sans-Serif" font-size="10.00">+ getdeployphase()</text>
<text text-anchor="start" x="307" y="-249.5" font-family="Helvetica,sans-Serif" font-size="10.00">+ gameInit()</text>
<text text-anchor="start" x="307" y="-238.5" font-family="Helvetica,sans-Serif" font-size="10.00">+ gameInitServer()</text>
<text text-anchor="start" x="307" y="-227.5" font-family="Helvetica,sans-Serif" font-size="10.00">+ gameInitClient()</text>
<text text-anchor="start" x="307" y="-216.5" font-family="Helvetica,sans-Serif" font-size="10.00">+ gameUpdate()</text>
<text text-anchor="start" x="307" y="-205.5" font-family="Helvetica,sans-Serif" font-size="10.00">+ gameUpdateNET()</text>
<text text-anchor="start" x="307" y="-194.5" font-family="Helvetica,sans-Serif" font-size="10.00">+ gameUpdateNETClient()</text>
<text text-anchor="start" x="307" y="-183.5" font-family="Helvetica,sans-Serif" font-size="10.00">+ gameUpdateNO()</text>
<text text-anchor="start" x="307" y="-172.5" font-family="Helvetica,sans-Serif" font-size="10.00">+ gameUpdateNETNO()</text>
<text text-anchor="start" x="307" y="-161.5" font-family="Helvetica,sans-Serif" font-size="10.00">+ gameUpdateNETClientNO()</text>
<text text-anchor="start" x="307" y="-150.5" font-family="Helvetica,sans-Serif" font-size="10.00">+ gameAfficher()</text>
<text text-anchor="start" x="307" y="-139.5" font-family="Helvetica,sans-Serif" font-size="10.00">+ gameHandleEvents()</text>
<text text-anchor="start" x="307" y="-128.5" font-family="Helvetica,sans-Serif" font-size="10.00">+ deployUnitPlayer()</text>
<text text-anchor="start" x="307" y="-117.5" font-family="Helvetica,sans-Serif" font-size="10.00">+ deployUnitEnnemy()</text>
<text text-anchor="start" x="307" y="-106.5" font-family="Helvetica,sans-Serif" font-size="10.00">+ moveUnitPlayer()</text>
<text text-anchor="start" x="307" y="-95.5" font-family="Helvetica,sans-Serif" font-size="10.00">+ moveUnitEnnemy()</text>
<text text-anchor="start" x="307" y="-84.5" font-family="Helvetica,sans-Serif" font-size="10.00">+ attackByPlayer()</text>
<text text-anchor="start" x="307" y="-73.5" font-family="Helvetica,sans-Serif" font-size="10.00">+ attackByEnnemy()</text>
<text text-anchor="start" x="307" y="-62.5" font-family="Helvetica,sans-Serif" font-size="10.00">+ updateStatusPlayer()</text>
<text text-anchor="start" x="307" y="-51.5" font-family="Helvetica,sans-Serif" font-size="10.00">+ updateStatusEnnemy()</text>
<text text-anchor="start" x="307" y="-40.5" font-family="Helvetica,sans-Serif" font-size="10.00">+ checkForGameEnd()</text>
<text text-anchor="start" x="307" y="-29.5" font-family="Helvetica,sans-Serif" font-size="10.00">+ triggerVictory()</text>
<text text-anchor="start" x="307" y="-18.5" font-family="Helvetica,sans-Serif" font-size="10.00">+ triggerDraw()</text>
<text text-anchor="start" x="307" y="-7.5" font-family="Helvetica,sans-Serif" font-size="10.00">+ Stay()</text>
</a>
</g>
</g>
<!-- Node2 -->
<g id="node2" class="node">
<title>Node2</title>
<g id="a_node2"><a xlink:href="classserver.html" target="_top" xlink:title="class qui gère le server">
<polygon fill="white" stroke="black" points="0,-633.5 0,-855.5 113,-855.5 113,-633.5 0,-633.5"/>
<text text-anchor="middle" x="56.5" y="-843.5" font-family="Helvetica,sans-Serif" font-size="10.00">server</text>
<polyline fill="none" stroke="black" points="0,-836.5 113,-836.5 "/>
<text text-anchor="start" x="8" y="-824.5" font-family="Helvetica,sans-Serif" font-size="10.00">+ sd</text>
<text text-anchor="start" x="8" y="-813.5" font-family="Helvetica,sans-Serif" font-size="10.00">+ csd1</text>
<text text-anchor="start" x="8" y="-802.5" font-family="Helvetica,sans-Serif" font-size="10.00">+ ip</text>
<text text-anchor="start" x="8" y="-791.5" font-family="Helvetica,sans-Serif" font-size="10.00">+ remoteIP</text>
<text text-anchor="start" x="8" y="-780.5" font-family="Helvetica,sans-Serif" font-size="10.00">+ quit</text>
<text text-anchor="start" x="8" y="-769.5" font-family="Helvetica,sans-Serif" font-size="10.00">+ quit2</text>
<text text-anchor="start" x="8" y="-758.5" font-family="Helvetica,sans-Serif" font-size="10.00">+ len</text>
<text text-anchor="start" x="8" y="-747.5" font-family="Helvetica,sans-Serif" font-size="10.00">+ turn</text>
<text text-anchor="start" x="8" y="-736.5" font-family="Helvetica,sans-Serif" font-size="10.00">+ buffer1</text>
<text text-anchor="start" x="8" y="-725.5" font-family="Helvetica,sans-Serif" font-size="10.00">+ buffer2</text>
<polyline fill="none" stroke="black" points="0,-718.5 113,-718.5 "/>
<text text-anchor="start" x="8" y="-706.5" font-family="Helvetica,sans-Serif" font-size="10.00">+ server()</text>
<text text-anchor="start" x="8" y="-695.5" font-family="Helvetica,sans-Serif" font-size="10.00">+ ~server()</text>
<text text-anchor="start" x="8" y="-684.5" font-family="Helvetica,sans-Serif" font-size="10.00">+ serverInit()</text>
<text text-anchor="start" x="8" y="-673.5" font-family="Helvetica,sans-Serif" font-size="10.00">+ Send()</text>
<text text-anchor="start" x="8" y="-662.5" font-family="Helvetica,sans-Serif" font-size="10.00">+ Receive()</text>
<text text-anchor="start" x="8" y="-651.5" font-family="Helvetica,sans-Serif" font-size="10.00">+ Communication()</text>
<text text-anchor="start" x="8" y="-640.5" font-family="Helvetica,sans-Serif" font-size="10.00">+ Close()</text>
</a>
</g>
</g>
<!-- Node2&#45;&gt;Node1 -->
<g id="edge1" class="edge">
<title>Node2&#45;&gt;Node1</title>
<path fill="none" stroke="#404040" d="M77.23,-633.25C87.42,-593.5 102.04,-549.28 122.5,-512 165.93,-432.86 234.53,-357.07 289.94,-302.91"/>
<polygon fill="none" stroke="#404040" points="290.09,-302.75 291.62,-295.7 298.71,-294.4 297.19,-301.45 290.09,-302.75"/>
<text text-anchor="middle" x="160" y="-475" font-family="Helvetica,sans-Serif" font-size="10.00"> &#45;sv</text>
</g>
<!-- Node3 -->
<g id="node3" class="node">
<title>Node3</title>
<g id="a_node3"><a xlink:href="classunit.html" target="_top" xlink:title="class qui gère l&#39;unit">
<polygon fill="white" stroke="black" points="131.5,-512.5 131.5,-976.5 261.5,-976.5 261.5,-512.5 131.5,-512.5"/>
<text text-anchor="middle" x="196.5" y="-964.5" font-family="Helvetica,sans-Serif" font-size="10.00">unit</text>
<polyline fill="none" stroke="black" points="131.5,-957.5 261.5,-957.5 "/>
<text text-anchor="start" x="139.5" y="-945.5" font-family="Helvetica,sans-Serif" font-size="10.00">&#45; unitName</text>
<text text-anchor="start" x="139.5" y="-934.5" font-family="Helvetica,sans-Serif" font-size="10.00">&#45; hp</text>
<text text-anchor="start" x="139.5" y="-923.5" font-family="Helvetica,sans-Serif" font-size="10.00">&#45; atk</text>
<text text-anchor="start" x="139.5" y="-912.5" font-family="Helvetica,sans-Serif" font-size="10.00">&#45; ptr</text>
<text text-anchor="start" x="139.5" y="-901.5" font-family="Helvetica,sans-Serif" font-size="10.00">&#45; xpos</text>
<text text-anchor="start" x="139.5" y="-890.5" font-family="Helvetica,sans-Serif" font-size="10.00">&#45; ypos</text>
<text text-anchor="start" x="139.5" y="-879.5" font-family="Helvetica,sans-Serif" font-size="10.00">&#45; movRange</text>
<text text-anchor="start" x="139.5" y="-868.5" font-family="Helvetica,sans-Serif" font-size="10.00">&#45; atkRange</text>
<text text-anchor="start" x="139.5" y="-857.5" font-family="Helvetica,sans-Serif" font-size="10.00">&#45; player1</text>
<text text-anchor="start" x="139.5" y="-846.5" font-family="Helvetica,sans-Serif" font-size="10.00">&#45; isChamp</text>
<text text-anchor="start" x="139.5" y="-835.5" font-family="Helvetica,sans-Serif" font-size="10.00">&#45; canAttack</text>
<text text-anchor="start" x="139.5" y="-824.5" font-family="Helvetica,sans-Serif" font-size="10.00">&#45; canMove</text>
<text text-anchor="start" x="139.5" y="-813.5" font-family="Helvetica,sans-Serif" font-size="10.00">&#45; appliedStatus</text>
<polyline fill="none" stroke="black" points="131.5,-806.5 261.5,-806.5 "/>
<text text-anchor="start" x="139.5" y="-794.5" font-family="Helvetica,sans-Serif" font-size="10.00">+ unit()</text>
<text text-anchor="start" x="139.5" y="-783.5" font-family="Helvetica,sans-Serif" font-size="10.00">+ unit()</text>
<text text-anchor="start" x="139.5" y="-772.5" font-family="Helvetica,sans-Serif" font-size="10.00">+ ~unit()</text>
<text text-anchor="start" x="139.5" y="-761.5" font-family="Helvetica,sans-Serif" font-size="10.00">+ getX()</text>
<text text-anchor="start" x="139.5" y="-750.5" font-family="Helvetica,sans-Serif" font-size="10.00">+ getY()</text>
<text text-anchor="start" x="139.5" y="-739.5" font-family="Helvetica,sans-Serif" font-size="10.00">+ getAtkRange()</text>
<text text-anchor="start" x="139.5" y="-728.5" font-family="Helvetica,sans-Serif" font-size="10.00">+ getName()</text>
<text text-anchor="start" x="139.5" y="-717.5" font-family="Helvetica,sans-Serif" font-size="10.00">+ isPlayers()</text>
<text text-anchor="start" x="139.5" y="-706.5" font-family="Helvetica,sans-Serif" font-size="10.00">+ isInRange()</text>
<text text-anchor="start" x="139.5" y="-695.5" font-family="Helvetica,sans-Serif" font-size="10.00">+ isInAtkRange()</text>
<text text-anchor="start" x="139.5" y="-684.5" font-family="Helvetica,sans-Serif" font-size="10.00">+ attackUnit()</text>
<text text-anchor="start" x="139.5" y="-673.5" font-family="Helvetica,sans-Serif" font-size="10.00">+ attackUnitNET()</text>
<text text-anchor="start" x="139.5" y="-662.5" font-family="Helvetica,sans-Serif" font-size="10.00">+ battleUnit()</text>
<text text-anchor="start" x="139.5" y="-651.5" font-family="Helvetica,sans-Serif" font-size="10.00">+ battleUnitNET()</text>
<text text-anchor="start" x="139.5" y="-640.5" font-family="Helvetica,sans-Serif" font-size="10.00">+ afficherConsole()</text>
<text text-anchor="start" x="139.5" y="-629.5" font-family="Helvetica,sans-Serif" font-size="10.00">+ afficherInitiales()</text>
<text text-anchor="start" x="139.5" y="-618.5" font-family="Helvetica,sans-Serif" font-size="10.00">+ afficherPosition()</text>
<text text-anchor="start" x="139.5" y="-607.5" font-family="Helvetica,sans-Serif" font-size="10.00">+ applyStatus()</text>
<text text-anchor="start" x="139.5" y="-596.5" font-family="Helvetica,sans-Serif" font-size="10.00">+ addAppliedStatus()</text>
<text text-anchor="start" x="139.5" y="-585.5" font-family="Helvetica,sans-Serif" font-size="10.00">+ itsChamp()</text>
<text text-anchor="start" x="139.5" y="-574.5" font-family="Helvetica,sans-Serif" font-size="10.00">+ getAppliedSize()</text>
<text text-anchor="start" x="139.5" y="-563.5" font-family="Helvetica,sans-Serif" font-size="10.00">+ getAppliedStatus()</text>
<text text-anchor="start" x="139.5" y="-552.5" font-family="Helvetica,sans-Serif" font-size="10.00">+ eraseAppliedStatus()</text>
<text text-anchor="start" x="139.5" y="-541.5" font-family="Helvetica,sans-Serif" font-size="10.00">+ moveTo()</text>
<text text-anchor="start" x="139.5" y="-530.5" font-family="Helvetica,sans-Serif" font-size="10.00">+ setTo()</text>
<text text-anchor="start" x="139.5" y="-519.5" font-family="Helvetica,sans-Serif" font-size="10.00">+ operator==()</text>
</a>
</g>
</g>
<!-- Node3&#45;&gt;Node1 -->
<g id="edge2" class="edge">
<title>Node3&#45;&gt;Node1</title>
<path fill="none" stroke="#404040" d="M261.52,-538.19C264.52,-529.33 267.52,-520.57 270.5,-512 278.16,-489.98 286.36,-467.1 294.69,-444.29"/>
<polygon fill="none" stroke="#404040" points="294.79,-444 293.1,-436.99 298.92,-432.74 300.61,-439.75 294.79,-444"/>
<text text-anchor="middle" x="313" y="-475" font-family="Helvetica,sans-Serif" font-size="10.00"> &#45;easeUnit</text>
</g>
<!-- Node4 -->
<g id="node4" class="node">
<title>Node4</title>
<g id="a_node4"><a xlink:href="structstatusInfo.html" target="_top" xlink:title=" ">
<polygon fill="white" stroke="black" points="93.5,-1096 93.5,-1164 181.5,-1164 181.5,-1096 93.5,-1096"/>
<text text-anchor="middle" x="137.5" y="-1152" font-family="Helvetica,sans-Serif" font-size="10.00">statusInfo</text>
<polyline fill="none" stroke="black" points="93.5,-1145 181.5,-1145 "/>
<text text-anchor="start" x="101.5" y="-1133" font-family="Helvetica,sans-Serif" font-size="10.00">+ statIndex</text>
<text text-anchor="start" x="101.5" y="-1122" font-family="Helvetica,sans-Serif" font-size="10.00">+ statStrength</text>
<polyline fill="none" stroke="black" points="93.5,-1115 181.5,-1115 "/>
<text text-anchor="middle" x="137.5" y="-1103" font-family="Helvetica,sans-Serif" font-size="10.00"> </text>
</a>
</g>
</g>
<!-- Node4&#45;&gt;Node3 -->
<g id="edge3" class="edge">
<title>Node4&#45;&gt;Node3</title>
<path fill="none" stroke="#404040" d="M142.58,-1095.97C146.58,-1069.98 152.55,-1031.16 159.09,-988.7"/>
<polygon fill="none" stroke="#404040" points="159.12,-988.49 156.08,-981.95 160.94,-976.63 163.98,-983.17 159.12,-988.49"/>
<text text-anchor="middle" x="192" y="-998" font-family="Helvetica,sans-Serif" font-size="10.00"> &#45;attackStatus</text>
</g>
<!-- Node5 -->
<g id="node5" class="node">
<title>Node5</title>
<g id="a_node5"><a xlink:href="classcard.html" target="_top" xlink:title="class qui gère les cartes dans le jeu">
<polygon fill="white" stroke="black" points="199,-1024.5 199,-1235.5 310,-1235.5 310,-1024.5 199,-1024.5"/>
<text text-anchor="middle" x="254.5" y="-1223.5" font-family="Helvetica,sans-Serif" font-size="10.00">card</text>
<polyline fill="none" stroke="black" points="199,-1216.5 310,-1216.5 "/>
<text text-anchor="start" x="207" y="-1204.5" font-family="Helvetica,sans-Serif" font-size="10.00">&#45; name</text>
<text text-anchor="start" x="207" y="-1193.5" font-family="Helvetica,sans-Serif" font-size="10.00">&#45; description</text>
<text text-anchor="start" x="207" y="-1182.5" font-family="Helvetica,sans-Serif" font-size="10.00">&#45; index</text>
<text text-anchor="start" x="207" y="-1171.5" font-family="Helvetica,sans-Serif" font-size="10.00">&#45; life</text>
<text text-anchor="start" x="207" y="-1160.5" font-family="Helvetica,sans-Serif" font-size="10.00">&#45; attack</text>
<text text-anchor="start" x="207" y="-1149.5" font-family="Helvetica,sans-Serif" font-size="10.00">&#45; protection</text>
<text text-anchor="start" x="207" y="-1138.5" font-family="Helvetica,sans-Serif" font-size="10.00">&#45; movRange</text>
<text text-anchor="start" x="207" y="-1127.5" font-family="Helvetica,sans-Serif" font-size="10.00">&#45; atkRange</text>
<text text-anchor="start" x="207" y="-1116.5" font-family="Helvetica,sans-Serif" font-size="10.00">&#45; isChamp</text>
<polyline fill="none" stroke="black" points="199,-1109.5 310,-1109.5 "/>
<text text-anchor="start" x="207" y="-1097.5" font-family="Helvetica,sans-Serif" font-size="10.00">+ card()</text>
<text text-anchor="start" x="207" y="-1086.5" font-family="Helvetica,sans-Serif" font-size="10.00">+ card()</text>
<text text-anchor="start" x="207" y="-1075.5" font-family="Helvetica,sans-Serif" font-size="10.00">+ ~card()</text>
<text text-anchor="start" x="207" y="-1064.5" font-family="Helvetica,sans-Serif" font-size="10.00">+ afficherConsole()</text>
<text text-anchor="start" x="207" y="-1053.5" font-family="Helvetica,sans-Serif" font-size="10.00">+ afficherInitiales()</text>
<text text-anchor="start" x="207" y="-1042.5" font-family="Helvetica,sans-Serif" font-size="10.00">+ itsChamp()</text>
<text text-anchor="start" x="207" y="-1031.5" font-family="Helvetica,sans-Serif" font-size="10.00">+ getName()</text>
</a>
</g>
</g>
<!-- Node5&#45;&gt;Node3 -->
<g id="edge4" class="edge">
<title>Node5&#45;&gt;Node3</title>
<path fill="none" stroke="#404040" d="M238.69,-1024.46C236.95,-1012.95 235.13,-1000.9 233.26,-988.55"/>
<polygon fill="none" stroke="#404040" points="233.25,-988.48 228.4,-983.15 231.45,-976.62 236.31,-981.95 233.25,-988.48"/>
<text text-anchor="middle" x="264" y="-998" font-family="Helvetica,sans-Serif" font-size="10.00"> &#45;cardIndex</text>
</g>
<!-- Node6 -->
<g id="node6" class="node">
<title>Node6</title>
<g id="a_node6"><a xlink:href="classstatusCodex.html" target="_top" xlink:title=" ">
<polygon fill="white" stroke="black" points="279.5,-694 279.5,-795 383.5,-795 383.5,-694 279.5,-694"/>
<text text-anchor="middle" x="331.5" y="-783" font-family="Helvetica,sans-Serif" font-size="10.00">statusCodex</text>
<polyline fill="none" stroke="black" points="279.5,-776 383.5,-776 "/>
<text text-anchor="start" x="287.5" y="-764" font-family="Helvetica,sans-Serif" font-size="10.00">&#45; codex</text>
<polyline fill="none" stroke="black" points="279.5,-757 383.5,-757 "/>
<text text-anchor="start" x="287.5" y="-745" font-family="Helvetica,sans-Serif" font-size="10.00">+ statusCodex()</text>
<text text-anchor="start" x="287.5" y="-734" font-family="Helvetica,sans-Serif" font-size="10.00">+ init()</text>
<text text-anchor="start" x="287.5" y="-723" font-family="Helvetica,sans-Serif" font-size="10.00">+ ~statusCodex()</text>
<text text-anchor="start" x="287.5" y="-712" font-family="Helvetica,sans-Serif" font-size="10.00">+ afficher()</text>
<text text-anchor="start" x="287.5" y="-701" font-family="Helvetica,sans-Serif" font-size="10.00">+ operator[]()</text>
</a>
</g>
</g>
<!-- Node6&#45;&gt;Node1 -->
<g id="edge5" class="edge">
<title>Node6&#45;&gt;Node1</title>
<path fill="none" stroke="#404040" d="M336.1,-693.54C341.23,-637.91 349.88,-544 358.12,-454.61"/>
<polygon fill="none" stroke="#404040" points="358.12,-454.55 354.69,-448.21 359.22,-442.6 362.65,-448.94 358.12,-454.55"/>
<text text-anchor="middle" x="379" y="-475" font-family="Helvetica,sans-Serif" font-size="10.00"> &#45;sCodex</text>
</g>
<!-- Node7 -->
<g id="node7" class="node">
<title>Node7</title>
<g id="a_node7"><a xlink:href="classgameBoard.html" target="_top" xlink:title="Classe qui gere le tableau de Jeu.">
<polygon fill="white" stroke="black" points="402,-655.5 402,-833.5 513,-833.5 513,-655.5 402,-655.5"/>
<text text-anchor="middle" x="457.5" y="-821.5" font-family="Helvetica,sans-Serif" font-size="10.00">gameBoard</text>
<polyline fill="none" stroke="black" points="402,-814.5 513,-814.5 "/>
<text text-anchor="start" x="410" y="-802.5" font-family="Helvetica,sans-Serif" font-size="10.00">&#45; dimx</text>
<text text-anchor="start" x="410" y="-791.5" font-family="Helvetica,sans-Serif" font-size="10.00">&#45; dimy</text>
<polyline fill="none" stroke="black" points="402,-784.5 513,-784.5 "/>
<text text-anchor="start" x="410" y="-772.5" font-family="Helvetica,sans-Serif" font-size="10.00">+ gameBoard()</text>
<text text-anchor="start" x="410" y="-761.5" font-family="Helvetica,sans-Serif" font-size="10.00">+ gameBoard()</text>
<text text-anchor="start" x="410" y="-750.5" font-family="Helvetica,sans-Serif" font-size="10.00">+ ~gameBoard()</text>
<text text-anchor="start" x="410" y="-739.5" font-family="Helvetica,sans-Serif" font-size="10.00">+ offToAx()</text>
<text text-anchor="start" x="410" y="-728.5" font-family="Helvetica,sans-Serif" font-size="10.00">+ axToOff()</text>
<text text-anchor="start" x="410" y="-717.5" font-family="Helvetica,sans-Serif" font-size="10.00">+ init()</text>
<text text-anchor="start" x="410" y="-706.5" font-family="Helvetica,sans-Serif" font-size="10.00">+ afficherConsole()</text>
<text text-anchor="start" x="410" y="-695.5" font-family="Helvetica,sans-Serif" font-size="10.00">+ operator[]()</text>
<text text-anchor="start" x="410" y="-684.5" font-family="Helvetica,sans-Serif" font-size="10.00">+ getX()</text>
<text text-anchor="start" x="410" y="-673.5" font-family="Helvetica,sans-Serif" font-size="10.00">+ getY()</text>
<text text-anchor="start" x="410" y="-662.5" font-family="Helvetica,sans-Serif" font-size="10.00">+ getTable()</text>
</a>
</g>
</g>
<!-- Node7&#45;&gt;Node1 -->
<g id="edge6" class="edge">
<title>Node7&#45;&gt;Node1</title>
<path fill="none" stroke="#404040" d="M444.31,-655.41C436.02,-600.03 424.9,-525.77 414.22,-454.41"/>
<polygon fill="none" stroke="#404040" points="414.22,-454.39 409.37,-449.05 412.44,-442.53 417.28,-447.87 414.22,-454.39"/>
<text text-anchor="middle" x="429.5" y="-475" font-family="Helvetica,sans-Serif" font-size="10.00"> &#45;GB</text>
</g>
<!-- Node8 -->
<g id="node8" class="node">
<title>Node8</title>
<g id="a_node8"><a xlink:href="classgameSquare.html" target="_top" xlink:title="Classe qui gere les cases de jeu.">
<polygon fill="white" stroke="black" points="402,-1052 402,-1208 513,-1208 513,-1052 402,-1052"/>
<text text-anchor="middle" x="457.5" y="-1196" font-family="Helvetica,sans-Serif" font-size="10.00">gameSquare</text>
<polyline fill="none" stroke="black" points="402,-1189 513,-1189 "/>
<text text-anchor="start" x="410" y="-1177" font-family="Helvetica,sans-Serif" font-size="10.00">&#45; occupied</text>
<text text-anchor="start" x="410" y="-1166" font-family="Helvetica,sans-Serif" font-size="10.00">&#45; terrain</text>
<text text-anchor="start" x="410" y="-1155" font-family="Helvetica,sans-Serif" font-size="10.00">&#45; unitName</text>
<polyline fill="none" stroke="black" points="402,-1148 513,-1148 "/>
<text text-anchor="start" x="410" y="-1136" font-family="Helvetica,sans-Serif" font-size="10.00">+ gameSquare()</text>
<text text-anchor="start" x="410" y="-1125" font-family="Helvetica,sans-Serif" font-size="10.00">+ gameSquare()</text>
<text text-anchor="start" x="410" y="-1114" font-family="Helvetica,sans-Serif" font-size="10.00">+ ~gameSquare()</text>
<text text-anchor="start" x="410" y="-1103" font-family="Helvetica,sans-Serif" font-size="10.00">+ isOccupied()</text>
<text text-anchor="start" x="410" y="-1092" font-family="Helvetica,sans-Serif" font-size="10.00">+ occupy()</text>
<text text-anchor="start" x="410" y="-1081" font-family="Helvetica,sans-Serif" font-size="10.00">+ deOccupy()</text>
<text text-anchor="start" x="410" y="-1070" font-family="Helvetica,sans-Serif" font-size="10.00">+ afficherConsole()</text>
<text text-anchor="start" x="410" y="-1059" font-family="Helvetica,sans-Serif" font-size="10.00">+ setName()</text>
</a>
</g>
</g>
<!-- Node8&#45;&gt;Node7 -->
<g id="edge7" class="edge">
<title>Node8&#45;&gt;Node7</title>
<path fill="none" stroke="#404040" d="M457.5,-1051.85C457.5,-992.57 457.5,-910.21 457.5,-845.81"/>
<polygon fill="none" stroke="#404040" points="457.5,-845.59 453.5,-839.59 457.5,-833.59 461.5,-839.59 457.5,-845.59"/>
<text text-anchor="middle" x="473.5" y="-998" font-family="Helvetica,sans-Serif" font-size="10.00"> &#45;table</text>
</g>
<!-- Node9 -->
<g id="node9" class="node">
<title>Node9</title>
<g id="a_node9"><a xlink:href="classclient.html" target="_top" xlink:title="class qui gère le client">
<polygon fill="white" stroke="black" points="531,-650 531,-839 644,-839 644,-650 531,-650"/>
<text text-anchor="middle" x="587.5" y="-827" font-family="Helvetica,sans-Serif" font-size="10.00">client</text>
<polyline fill="none" stroke="black" points="531,-820 644,-820 "/>
<text text-anchor="start" x="539" y="-808" font-family="Helvetica,sans-Serif" font-size="10.00">+ quit</text>
<text text-anchor="start" x="539" y="-797" font-family="Helvetica,sans-Serif" font-size="10.00">+ len</text>
<text text-anchor="start" x="539" y="-786" font-family="Helvetica,sans-Serif" font-size="10.00">+ turn</text>
<text text-anchor="start" x="539" y="-775" font-family="Helvetica,sans-Serif" font-size="10.00">+ buffer</text>
<text text-anchor="start" x="539" y="-764" font-family="Helvetica,sans-Serif" font-size="10.00">+ buffer2</text>
<text text-anchor="start" x="539" y="-753" font-family="Helvetica,sans-Serif" font-size="10.00">&#45; ip</text>
<text text-anchor="start" x="539" y="-742" font-family="Helvetica,sans-Serif" font-size="10.00">&#45; sd</text>
<polyline fill="none" stroke="black" points="531,-735 644,-735 "/>
<text text-anchor="start" x="539" y="-723" font-family="Helvetica,sans-Serif" font-size="10.00">+ client()</text>
<text text-anchor="start" x="539" y="-712" font-family="Helvetica,sans-Serif" font-size="10.00">+ ~client()</text>
<text text-anchor="start" x="539" y="-701" font-family="Helvetica,sans-Serif" font-size="10.00">+ clientInit()</text>
<text text-anchor="start" x="539" y="-690" font-family="Helvetica,sans-Serif" font-size="10.00">+ Send()</text>
<text text-anchor="start" x="539" y="-679" font-family="Helvetica,sans-Serif" font-size="10.00">+ Receive()</text>
<text text-anchor="start" x="539" y="-668" font-family="Helvetica,sans-Serif" font-size="10.00">+ Communication()</text>
<text text-anchor="start" x="539" y="-657" font-family="Helvetica,sans-Serif" font-size="10.00">+ Close()</text>
</a>
</g>
</g>
<!-- Node9&#45;&gt;Node1 -->
<g id="edge8" class="edge">
<title>Node9&#45;&gt;Node1</title>
<path fill="none" stroke="#404040" d="M565.42,-649.85C554.3,-607.2 539.54,-556.43 522.5,-512 506.14,-469.36 485.72,-424.54 465.46,-383.24"/>
<polygon fill="none" stroke="#404040" points="465.35,-383.02 459.11,-379.41 460.04,-372.26 466.28,-375.87 465.35,-383.02"/>
<text text-anchor="middle" x="520.5" y="-475" font-family="Helvetica,sans-Serif" font-size="10.00"> &#45;cl</text>
</g>
<!-- Node10 -->
<g id="node10" class="node">
<title>Node10</title>
<g id="a_node10"><a xlink:href="classcardLib.html" target="_top" xlink:title="class qui gère la librarie des cartes">
<polygon fill="white" stroke="black" points="662,-650 662,-839 775,-839 775,-650 662,-650"/>
<text text-anchor="middle" x="718.5" y="-827" font-family="Helvetica,sans-Serif" font-size="10.00">cardLib</text>
<polyline fill="none" stroke="black" points="662,-820 775,-820 "/>
<text text-anchor="start" x="670" y="-808" font-family="Helvetica,sans-Serif" font-size="10.00">&#45; cardLibrary</text>
<polyline fill="none" stroke="black" points="662,-801 775,-801 "/>
<text text-anchor="start" x="670" y="-789" font-family="Helvetica,sans-Serif" font-size="10.00">+ cardLib()</text>
<text text-anchor="start" x="670" y="-778" font-family="Helvetica,sans-Serif" font-size="10.00">+ ~cardLib()</text>
<text text-anchor="start" x="670" y="-767" font-family="Helvetica,sans-Serif" font-size="10.00">+ fillLibrary()</text>
<text text-anchor="start" x="670" y="-756" font-family="Helvetica,sans-Serif" font-size="10.00">+ saveToFile()</text>
<text text-anchor="start" x="670" y="-745" font-family="Helvetica,sans-Serif" font-size="10.00">+ ajouterCarte()</text>
<text text-anchor="start" x="670" y="-734" font-family="Helvetica,sans-Serif" font-size="10.00">+ supprimerCarte()</text>
<text text-anchor="start" x="670" y="-723" font-family="Helvetica,sans-Serif" font-size="10.00">+ getLib()</text>
<text text-anchor="start" x="670" y="-712" font-family="Helvetica,sans-Serif" font-size="10.00">+ operator[]()</text>
<text text-anchor="start" x="670" y="-701" font-family="Helvetica,sans-Serif" font-size="10.00">+ afficher()</text>
<text text-anchor="start" x="670" y="-690" font-family="Helvetica,sans-Serif" font-size="10.00">+ sortD()</text>
<text text-anchor="start" x="670" y="-679" font-family="Helvetica,sans-Serif" font-size="10.00">+ hasChamp()</text>
<text text-anchor="start" x="670" y="-668" font-family="Helvetica,sans-Serif" font-size="10.00">+ getChampIndex()</text>
<text text-anchor="start" x="670" y="-657" font-family="Helvetica,sans-Serif" font-size="10.00">+ getSize()</text>
</a>
</g>
</g>
<!-- Node10&#45;&gt;Node1 -->
<g id="edge9" class="edge">
<title>Node10&#45;&gt;Node1</title>
<path fill="none" stroke="#404040" d="M703,-649.88C693.1,-606.05 677.49,-554.31 653.5,-512 606.1,-428.4 529.49,-350.31 469.32,-296.35"/>
<polygon fill="none" stroke="#404040" points="469.16,-296.21 462.02,-295.21 460.19,-288.24 467.33,-289.23 469.16,-296.21"/>
<text text-anchor="middle" x="678.5" y="-486" font-family="Helvetica,sans-Serif" font-size="10.00"> &#45;ennemyDeck</text>
<text text-anchor="middle" x="678.5" y="-475" font-family="Helvetica,sans-Serif" font-size="10.00">&#45;playerDeck</text>
<text text-anchor="middle" x="678.5" y="-464" font-family="Helvetica,sans-Serif" font-size="10.00">&#45;defaultPieces</text>
</g>
</g>
</svg>
