<?xml version="1.0" encoding="UTF-8" standalone="no"?>
<!DOCTYPE svg PUBLIC "-//W3C//DTD SVG 1.1//EN"
 "http://www.w3.org/Graphics/SVG/1.1/DTD/svg11.dtd">
<!-- Generated by graphviz version 2.43.0 (0)
 -->
<!-- Title: /mnt/c/Linux/projet&#45;lifap4&#45;2022/src/gameSquare.h Pages: 1 -->
<svg width="1035pt" height="307pt"
 viewBox="0.00 0.00 1035.00 307.00" xmlns="http://www.w3.org/2000/svg" xmlns:xlink="http://www.w3.org/1999/xlink">
<g id="graph0" class="graph" transform="scale(1 1) rotate(0) translate(4 303)">
<title>/mnt/c/Linux/projet&#45;lifap4&#45;2022/src/gameSquare.h</title>
<polygon fill="white" stroke="transparent" points="-4,4 -4,-303 1031,-303 1031,4 -4,4"/>
<!-- Node1 -->
<g id="node1" class="node">
<title>Node1</title>
<g id="a_node1"><a xlink:title=" ">
<polygon fill="#bfbfbf" stroke="black" points="649.5,-268.5 649.5,-298.5 816.5,-298.5 816.5,-268.5 649.5,-268.5"/>
<text text-anchor="start" x="657.5" y="-286.5" font-family="Helvetica,sans-Serif" font-size="10.00">/mnt/c/Linux/projet</text>
<text text-anchor="middle" x="733" y="-275.5" font-family="Helvetica,sans-Serif" font-size="10.00">&#45;lifap4&#45;2022/src/gameSquare.h</text>
</a>
</g>
</g>
<!-- Node2 -->
<g id="node2" class="node">
<title>Node2</title>
<g id="a_node2"><a xlink:href="gameBoard_8h.html" target="_top" xlink:title=" ">
<polygon fill="white" stroke="black" points="558.5,-201.5 558.5,-231.5 719.5,-231.5 719.5,-201.5 558.5,-201.5"/>
<text text-anchor="start" x="566.5" y="-219.5" font-family="Helvetica,sans-Serif" font-size="10.00">/mnt/c/Linux/projet</text>
<text text-anchor="middle" x="639" y="-208.5" font-family="Helvetica,sans-Serif" font-size="10.00">&#45;lifap4&#45;2022/src/gameBoard.h</text>
</a>
</g>
</g>
<!-- Node1&#45;&gt;Node2 -->
<g id="edge1" class="edge">
<title>Node1&#45;&gt;Node2</title>
<path fill="none" stroke="midnightblue" d="M704.01,-262.45C689.55,-252.45 672.41,-240.6 659.36,-231.58"/>
<polygon fill="midnightblue" stroke="midnightblue" points="702.39,-265.59 712.6,-268.4 706.37,-259.83 702.39,-265.59"/>
</g>
<!-- Node12 -->
<g id="node12" class="node">
<title>Node12</title>
<g id="a_node12"><a xlink:href="gameSquare_8cpp.html" target="_top" xlink:title=" ">
<polygon fill="white" stroke="black" points="738,-201.5 738,-231.5 916,-231.5 916,-201.5 738,-201.5"/>
<text text-anchor="start" x="746" y="-219.5" font-family="Helvetica,sans-Serif" font-size="10.00">/mnt/c/Linux/projet</text>
<text text-anchor="middle" x="827" y="-208.5" font-family="Helvetica,sans-Serif" font-size="10.00">&#45;lifap4&#45;2022/src/gameSquare.cpp</text>
</a>
</g>
</g>
<!-- Node1&#45;&gt;Node12 -->
<g id="edge11" class="edge">
<title>Node1&#45;&gt;Node12</title>
<path fill="none" stroke="midnightblue" d="M761.99,-262.45C776.45,-252.45 793.59,-240.6 806.64,-231.58"/>
<polygon fill="midnightblue" stroke="midnightblue" points="759.63,-259.83 753.4,-268.4 763.61,-265.59 759.63,-259.83"/>
</g>
<!-- Node3 -->
<g id="node3" class="node">
<title>Node3</title>
<g id="a_node3"><a xlink:href="gameConsole_8h.html" target="_top" xlink:title=" ">
<polygon fill="white" stroke="black" points="458,-134.5 458,-164.5 630,-164.5 630,-134.5 458,-134.5"/>
<text text-anchor="start" x="466" y="-152.5" font-family="Helvetica,sans-Serif" font-size="10.00">/mnt/c/Linux/projet</text>
<text text-anchor="middle" x="544" y="-141.5" font-family="Helvetica,sans-Serif" font-size="10.00">&#45;lifap4&#45;2022/src/gameConsole.h</text>
</a>
</g>
</g>
<!-- Node2&#45;&gt;Node3 -->
<g id="edge2" class="edge">
<title>Node2&#45;&gt;Node3</title>
<path fill="none" stroke="midnightblue" d="M610.11,-195.73C595.41,-185.68 577.89,-173.68 564.57,-164.58"/>
<polygon fill="midnightblue" stroke="midnightblue" points="608.16,-198.64 618.39,-201.4 612.11,-192.86 608.16,-198.64"/>
</g>
<!-- Node11 -->
<g id="node11" class="node">
<title>Node11</title>
<g id="a_node11"><a xlink:href="gameBoard_8cpp.html" target="_top" xlink:title=" ">
<polygon fill="white" stroke="black" points="648.5,-134.5 648.5,-164.5 821.5,-164.5 821.5,-134.5 648.5,-134.5"/>
<text text-anchor="start" x="656.5" y="-152.5" font-family="Helvetica,sans-Serif" font-size="10.00">/mnt/c/Linux/projet</text>
<text text-anchor="middle" x="735" y="-141.5" font-family="Helvetica,sans-Serif" font-size="10.00">&#45;lifap4&#45;2022/src/gameBoard.cpp</text>
</a>
</g>
</g>
<!-- Node2&#45;&gt;Node11 -->
<g id="edge10" class="edge">
<title>Node2&#45;&gt;Node11</title>
<path fill="none" stroke="midnightblue" d="M668.19,-195.73C683.05,-185.68 700.76,-173.68 714.21,-164.58"/>
<polygon fill="midnightblue" stroke="midnightblue" points="666.15,-192.89 659.83,-201.4 670.07,-198.69 666.15,-192.89"/>
</g>
<!-- Node4 -->
<g id="node4" class="node">
<title>Node4</title>
<g id="a_node4"><a xlink:href="game2D_8h.html" target="_top" xlink:title=" ">
<polygon fill="white" stroke="black" points="93,-67.5 93,-97.5 239,-97.5 239,-67.5 93,-67.5"/>
<text text-anchor="start" x="101" y="-85.5" font-family="Helvetica,sans-Serif" font-size="10.00">/mnt/c/Linux/projet</text>
<text text-anchor="middle" x="166" y="-74.5" font-family="Helvetica,sans-Serif" font-size="10.00">&#45;lifap4&#45;2022/src/game2D.h</text>
</a>
</g>
</g>
<!-- Node3&#45;&gt;Node4 -->
<g id="edge3" class="edge">
<title>Node3&#45;&gt;Node4</title>
<path fill="none" stroke="midnightblue" d="M451.75,-132.79C393.57,-122.86 316.88,-109.74 249,-98 245.83,-97.45 242.59,-96.89 239.32,-96.32"/>
<polygon fill="midnightblue" stroke="midnightblue" points="451.2,-136.25 461.65,-134.48 452.38,-129.35 451.2,-136.25"/>
</g>
<!-- Node7 -->
<g id="node7" class="node">
<title>Node7</title>
<g id="a_node7"><a xlink:href="gameConsole_8cpp.html" target="_top" xlink:title=" ">
<polygon fill="white" stroke="black" points="257.5,-67.5 257.5,-97.5 440.5,-97.5 440.5,-67.5 257.5,-67.5"/>
<text text-anchor="start" x="265.5" y="-85.5" font-family="Helvetica,sans-Serif" font-size="10.00">/mnt/c/Linux/projet</text>
<text text-anchor="middle" x="349" y="-74.5" font-family="Helvetica,sans-Serif" font-size="10.00">&#45;lifap4&#45;2022/src/gameConsole.cpp</text>
</a>
</g>
</g>
<!-- Node3&#45;&gt;Node7 -->
<g id="edge6" class="edge">
<title>Node3&#45;&gt;Node7</title>
<path fill="none" stroke="midnightblue" d="M492.18,-131.23C460.64,-120.71 420.85,-107.45 391.23,-97.58"/>
<polygon fill="midnightblue" stroke="midnightblue" points="491.09,-134.55 501.69,-134.4 493.31,-127.91 491.09,-134.55"/>
</g>
<!-- Node8 -->
<g id="node8" class="node">
<title>Node8</title>
<g id="a_node8"><a xlink:href="mainClient_8cpp.html" target="_top" xlink:title=" ">
<polygon fill="white" stroke="black" points="459,-67.5 459,-97.5 629,-97.5 629,-67.5 459,-67.5"/>
<text text-anchor="start" x="467" y="-85.5" font-family="Helvetica,sans-Serif" font-size="10.00">/mnt/c/Linux/projet</text>
<text text-anchor="middle" x="544" y="-74.5" font-family="Helvetica,sans-Serif" font-size="10.00">&#45;lifap4&#45;2022/src/mainClient.cpp</text>
</a>
</g>
</g>
<!-- Node3&#45;&gt;Node8 -->
<g id="edge7" class="edge">
<title>Node3&#45;&gt;Node8</title>
<path fill="none" stroke="midnightblue" d="M544,-124.11C544,-115.15 544,-105.32 544,-97.58"/>
<polygon fill="midnightblue" stroke="midnightblue" points="540.5,-124.4 544,-134.4 547.5,-124.4 540.5,-124.4"/>
</g>
<!-- Node9 -->
<g id="node9" class="node">
<title>Node9</title>
<g id="a_node9"><a xlink:href="mainGameTest_8cpp.html" target="_top" xlink:title=" ">
<polygon fill="white" stroke="black" points="647,-67.5 647,-97.5 837,-97.5 837,-67.5 647,-67.5"/>
<text text-anchor="start" x="655" y="-85.5" font-family="Helvetica,sans-Serif" font-size="10.00">/mnt/c/Linux/projet</text>
<text text-anchor="middle" x="742" y="-74.5" font-family="Helvetica,sans-Serif" font-size="10.00">&#45;lifap4&#45;2022/src/mainGameTest.cpp</text>
</a>
</g>
</g>
<!-- Node3&#45;&gt;Node9 -->
<g id="edge8" class="edge">
<title>Node3&#45;&gt;Node9</title>
<path fill="none" stroke="midnightblue" d="M596.61,-131.23C628.64,-120.71 669.04,-107.45 699.12,-97.58"/>
<polygon fill="midnightblue" stroke="midnightblue" points="595.37,-127.95 586.96,-134.4 597.56,-134.6 595.37,-127.95"/>
</g>
<!-- Node10 -->
<g id="node10" class="node">
<title>Node10</title>
<g id="a_node10"><a xlink:href="mainServer_8cpp.html" target="_top" xlink:title=" ">
<polygon fill="white" stroke="black" points="855,-67.5 855,-97.5 1027,-97.5 1027,-67.5 855,-67.5"/>
<text text-anchor="start" x="863" y="-85.5" font-family="Helvetica,sans-Serif" font-size="10.00">/mnt/c/Linux/projet</text>
<text text-anchor="middle" x="941" y="-74.5" font-family="Helvetica,sans-Serif" font-size="10.00">&#45;lifap4&#45;2022/src/mainServer.cpp</text>
</a>
</g>
</g>
<!-- Node3&#45;&gt;Node10 -->
<g id="edge9" class="edge">
<title>Node3&#45;&gt;Node10</title>
<path fill="none" stroke="midnightblue" d="M639.6,-132.85C705.26,-122.1 791.69,-107.95 855.16,-97.55"/>
<polygon fill="midnightblue" stroke="midnightblue" points="638.96,-129.41 629.65,-134.48 640.09,-136.31 638.96,-129.41"/>
</g>
<!-- Node5 -->
<g id="node5" class="node">
<title>Node5</title>
<g id="a_node5"><a xlink:href="game2D_8cpp.html" target="_top" xlink:title=" ">
<polygon fill="white" stroke="black" points="0,-0.5 0,-30.5 158,-30.5 158,-0.5 0,-0.5"/>
<text text-anchor="start" x="8" y="-18.5" font-family="Helvetica,sans-Serif" font-size="10.00">/mnt/c/Linux/projet</text>
<text text-anchor="middle" x="79" y="-7.5" font-family="Helvetica,sans-Serif" font-size="10.00">&#45;lifap4&#45;2022/src/game2D.cpp</text>
</a>
</g>
</g>
<!-- Node4&#45;&gt;Node5 -->
<g id="edge4" class="edge">
<title>Node4&#45;&gt;Node5</title>
<path fill="none" stroke="midnightblue" d="M138.79,-61.17C125.48,-51.23 109.8,-39.51 97.84,-30.58"/>
<polygon fill="midnightblue" stroke="midnightblue" points="137.02,-64.21 147.12,-67.4 141.21,-58.61 137.02,-64.21"/>
</g>
<!-- Node6 -->
<g id="node6" class="node">
<title>Node6</title>
<g id="a_node6"><a xlink:href="main2D_8cpp.html" target="_top" xlink:title=" ">
<polygon fill="white" stroke="black" points="176.5,-0.5 176.5,-30.5 331.5,-30.5 331.5,-0.5 176.5,-0.5"/>
<text text-anchor="start" x="184.5" y="-18.5" font-family="Helvetica,sans-Serif" font-size="10.00">/mnt/c/Linux/projet</text>
<text text-anchor="middle" x="254" y="-7.5" font-family="Helvetica,sans-Serif" font-size="10.00">&#45;lifap4&#45;2022/src/main2D.cpp</text>
</a>
</g>
</g>
<!-- Node4&#45;&gt;Node6 -->
<g id="edge5" class="edge">
<title>Node4&#45;&gt;Node6</title>
<path fill="none" stroke="midnightblue" d="M193.14,-61.45C206.68,-51.45 222.73,-39.6 234.94,-30.58"/>
<polygon fill="midnightblue" stroke="midnightblue" points="191.06,-58.64 185.09,-67.4 195.22,-64.27 191.06,-58.64"/>
</g>
</g>
</svg>
