<?xml version="1.0" encoding="UTF-8" standalone="no"?>
<!DOCTYPE svg PUBLIC "-//W3C//DTD SVG 1.1//EN"
 "http://www.w3.org/Graphics/SVG/1.1/DTD/svg11.dtd">
<!-- Generated by graphviz version 2.43.0 (0)
 -->
<!-- Title: /mnt/c/Linux/projet&#45;lifap4&#45;2022/src/game.h Pages: 1 -->
<svg width="284pt" height="95pt"
 viewBox="0.00 0.00 284.00 95.00" xmlns="http://www.w3.org/2000/svg" xmlns:xlink="http://www.w3.org/1999/xlink">
<g id="graph0" class="graph" transform="scale(1 1) rotate(0) translate(4 91)">
<title>/mnt/c/Linux/projet&#45;lifap4&#45;2022/src/game.h</title>
<polygon fill="white" stroke="transparent" points="-4,4 -4,-91 280,-91 280,4 -4,4"/>
<!-- Node1 -->
<g id="node1" class="node">
<title>Node1</title>
<g id="a_node1"><a xlink:title=" ">
<polygon fill="#bfbfbf" stroke="black" points="77.5,-56.5 77.5,-86.5 210.5,-86.5 210.5,-56.5 77.5,-56.5"/>
<text text-anchor="start" x="85.5" y="-74.5" font-family="Helvetica,sans-Serif" font-size="10.00">/mnt/c/Linux/projet</text>
<text text-anchor="middle" x="144" y="-63.5" font-family="Helvetica,sans-Serif" font-size="10.00">&#45;lifap4&#45;2022/src/game.h</text>
</a>
</g>
</g>
<!-- Node2 -->
<g id="node2" class="node">
<title>Node2</title>
<g id="a_node2"><a xlink:title=" ">
<polygon fill="white" stroke="#bfbfbf" points="0,-0.5 0,-19.5 72,-19.5 72,-0.5 0,-0.5"/>
<text text-anchor="middle" x="36" y="-7.5" font-family="Helvetica,sans-Serif" font-size="10.00">SDL2/SDL.h</text>
</a>
</g>
</g>
<!-- Node1&#45;&gt;Node2 -->
<g id="edge1" class="edge">
<title>Node1&#45;&gt;Node2</title>
<path fill="none" stroke="midnightblue" d="M118.41,-56.4C100.93,-46.77 77.91,-34.09 60.64,-24.58"/>
<polygon fill="midnightblue" stroke="midnightblue" points="62.16,-21.42 51.71,-19.66 58.78,-27.55 62.16,-21.42"/>
</g>
<!-- Node3 -->
<g id="node3" class="node">
<title>Node3</title>
<g id="a_node3"><a xlink:title=" ">
<polygon fill="white" stroke="#bfbfbf" points="90,-0.5 90,-19.5 198,-19.5 198,-0.5 90,-0.5"/>
<text text-anchor="middle" x="144" y="-7.5" font-family="Helvetica,sans-Serif" font-size="10.00">SDL2/SDL_image.h</text>
</a>
</g>
</g>
<!-- Node1&#45;&gt;Node3 -->
<g id="edge2" class="edge">
<title>Node1&#45;&gt;Node3</title>
<path fill="none" stroke="midnightblue" d="M144,-56.4C144,-48.47 144,-38.46 144,-29.86"/>
<polygon fill="midnightblue" stroke="midnightblue" points="147.5,-29.66 144,-19.66 140.5,-29.66 147.5,-29.66"/>
</g>
<!-- Node4 -->
<g id="node4" class="node">
<title>Node4</title>
<g id="a_node4"><a xlink:title=" ">
<polygon fill="white" stroke="#bfbfbf" points="216,-0.5 216,-19.5 276,-19.5 276,-0.5 216,-0.5"/>
<text text-anchor="middle" x="246" y="-7.5" font-family="Helvetica,sans-Serif" font-size="10.00">iostream</text>
</a>
</g>
</g>
<!-- Node1&#45;&gt;Node4 -->
<g id="edge3" class="edge">
<title>Node1&#45;&gt;Node4</title>
<path fill="none" stroke="midnightblue" d="M168.17,-56.4C184.52,-46.86 206.01,-34.32 222.27,-24.84"/>
<polygon fill="midnightblue" stroke="midnightblue" points="224.28,-27.72 231.16,-19.66 220.76,-21.67 224.28,-27.72"/>
</g>
</g>
</svg>
