<?xml version="1.0" encoding="UTF-8" standalone="no"?>
<!DOCTYPE svg PUBLIC "-//W3C//DTD SVG 1.1//EN"
 "http://www.w3.org/Graphics/SVG/1.1/DTD/svg11.dtd">
<!-- Generated by graphviz version 2.43.0 (0)
 -->
<!-- Title: /mnt/c/Linux/projet&#45;lifap4&#45;2022/src/game2D.h Pages: 1 -->
<svg width="340pt" height="106pt"
 viewBox="0.00 0.00 339.50 106.00" xmlns="http://www.w3.org/2000/svg" xmlns:xlink="http://www.w3.org/1999/xlink">
<g id="graph0" class="graph" transform="scale(1 1) rotate(0) translate(4 102)">
<title>/mnt/c/Linux/projet&#45;lifap4&#45;2022/src/game2D.h</title>
<polygon fill="white" stroke="transparent" points="-4,4 -4,-102 335.5,-102 335.5,4 -4,4"/>
<!-- Node1 -->
<g id="node1" class="node">
<title>Node1</title>
<g id="a_node1"><a xlink:title=" ">
<polygon fill="#bfbfbf" stroke="black" points="93,-67.5 93,-97.5 239,-97.5 239,-67.5 93,-67.5"/>
<text text-anchor="start" x="101" y="-85.5" font-family="Helvetica,sans-Serif" font-size="10.00">/mnt/c/Linux/projet</text>
<text text-anchor="middle" x="166" y="-74.5" font-family="Helvetica,sans-Serif" font-size="10.00">&#45;lifap4&#45;2022/src/game2D.h</text>
</a>
</g>
</g>
<!-- Node2 -->
<g id="node2" class="node">
<title>Node2</title>
<g id="a_node2"><a xlink:href="game2D_8cpp.html" target="_top" xlink:title=" ">
<polygon fill="white" stroke="black" points="0,-0.5 0,-30.5 158,-30.5 158,-0.5 0,-0.5"/>
<text text-anchor="start" x="8" y="-18.5" font-family="Helvetica,sans-Serif" font-size="10.00">/mnt/c/Linux/projet</text>
<text text-anchor="middle" x="79" y="-7.5" font-family="Helvetica,sans-Serif" font-size="10.00">&#45;lifap4&#45;2022/src/game2D.cpp</text>
</a>
</g>
</g>
<!-- Node1&#45;&gt;Node2 -->
<g id="edge1" class="edge">
<title>Node1&#45;&gt;Node2</title>
<path fill="none" stroke="midnightblue" d="M138.79,-61.17C125.48,-51.23 109.8,-39.51 97.84,-30.58"/>
<polygon fill="midnightblue" stroke="midnightblue" points="137.02,-64.21 147.12,-67.4 141.21,-58.61 137.02,-64.21"/>
</g>
<!-- Node3 -->
<g id="node3" class="node">
<title>Node3</title>
<g id="a_node3"><a xlink:href="main2D_8cpp.html" target="_top" xlink:title=" ">
<polygon fill="white" stroke="black" points="176.5,-0.5 176.5,-30.5 331.5,-30.5 331.5,-0.5 176.5,-0.5"/>
<text text-anchor="start" x="184.5" y="-18.5" font-family="Helvetica,sans-Serif" font-size="10.00">/mnt/c/Linux/projet</text>
<text text-anchor="middle" x="254" y="-7.5" font-family="Helvetica,sans-Serif" font-size="10.00">&#45;lifap4&#45;2022/src/main2D.cpp</text>
</a>
</g>
</g>
<!-- Node1&#45;&gt;Node3 -->
<g id="edge2" class="edge">
<title>Node1&#45;&gt;Node3</title>
<path fill="none" stroke="midnightblue" d="M193.14,-61.45C206.68,-51.45 222.73,-39.6 234.94,-30.58"/>
<polygon fill="midnightblue" stroke="midnightblue" points="191.06,-58.64 185.09,-67.4 195.22,-64.27 191.06,-58.64"/>
</g>
</g>
</svg>
