<?xml version="1.0" encoding="UTF-8" standalone="no"?>
<!DOCTYPE svg PUBLIC "-//W3C//DTD SVG 1.1//EN"
 "http://www.w3.org/Graphics/SVG/1.1/DTD/svg11.dtd">
<!-- Generated by graphviz version 2.43.0 (0)
 -->
<!-- Title: /mnt/c/Linux/projet&#45;lifap4&#45;2022/src/game2D.h Pages: 1 -->
<svg width="681pt" height="431pt"
 viewBox="0.00 0.00 680.50 431.00" xmlns="http://www.w3.org/2000/svg" xmlns:xlink="http://www.w3.org/1999/xlink">
<g id="graph0" class="graph" transform="scale(1 1) rotate(0) translate(4 427)">
<title>/mnt/c/Linux/projet&#45;lifap4&#45;2022/src/game2D.h</title>
<polygon fill="white" stroke="transparent" points="-4,4 -4,-427 676.5,-427 676.5,4 -4,4"/>
<!-- Node1 -->
<g id="node1" class="node">
<title>Node1</title>
<g id="a_node1"><a xlink:title=" ">
<polygon fill="#bfbfbf" stroke="black" points="231,-392.5 231,-422.5 377,-422.5 377,-392.5 231,-392.5"/>
<text text-anchor="start" x="239" y="-410.5" font-family="Helvetica,sans-Serif" font-size="10.00">/mnt/c/Linux/projet</text>
<text text-anchor="middle" x="304" y="-399.5" font-family="Helvetica,sans-Serif" font-size="10.00">&#45;lifap4&#45;2022/src/game2D.h</text>
</a>
</g>
</g>
<!-- Node2 -->
<g id="node2" class="node">
<title>Node2</title>
<g id="a_node2"><a xlink:href="affichage2D_8h.html" target="_top" xlink:title=" ">
<polygon fill="white" stroke="black" points="262,-224.5 262,-243.5 346,-243.5 346,-224.5 262,-224.5"/>
<text text-anchor="middle" x="304" y="-231.5" font-family="Helvetica,sans-Serif" font-size="10.00">affichage2D.h</text>
</a>
</g>
</g>
<!-- Node1&#45;&gt;Node2 -->
<g id="edge1" class="edge">
<title>Node1&#45;&gt;Node2</title>
<path fill="none" stroke="midnightblue" d="M304,-392.47C304,-361.7 304,-288.33 304,-253.7"/>
<polygon fill="midnightblue" stroke="midnightblue" points="307.5,-253.56 304,-243.56 300.5,-253.56 307.5,-253.56"/>
</g>
<!-- Node9 -->
<g id="node9" class="node">
<title>Node9</title>
<g id="a_node9"><a xlink:title=" ">
<polygon fill="white" stroke="#bfbfbf" points="244,-0.5 244,-19.5 288,-19.5 288,-0.5 244,-0.5"/>
<text text-anchor="middle" x="266" y="-7.5" font-family="Helvetica,sans-Serif" font-size="10.00">string</text>
</a>
</g>
</g>
<!-- Node1&#45;&gt;Node9 -->
<g id="edge35" class="edge">
<title>Node1&#45;&gt;Node9</title>
<path fill="none" stroke="midnightblue" d="M230.8,-393.74C140.84,-375.93 0,-340.19 0,-291 0,-291 0,-291 0,-121 0,-72.73 43.41,-76.73 87,-56 135.33,-33.01 196.78,-20.87 233.67,-15.2"/>
<polygon fill="midnightblue" stroke="midnightblue" points="234.45,-18.62 243.84,-13.71 233.44,-11.7 234.45,-18.62"/>
</g>
<!-- Node16 -->
<g id="node16" class="node">
<title>Node16</title>
<g id="a_node16"><a xlink:href="gameConsole_8h.html" target="_top" xlink:title=" ">
<polygon fill="white" stroke="black" points="470,-336.5 470,-355.5 562,-355.5 562,-336.5 470,-336.5"/>
<text text-anchor="middle" x="516" y="-343.5" font-family="Helvetica,sans-Serif" font-size="10.00">gameConsole.h</text>
</a>
</g>
</g>
<!-- Node1&#45;&gt;Node16 -->
<g id="edge22" class="edge">
<title>Node1&#45;&gt;Node16</title>
<path fill="none" stroke="midnightblue" d="M353.97,-392.47C391.19,-382.03 441.33,-367.96 475.93,-358.25"/>
<polygon fill="midnightblue" stroke="midnightblue" points="477.01,-361.58 485.69,-355.51 475.12,-354.84 477.01,-361.58"/>
</g>
<!-- Node3 -->
<g id="node3" class="node">
<title>Node3</title>
<g id="a_node3"><a xlink:title=" ">
<polygon fill="white" stroke="#bfbfbf" points="230,-168.5 230,-187.5 302,-187.5 302,-168.5 230,-168.5"/>
<text text-anchor="middle" x="266" y="-175.5" font-family="Helvetica,sans-Serif" font-size="10.00">SDL2/SDL.h</text>
</a>
</g>
</g>
<!-- Node2&#45;&gt;Node3 -->
<g id="edge2" class="edge">
<title>Node2&#45;&gt;Node3</title>
<path fill="none" stroke="midnightblue" d="M297.73,-224.08C292.36,-216.46 284.48,-205.26 277.92,-195.94"/>
<polygon fill="midnightblue" stroke="midnightblue" points="280.78,-193.91 272.16,-187.75 275.05,-197.94 280.78,-193.91"/>
</g>
<!-- Node4 -->
<g id="node4" class="node">
<title>Node4</title>
<g id="a_node4"><a xlink:title=" ">
<polygon fill="white" stroke="#bfbfbf" points="104,-168.5 104,-187.5 212,-187.5 212,-168.5 104,-168.5"/>
<text text-anchor="middle" x="158" y="-175.5" font-family="Helvetica,sans-Serif" font-size="10.00">SDL2/SDL_image.h</text>
</a>
</g>
</g>
<!-- Node2&#45;&gt;Node4 -->
<g id="edge3" class="edge">
<title>Node2&#45;&gt;Node4</title>
<path fill="none" stroke="midnightblue" d="M280.87,-224.44C256.52,-215.44 217.99,-201.19 190.58,-191.05"/>
<polygon fill="midnightblue" stroke="midnightblue" points="191.62,-187.7 181.03,-187.52 189.19,-194.27 191.62,-187.7"/>
</g>
<!-- Node5 -->
<g id="node5" class="node">
<title>Node5</title>
<g id="a_node5"><a xlink:title=" ">
<polygon fill="white" stroke="#bfbfbf" points="433,-0.5 433,-19.5 493,-19.5 493,-0.5 433,-0.5"/>
<text text-anchor="middle" x="463" y="-7.5" font-family="Helvetica,sans-Serif" font-size="10.00">iostream</text>
</a>
</g>
</g>
<!-- Node2&#45;&gt;Node5 -->
<g id="edge4" class="edge">
<title>Node2&#45;&gt;Node5</title>
<path fill="none" stroke="midnightblue" d="M320.4,-224.34C335.09,-216.14 356.76,-202.87 373,-188 419.69,-145.25 439.39,-135.5 461,-76 466.37,-61.23 466.49,-43.3 465.48,-30.02"/>
<polygon fill="midnightblue" stroke="midnightblue" points="468.93,-29.32 464.41,-19.73 461.96,-30.04 468.93,-29.32"/>
</g>
<!-- Node6 -->
<g id="node6" class="node">
<title>Node6</title>
<g id="a_node6"><a xlink:href="unit_8h.html" target="_top" xlink:title=" ">
<polygon fill="white" stroke="black" points="320,-168.5 320,-187.5 364,-187.5 364,-168.5 320,-168.5"/>
<text text-anchor="middle" x="342" y="-175.5" font-family="Helvetica,sans-Serif" font-size="10.00">unit.h</text>
</a>
</g>
</g>
<!-- Node2&#45;&gt;Node6 -->
<g id="edge5" class="edge">
<title>Node2&#45;&gt;Node6</title>
<path fill="none" stroke="midnightblue" d="M310.27,-224.08C315.64,-216.46 323.52,-205.26 330.08,-195.94"/>
<polygon fill="midnightblue" stroke="midnightblue" points="332.95,-197.94 335.84,-187.75 327.22,-193.91 332.95,-197.94"/>
</g>
<!-- Node7 -->
<g id="node7" class="node">
<title>Node7</title>
<g id="a_node7"><a xlink:href="cardLib_8h.html" target="_top" xlink:title=" ">
<polygon fill="white" stroke="black" points="273.5,-112.5 273.5,-131.5 334.5,-131.5 334.5,-112.5 273.5,-112.5"/>
<text text-anchor="middle" x="304" y="-119.5" font-family="Helvetica,sans-Serif" font-size="10.00">cardLib.h</text>
</a>
</g>
</g>
<!-- Node6&#45;&gt;Node7 -->
<g id="edge6" class="edge">
<title>Node6&#45;&gt;Node7</title>
<path fill="none" stroke="midnightblue" d="M335.73,-168.08C330.36,-160.46 322.48,-149.26 315.92,-139.94"/>
<polygon fill="midnightblue" stroke="midnightblue" points="318.78,-137.91 310.16,-131.75 313.05,-141.94 318.78,-137.91"/>
</g>
<!-- Node14 -->
<g id="node14" class="node">
<title>Node14</title>
<g id="a_node14"><a xlink:href="statusCodex_8h.html" target="_top" xlink:title=" ">
<polygon fill="white" stroke="black" points="119,-112.5 119,-131.5 205,-131.5 205,-112.5 119,-112.5"/>
<text text-anchor="middle" x="162" y="-119.5" font-family="Helvetica,sans-Serif" font-size="10.00">statusCodex.h</text>
</a>
</g>
</g>
<!-- Node6&#45;&gt;Node14 -->
<g id="edge15" class="edge">
<title>Node6&#45;&gt;Node14</title>
<path fill="none" stroke="midnightblue" d="M319.93,-170.38C290.15,-161.45 236.66,-145.4 200.26,-134.48"/>
<polygon fill="midnightblue" stroke="midnightblue" points="201.07,-131.07 190.48,-131.55 199.06,-137.77 201.07,-131.07"/>
</g>
<!-- Node8 -->
<g id="node8" class="node">
<title>Node8</title>
<g id="a_node8"><a xlink:href="card_8h.html" target="_top" xlink:title=" ">
<polygon fill="white" stroke="black" points="242.5,-56.5 242.5,-75.5 289.5,-75.5 289.5,-56.5 242.5,-56.5"/>
<text text-anchor="middle" x="266" y="-63.5" font-family="Helvetica,sans-Serif" font-size="10.00">card.h</text>
</a>
</g>
</g>
<!-- Node7&#45;&gt;Node8 -->
<g id="edge7" class="edge">
<title>Node7&#45;&gt;Node8</title>
<path fill="none" stroke="midnightblue" d="M297.73,-112.08C292.36,-104.46 284.48,-93.26 277.92,-83.94"/>
<polygon fill="midnightblue" stroke="midnightblue" points="280.78,-81.91 272.16,-75.75 275.05,-85.94 280.78,-81.91"/>
</g>
<!-- Node7&#45;&gt;Node9 -->
<g id="edge14" class="edge">
<title>Node7&#45;&gt;Node9</title>
<path fill="none" stroke="midnightblue" d="M326.02,-112.41C351.7,-101.06 388.75,-79.72 373,-56 356.51,-31.18 323.37,-20.02 298.31,-15.02"/>
<polygon fill="midnightblue" stroke="midnightblue" points="298.6,-11.51 288.14,-13.23 297.39,-18.41 298.6,-11.51"/>
</g>
<!-- Node11 -->
<g id="node11" class="node">
<title>Node11</title>
<g id="a_node11"><a xlink:title=" ">
<polygon fill="white" stroke="#bfbfbf" points="104.5,-56.5 104.5,-75.5 151.5,-75.5 151.5,-56.5 104.5,-56.5"/>
<text text-anchor="middle" x="128" y="-63.5" font-family="Helvetica,sans-Serif" font-size="10.00">vector</text>
</a>
</g>
</g>
<!-- Node7&#45;&gt;Node11 -->
<g id="edge11" class="edge">
<title>Node7&#45;&gt;Node11</title>
<path fill="none" stroke="midnightblue" d="M276.11,-112.44C244.93,-102.88 194.45,-87.39 161.24,-77.2"/>
<polygon fill="midnightblue" stroke="midnightblue" points="162.12,-73.81 151.53,-74.22 160.07,-80.5 162.12,-73.81"/>
</g>
<!-- Node12 -->
<g id="node12" class="node">
<title>Node12</title>
<g id="a_node12"><a xlink:title=" ">
<polygon fill="white" stroke="#bfbfbf" points="420,-56.5 420,-75.5 452,-75.5 452,-56.5 420,-56.5"/>
<text text-anchor="middle" x="436" y="-63.5" font-family="Helvetica,sans-Serif" font-size="10.00">list</text>
</a>
</g>
</g>
<!-- Node7&#45;&gt;Node12 -->
<g id="edge12" class="edge">
<title>Node7&#45;&gt;Node12</title>
<path fill="none" stroke="midnightblue" d="M324.92,-112.44C348.05,-102.98 385.32,-87.73 410.24,-77.54"/>
<polygon fill="midnightblue" stroke="midnightblue" points="411.83,-80.67 419.76,-73.64 409.18,-74.19 411.83,-80.67"/>
</g>
<!-- Node13 -->
<g id="node13" class="node">
<title>Node13</title>
<g id="a_node13"><a xlink:title=" ">
<polygon fill="white" stroke="#bfbfbf" points="169.5,-56.5 169.5,-75.5 224.5,-75.5 224.5,-56.5 169.5,-56.5"/>
<text text-anchor="middle" x="197" y="-63.5" font-family="Helvetica,sans-Serif" font-size="10.00">fstream</text>
</a>
</g>
</g>
<!-- Node7&#45;&gt;Node13 -->
<g id="edge13" class="edge">
<title>Node7&#45;&gt;Node13</title>
<path fill="none" stroke="midnightblue" d="M286.81,-112.32C269.65,-103.66 243.05,-90.24 223.25,-80.25"/>
<polygon fill="midnightblue" stroke="midnightblue" points="224.65,-77.04 214.15,-75.65 221.5,-83.28 224.65,-77.04"/>
</g>
<!-- Node8&#45;&gt;Node5 -->
<g id="edge9" class="edge">
<title>Node8&#45;&gt;Node5</title>
<path fill="none" stroke="midnightblue" d="M289.76,-58.49C322.78,-49.44 382.98,-32.93 422.99,-21.97"/>
<polygon fill="midnightblue" stroke="midnightblue" points="423.98,-25.32 432.7,-19.3 422.13,-18.57 423.98,-25.32"/>
</g>
<!-- Node8&#45;&gt;Node9 -->
<g id="edge8" class="edge">
<title>Node8&#45;&gt;Node9</title>
<path fill="none" stroke="midnightblue" d="M266,-56.08C266,-49.01 266,-38.86 266,-29.99"/>
<polygon fill="midnightblue" stroke="midnightblue" points="269.5,-29.75 266,-19.75 262.5,-29.75 269.5,-29.75"/>
</g>
<!-- Node10 -->
<g id="node10" class="node">
<title>Node10</title>
<g id="a_node10"><a xlink:title=" ">
<polygon fill="white" stroke="#bfbfbf" points="90,-0.5 90,-19.5 146,-19.5 146,-0.5 90,-0.5"/>
<text text-anchor="middle" x="118" y="-7.5" font-family="Helvetica,sans-Serif" font-size="10.00">assert.h</text>
</a>
</g>
</g>
<!-- Node8&#45;&gt;Node10 -->
<g id="edge10" class="edge">
<title>Node8&#45;&gt;Node10</title>
<path fill="none" stroke="midnightblue" d="M242.55,-56.44C217.87,-47.44 178.81,-33.19 151.02,-23.05"/>
<polygon fill="midnightblue" stroke="midnightblue" points="151.94,-19.66 141.34,-19.52 149.54,-26.23 151.94,-19.66"/>
</g>
<!-- Node14&#45;&gt;Node9 -->
<g id="edge21" class="edge">
<title>Node14&#45;&gt;Node9</title>
<path fill="none" stroke="midnightblue" d="M140.92,-112.34C115.35,-100.59 77.68,-78.46 95,-56 111.83,-34.17 189.21,-20.82 233.9,-14.8"/>
<polygon fill="midnightblue" stroke="midnightblue" points="234.5,-18.25 243.97,-13.49 233.6,-11.31 234.5,-18.25"/>
</g>
<!-- Node14&#45;&gt;Node10 -->
<g id="edge20" class="edge">
<title>Node14&#45;&gt;Node10</title>
<path fill="none" stroke="midnightblue" d="M118.85,-112.95C97.91,-106.64 74.61,-95.5 62,-76 49.6,-56.82 72.14,-37.3 92.21,-24.73"/>
<polygon fill="midnightblue" stroke="midnightblue" points="94.02,-27.73 100.84,-19.63 90.45,-21.7 94.02,-27.73"/>
</g>
<!-- Node14&#45;&gt;Node11 -->
<g id="edge18" class="edge">
<title>Node14&#45;&gt;Node11</title>
<path fill="none" stroke="midnightblue" d="M156.39,-112.08C151.63,-104.53 144.68,-93.49 138.85,-84.23"/>
<polygon fill="midnightblue" stroke="midnightblue" points="141.8,-82.35 133.51,-75.75 135.88,-86.08 141.8,-82.35"/>
</g>
<!-- Node14&#45;&gt;Node13 -->
<g id="edge19" class="edge">
<title>Node14&#45;&gt;Node13</title>
<path fill="none" stroke="midnightblue" d="M167.78,-112.08C172.67,-104.53 179.83,-93.49 185.83,-84.23"/>
<polygon fill="midnightblue" stroke="midnightblue" points="188.83,-86.05 191.33,-75.75 182.95,-82.24 188.83,-86.05"/>
</g>
<!-- Node15 -->
<g id="node15" class="node">
<title>Node15</title>
<g id="a_node15"><a xlink:href="status_8h.html" target="_top" xlink:title=" ">
<polygon fill="white" stroke="black" points="308,-56.5 308,-75.5 364,-75.5 364,-56.5 308,-56.5"/>
<text text-anchor="middle" x="336" y="-63.5" font-family="Helvetica,sans-Serif" font-size="10.00">status.h</text>
</a>
</g>
</g>
<!-- Node14&#45;&gt;Node15 -->
<g id="edge16" class="edge">
<title>Node14&#45;&gt;Node15</title>
<path fill="none" stroke="midnightblue" d="M189.57,-112.44C219.1,-103.28 266.12,-88.69 298.88,-78.52"/>
<polygon fill="midnightblue" stroke="midnightblue" points="300.04,-81.82 308.56,-75.52 297.97,-75.14 300.04,-81.82"/>
</g>
<!-- Node15&#45;&gt;Node5 -->
<g id="edge17" class="edge">
<title>Node15&#45;&gt;Node5</title>
<path fill="none" stroke="midnightblue" d="M356.12,-56.44C377.02,-47.56 409.93,-33.56 433.72,-23.45"/>
<polygon fill="midnightblue" stroke="midnightblue" points="435.14,-26.65 442.97,-19.52 432.4,-20.21 435.14,-26.65"/>
</g>
<!-- Node17 -->
<g id="node17" class="node">
<title>Node17</title>
<g id="a_node17"><a xlink:href="gameBoard_8h.html" target="_top" xlink:title=" ">
<polygon fill="white" stroke="black" points="397,-280.5 397,-299.5 479,-299.5 479,-280.5 397,-280.5"/>
<text text-anchor="middle" x="438" y="-287.5" font-family="Helvetica,sans-Serif" font-size="10.00">gameBoard.h</text>
</a>
</g>
</g>
<!-- Node16&#45;&gt;Node17 -->
<g id="edge23" class="edge">
<title>Node16&#45;&gt;Node17</title>
<path fill="none" stroke="midnightblue" d="M503.47,-336.32C491.41,-327.98 472.97,-315.21 458.73,-305.35"/>
<polygon fill="midnightblue" stroke="midnightblue" points="460.72,-302.47 450.5,-299.65 456.73,-308.22 460.72,-302.47"/>
</g>
<!-- Node19 -->
<g id="node19" class="node">
<title>Node19</title>
<g id="a_node19"><a xlink:href="server_8h.html" target="_top" xlink:title=" ">
<polygon fill="white" stroke="black" points="508,-56.5 508,-75.5 564,-75.5 564,-56.5 508,-56.5"/>
<text text-anchor="middle" x="536" y="-63.5" font-family="Helvetica,sans-Serif" font-size="10.00">server.h</text>
</a>
</g>
</g>
<!-- Node16&#45;&gt;Node19 -->
<g id="edge26" class="edge">
<title>Node16&#45;&gt;Node19</title>
<path fill="none" stroke="midnightblue" d="M517.44,-336.47C520.42,-318.02 527,-273 527,-235 527,-235 527,-235 527,-177 527,-144.84 530.87,-107.57 533.53,-85.71"/>
<polygon fill="midnightblue" stroke="midnightblue" points="537.04,-85.9 534.82,-75.54 530.09,-85.02 537.04,-85.9"/>
</g>
<!-- Node22 -->
<g id="node22" class="node">
<title>Node22</title>
<g id="a_node22"><a xlink:href="client_8h.html" target="_top" xlink:title=" ">
<polygon fill="white" stroke="black" points="582.5,-56.5 582.5,-75.5 635.5,-75.5 635.5,-56.5 582.5,-56.5"/>
<text text-anchor="middle" x="609" y="-63.5" font-family="Helvetica,sans-Serif" font-size="10.00">client.h</text>
</a>
</g>
</g>
<!-- Node16&#45;&gt;Node22 -->
<g id="edge31" class="edge">
<title>Node16&#45;&gt;Node22</title>
<path fill="none" stroke="midnightblue" d="M527.39,-336.4C548.37,-319.48 591,-279.61 591,-235 591,-235 591,-235 591,-177 591,-144.54 598.73,-107.38 604.06,-85.63"/>
<polygon fill="midnightblue" stroke="midnightblue" points="607.49,-86.32 606.57,-75.76 600.71,-84.59 607.49,-86.32"/>
</g>
<!-- Node18 -->
<g id="node18" class="node">
<title>Node18</title>
<g id="a_node18"><a xlink:href="gameSquare_8h.html" target="_top" xlink:title=" ">
<polygon fill="white" stroke="black" points="384.5,-224.5 384.5,-243.5 471.5,-243.5 471.5,-224.5 384.5,-224.5"/>
<text text-anchor="middle" x="428" y="-231.5" font-family="Helvetica,sans-Serif" font-size="10.00">gameSquare.h</text>
</a>
</g>
</g>
<!-- Node17&#45;&gt;Node18 -->
<g id="edge24" class="edge">
<title>Node17&#45;&gt;Node18</title>
<path fill="none" stroke="midnightblue" d="M436.35,-280.08C435.02,-272.93 433.12,-262.64 431.46,-253.69"/>
<polygon fill="midnightblue" stroke="midnightblue" points="434.88,-252.95 429.62,-243.75 428,-254.22 434.88,-252.95"/>
</g>
<!-- Node18&#45;&gt;Node6 -->
<g id="edge25" class="edge">
<title>Node18&#45;&gt;Node6</title>
<path fill="none" stroke="midnightblue" d="M414.18,-224.32C400.77,-215.9 380.18,-202.97 364.41,-193.07"/>
<polygon fill="midnightblue" stroke="midnightblue" points="366.11,-190.01 355.78,-187.65 362.39,-195.94 366.11,-190.01"/>
</g>
<!-- Node19&#45;&gt;Node5 -->
<g id="edge27" class="edge">
<title>Node19&#45;&gt;Node5</title>
<path fill="none" stroke="midnightblue" d="M524.27,-56.32C513.16,-48.11 496.26,-35.6 483.02,-25.81"/>
<polygon fill="midnightblue" stroke="midnightblue" points="485.06,-22.97 474.94,-19.83 480.9,-28.59 485.06,-22.97"/>
</g>
<!-- Node19&#45;&gt;Node9 -->
<g id="edge30" class="edge">
<title>Node19&#45;&gt;Node9</title>
<path fill="none" stroke="midnightblue" d="M507.87,-59.37C457.35,-49.27 351.55,-28.11 298.21,-17.44"/>
<polygon fill="midnightblue" stroke="midnightblue" points="298.76,-13.98 288.27,-15.45 297.39,-20.85 298.76,-13.98"/>
</g>
<!-- Node20 -->
<g id="node20" class="node">
<title>Node20</title>
<g id="a_node20"><a xlink:title=" ">
<polygon fill="white" stroke="#bfbfbf" points="579.5,-0.5 579.5,-19.5 672.5,-19.5 672.5,-0.5 579.5,-0.5"/>
<text text-anchor="middle" x="626" y="-7.5" font-family="Helvetica,sans-Serif" font-size="10.00">SDL2/SDL_net.h</text>
</a>
</g>
</g>
<!-- Node19&#45;&gt;Node20 -->
<g id="edge28" class="edge">
<title>Node19&#45;&gt;Node20</title>
<path fill="none" stroke="midnightblue" d="M550.46,-56.32C564.5,-47.9 586.05,-34.97 602.54,-25.07"/>
<polygon fill="midnightblue" stroke="midnightblue" points="604.8,-27.8 611.58,-19.65 601.2,-21.8 604.8,-27.8"/>
</g>
<!-- Node21 -->
<g id="node21" class="node">
<title>Node21</title>
<g id="a_node21"><a xlink:title=" ">
<polygon fill="white" stroke="#bfbfbf" points="511,-0.5 511,-19.5 561,-19.5 561,-0.5 511,-0.5"/>
<text text-anchor="middle" x="536" y="-7.5" font-family="Helvetica,sans-Serif" font-size="10.00">cstring</text>
</a>
</g>
</g>
<!-- Node19&#45;&gt;Node21 -->
<g id="edge29" class="edge">
<title>Node19&#45;&gt;Node21</title>
<path fill="none" stroke="midnightblue" d="M536,-56.08C536,-49.01 536,-38.86 536,-29.99"/>
<polygon fill="midnightblue" stroke="midnightblue" points="539.5,-29.75 536,-19.75 532.5,-29.75 539.5,-29.75"/>
</g>
<!-- Node22&#45;&gt;Node5 -->
<g id="edge32" class="edge">
<title>Node22&#45;&gt;Node5</title>
<path fill="none" stroke="midnightblue" d="M585.87,-56.44C561.52,-47.44 522.99,-33.19 495.58,-23.05"/>
<polygon fill="midnightblue" stroke="midnightblue" points="496.62,-19.7 486.03,-19.52 494.19,-26.27 496.62,-19.7"/>
</g>
<!-- Node22&#45;&gt;Node20 -->
<g id="edge33" class="edge">
<title>Node22&#45;&gt;Node20</title>
<path fill="none" stroke="midnightblue" d="M611.81,-56.08C614.08,-48.85 617.37,-38.41 620.21,-29.4"/>
<polygon fill="midnightblue" stroke="midnightblue" points="623.58,-30.34 623.25,-19.75 616.9,-28.24 623.58,-30.34"/>
</g>
<!-- Node22&#45;&gt;Node21 -->
<g id="edge34" class="edge">
<title>Node22&#45;&gt;Node21</title>
<path fill="none" stroke="midnightblue" d="M597.27,-56.32C586.16,-48.11 569.26,-35.6 556.02,-25.81"/>
<polygon fill="midnightblue" stroke="midnightblue" points="558.06,-22.97 547.94,-19.83 553.9,-28.59 558.06,-22.97"/>
</g>
</g>
</svg>
