<?xml version="1.0" encoding="UTF-8" standalone="no"?>
<!DOCTYPE svg PUBLIC "-//W3C//DTD SVG 1.1//EN"
 "http://www.w3.org/Graphics/SVG/1.1/DTD/svg11.dtd">
<!-- Generated by graphviz version 2.43.0 (0)
 -->
<!-- Title: /mnt/c/Linux/projet&#45;lifap4&#45;2022/src/gameConsole.cpp Pages: 1 -->
<svg width="590pt" height="431pt"
 viewBox="0.00 0.00 590.26 431.00" xmlns="http://www.w3.org/2000/svg" xmlns:xlink="http://www.w3.org/1999/xlink">
<g id="graph0" class="graph" transform="scale(1 1) rotate(0) translate(4 427)">
<title>/mnt/c/Linux/projet&#45;lifap4&#45;2022/src/gameConsole.cpp</title>
<polygon fill="white" stroke="transparent" points="-4,4 -4,-427 586.26,-427 586.26,4 -4,4"/>
<!-- Node1 -->
<g id="node1" class="node">
<title>Node1</title>
<g id="a_node1"><a xlink:title=" ">
<polygon fill="#bfbfbf" stroke="black" points="223,-392.5 223,-422.5 406,-422.5 406,-392.5 223,-392.5"/>
<text text-anchor="start" x="231" y="-410.5" font-family="Helvetica,sans-Serif" font-size="10.00">/mnt/c/Linux/projet</text>
<text text-anchor="middle" x="314.5" y="-399.5" font-family="Helvetica,sans-Serif" font-size="10.00">&#45;lifap4&#45;2022/src/gameConsole.cpp</text>
</a>
</g>
</g>
<!-- Node2 -->
<g id="node2" class="node">
<title>Node2</title>
<g id="a_node2"><a xlink:href="gameConsole_8h.html" target="_top" xlink:title=" ">
<polygon fill="white" stroke="black" points="180.5,-336.5 180.5,-355.5 272.5,-355.5 272.5,-336.5 180.5,-336.5"/>
<text text-anchor="middle" x="226.5" y="-343.5" font-family="Helvetica,sans-Serif" font-size="10.00">gameConsole.h</text>
</a>
</g>
</g>
<!-- Node1&#45;&gt;Node2 -->
<g id="edge1" class="edge">
<title>Node1&#45;&gt;Node2</title>
<path fill="none" stroke="midnightblue" d="M293.65,-392.4C279.8,-383.04 261.69,-370.79 247.76,-361.38"/>
<polygon fill="midnightblue" stroke="midnightblue" points="249.55,-358.36 239.3,-355.66 245.63,-364.16 249.55,-358.36"/>
</g>
<!-- Node11 -->
<g id="node11" class="node">
<title>Node11</title>
<g id="a_node11"><a xlink:title=" ">
<polygon fill="white" stroke="#bfbfbf" points="456,-56.5 456,-75.5 503,-75.5 503,-56.5 456,-56.5"/>
<text text-anchor="middle" x="479.5" y="-63.5" font-family="Helvetica,sans-Serif" font-size="10.00">vector</text>
</a>
</g>
</g>
<!-- Node1&#45;&gt;Node11 -->
<g id="edge30" class="edge">
<title>Node1&#45;&gt;Node11</title>
<path fill="none" stroke="midnightblue" d="M370.36,-392.37C418.23,-376.51 479.5,-345.55 479.5,-291 479.5,-291 479.5,-291 479.5,-177 479.5,-144.95 479.5,-107.64 479.5,-85.75"/>
<polygon fill="midnightblue" stroke="midnightblue" points="483,-85.56 479.5,-75.56 476,-85.56 483,-85.56"/>
</g>
<!-- Node3 -->
<g id="node3" class="node">
<title>Node3</title>
<g id="a_node3"><a xlink:href="gameBoard_8h.html" target="_top" xlink:title=" ">
<polygon fill="white" stroke="black" points="228.5,-280.5 228.5,-299.5 310.5,-299.5 310.5,-280.5 228.5,-280.5"/>
<text text-anchor="middle" x="269.5" y="-287.5" font-family="Helvetica,sans-Serif" font-size="10.00">gameBoard.h</text>
</a>
</g>
</g>
<!-- Node2&#45;&gt;Node3 -->
<g id="edge2" class="edge">
<title>Node2&#45;&gt;Node3</title>
<path fill="none" stroke="midnightblue" d="M233.6,-336.08C239.74,-328.38 248.77,-317.03 256.24,-307.65"/>
<polygon fill="midnightblue" stroke="midnightblue" points="259.04,-309.75 262.53,-299.75 253.56,-305.39 259.04,-309.75"/>
</g>
<!-- Node16 -->
<g id="node16" class="node">
<title>Node16</title>
<g id="a_node16"><a xlink:href="server_8h.html" target="_top" xlink:title=" ">
<polygon fill="white" stroke="black" points="107.5,-56.5 107.5,-75.5 163.5,-75.5 163.5,-56.5 107.5,-56.5"/>
<text text-anchor="middle" x="135.5" y="-63.5" font-family="Helvetica,sans-Serif" font-size="10.00">server.h</text>
</a>
</g>
</g>
<!-- Node2&#45;&gt;Node16 -->
<g id="edge21" class="edge">
<title>Node2&#45;&gt;Node16</title>
<path fill="none" stroke="midnightblue" d="M220.38,-336.35C208.29,-318.38 182.5,-275.31 182.5,-235 182.5,-235 182.5,-235 182.5,-177 182.5,-141.7 161.78,-104.79 147.86,-83.96"/>
<polygon fill="midnightblue" stroke="midnightblue" points="150.62,-81.8 142.04,-75.59 144.87,-85.8 150.62,-81.8"/>
</g>
<!-- Node19 -->
<g id="node19" class="node">
<title>Node19</title>
<g id="a_node19"><a xlink:href="client_8h.html" target="_top" xlink:title=" ">
<polygon fill="white" stroke="black" points="36,-56.5 36,-75.5 89,-75.5 89,-56.5 36,-56.5"/>
<text text-anchor="middle" x="62.5" y="-63.5" font-family="Helvetica,sans-Serif" font-size="10.00">client.h</text>
</a>
</g>
</g>
<!-- Node2&#45;&gt;Node19 -->
<g id="edge26" class="edge">
<title>Node2&#45;&gt;Node19</title>
<path fill="none" stroke="midnightblue" d="M193.88,-336.39C150.57,-322.75 79.5,-291.74 79.5,-235 79.5,-235 79.5,-235 79.5,-177 79.5,-144.58 72.2,-107.42 67.17,-85.64"/>
<polygon fill="midnightblue" stroke="midnightblue" points="70.53,-84.67 64.79,-75.77 63.73,-86.31 70.53,-84.67"/>
</g>
<!-- Node4 -->
<g id="node4" class="node">
<title>Node4</title>
<g id="a_node4"><a xlink:href="gameSquare_8h.html" target="_top" xlink:title=" ">
<polygon fill="white" stroke="black" points="227,-224.5 227,-243.5 314,-243.5 314,-224.5 227,-224.5"/>
<text text-anchor="middle" x="270.5" y="-231.5" font-family="Helvetica,sans-Serif" font-size="10.00">gameSquare.h</text>
</a>
</g>
</g>
<!-- Node3&#45;&gt;Node4 -->
<g id="edge3" class="edge">
<title>Node3&#45;&gt;Node4</title>
<path fill="none" stroke="midnightblue" d="M269.67,-280.08C269.8,-273.01 269.98,-262.86 270.15,-253.99"/>
<polygon fill="midnightblue" stroke="midnightblue" points="273.65,-253.81 270.34,-243.75 266.65,-253.68 273.65,-253.81"/>
</g>
<!-- Node5 -->
<g id="node5" class="node">
<title>Node5</title>
<g id="a_node5"><a xlink:href="unit_8h.html" target="_top" xlink:title=" ">
<polygon fill="white" stroke="black" points="281.5,-168.5 281.5,-187.5 325.5,-187.5 325.5,-168.5 281.5,-168.5"/>
<text text-anchor="middle" x="303.5" y="-175.5" font-family="Helvetica,sans-Serif" font-size="10.00">unit.h</text>
</a>
</g>
</g>
<!-- Node4&#45;&gt;Node5 -->
<g id="edge4" class="edge">
<title>Node4&#45;&gt;Node5</title>
<path fill="none" stroke="midnightblue" d="M275.95,-224.08C280.51,-216.61 287.17,-205.72 292.79,-196.52"/>
<polygon fill="midnightblue" stroke="midnightblue" points="295.92,-198.11 298.15,-187.75 289.95,-194.46 295.92,-198.11"/>
</g>
<!-- Node6 -->
<g id="node6" class="node">
<title>Node6</title>
<g id="a_node6"><a xlink:href="cardLib_8h.html" target="_top" xlink:title=" ">
<polygon fill="white" stroke="black" points="390,-112.5 390,-131.5 451,-131.5 451,-112.5 390,-112.5"/>
<text text-anchor="middle" x="420.5" y="-119.5" font-family="Helvetica,sans-Serif" font-size="10.00">cardLib.h</text>
</a>
</g>
</g>
<!-- Node5&#45;&gt;Node6 -->
<g id="edge5" class="edge">
<title>Node5&#45;&gt;Node6</title>
<path fill="none" stroke="midnightblue" d="M322.04,-168.44C341.12,-159.64 371.07,-145.81 392.94,-135.72"/>
<polygon fill="midnightblue" stroke="midnightblue" points="394.43,-138.88 402.05,-131.52 391.5,-132.53 394.43,-138.88"/>
</g>
<!-- Node14 -->
<g id="node14" class="node">
<title>Node14</title>
<g id="a_node14"><a xlink:href="statusCodex_8h.html" target="_top" xlink:title=" ">
<polygon fill="white" stroke="black" points="260.5,-112.5 260.5,-131.5 346.5,-131.5 346.5,-112.5 260.5,-112.5"/>
<text text-anchor="middle" x="303.5" y="-119.5" font-family="Helvetica,sans-Serif" font-size="10.00">statusCodex.h</text>
</a>
</g>
</g>
<!-- Node5&#45;&gt;Node14 -->
<g id="edge14" class="edge">
<title>Node5&#45;&gt;Node14</title>
<path fill="none" stroke="midnightblue" d="M303.5,-168.08C303.5,-161.01 303.5,-150.86 303.5,-141.99"/>
<polygon fill="midnightblue" stroke="midnightblue" points="307,-141.75 303.5,-131.75 300,-141.75 307,-141.75"/>
</g>
<!-- Node7 -->
<g id="node7" class="node">
<title>Node7</title>
<g id="a_node7"><a xlink:href="card_8h.html" target="_top" xlink:title=" ">
<polygon fill="white" stroke="black" points="521,-56.5 521,-75.5 568,-75.5 568,-56.5 521,-56.5"/>
<text text-anchor="middle" x="544.5" y="-63.5" font-family="Helvetica,sans-Serif" font-size="10.00">card.h</text>
</a>
</g>
</g>
<!-- Node6&#45;&gt;Node7 -->
<g id="edge6" class="edge">
<title>Node6&#45;&gt;Node7</title>
<path fill="none" stroke="midnightblue" d="M440.15,-112.44C460.46,-103.6 492.4,-89.69 515.6,-79.59"/>
<polygon fill="midnightblue" stroke="midnightblue" points="517.17,-82.72 524.94,-75.52 514.38,-76.3 517.17,-82.72"/>
</g>
<!-- Node8 -->
<g id="node8" class="node">
<title>Node8</title>
<g id="a_node8"><a xlink:title=" ">
<polygon fill="white" stroke="#bfbfbf" points="474.5,-0.5 474.5,-19.5 518.5,-19.5 518.5,-0.5 474.5,-0.5"/>
<text text-anchor="middle" x="496.5" y="-7.5" font-family="Helvetica,sans-Serif" font-size="10.00">string</text>
</a>
</g>
</g>
<!-- Node6&#45;&gt;Node8 -->
<g id="edge13" class="edge">
<title>Node6&#45;&gt;Node8</title>
<path fill="none" stroke="midnightblue" d="M451.11,-116.63C492.34,-110.04 562.31,-96.15 577.5,-76 595.05,-52.71 558.1,-32.91 528.51,-21.48"/>
<polygon fill="midnightblue" stroke="midnightblue" points="529.44,-18.09 518.84,-17.93 527.02,-24.66 529.44,-18.09"/>
</g>
<!-- Node6&#45;&gt;Node11 -->
<g id="edge10" class="edge">
<title>Node6&#45;&gt;Node11</title>
<path fill="none" stroke="midnightblue" d="M429.98,-112.32C438.7,-104.34 451.84,-92.31 462.4,-82.65"/>
<polygon fill="midnightblue" stroke="midnightblue" points="464.83,-85.17 469.85,-75.83 460.11,-80 464.83,-85.17"/>
</g>
<!-- Node12 -->
<g id="node12" class="node">
<title>Node12</title>
<g id="a_node12"><a xlink:title=" ">
<polygon fill="white" stroke="#bfbfbf" points="405.5,-56.5 405.5,-75.5 437.5,-75.5 437.5,-56.5 405.5,-56.5"/>
<text text-anchor="middle" x="421.5" y="-63.5" font-family="Helvetica,sans-Serif" font-size="10.00">list</text>
</a>
</g>
</g>
<!-- Node6&#45;&gt;Node12 -->
<g id="edge11" class="edge">
<title>Node6&#45;&gt;Node12</title>
<path fill="none" stroke="midnightblue" d="M420.67,-112.08C420.8,-105.01 420.98,-94.86 421.15,-85.99"/>
<polygon fill="midnightblue" stroke="midnightblue" points="424.65,-85.81 421.34,-75.75 417.65,-85.68 424.65,-85.81"/>
</g>
<!-- Node13 -->
<g id="node13" class="node">
<title>Node13</title>
<g id="a_node13"><a xlink:title=" ">
<polygon fill="white" stroke="#bfbfbf" points="332,-56.5 332,-75.5 387,-75.5 387,-56.5 332,-56.5"/>
<text text-anchor="middle" x="359.5" y="-63.5" font-family="Helvetica,sans-Serif" font-size="10.00">fstream</text>
</a>
</g>
</g>
<!-- Node6&#45;&gt;Node13 -->
<g id="edge12" class="edge">
<title>Node6&#45;&gt;Node13</title>
<path fill="none" stroke="midnightblue" d="M410.7,-112.32C401.68,-104.34 388.09,-92.31 377.18,-82.65"/>
<polygon fill="midnightblue" stroke="midnightblue" points="379.29,-79.84 369.48,-75.83 374.65,-85.08 379.29,-79.84"/>
</g>
<!-- Node7&#45;&gt;Node8 -->
<g id="edge7" class="edge">
<title>Node7&#45;&gt;Node8</title>
<path fill="none" stroke="midnightblue" d="M536.57,-56.08C529.65,-48.3 519.43,-36.8 511.05,-27.37"/>
<polygon fill="midnightblue" stroke="midnightblue" points="513.54,-24.9 504.28,-19.75 508.31,-29.55 513.54,-24.9"/>
</g>
<!-- Node9 -->
<g id="node9" class="node">
<title>Node9</title>
<g id="a_node9"><a xlink:title=" ">
<polygon fill="white" stroke="#bfbfbf" points="179.5,-0.5 179.5,-19.5 239.5,-19.5 239.5,-0.5 179.5,-0.5"/>
<text text-anchor="middle" x="209.5" y="-7.5" font-family="Helvetica,sans-Serif" font-size="10.00">iostream</text>
</a>
</g>
</g>
<!-- Node7&#45;&gt;Node9 -->
<g id="edge8" class="edge">
<title>Node7&#45;&gt;Node9</title>
<path fill="none" stroke="midnightblue" d="M520.82,-57.98C518.03,-57.26 515.21,-56.58 512.5,-56 419.48,-36.1 308.53,-22.04 250.11,-15.37"/>
<polygon fill="midnightblue" stroke="midnightblue" points="250.16,-11.86 239.83,-14.21 249.38,-18.81 250.16,-11.86"/>
</g>
<!-- Node10 -->
<g id="node10" class="node">
<title>Node10</title>
<g id="a_node10"><a xlink:title=" ">
<polygon fill="white" stroke="#bfbfbf" points="352.5,-0.5 352.5,-19.5 408.5,-19.5 408.5,-0.5 352.5,-0.5"/>
<text text-anchor="middle" x="380.5" y="-7.5" font-family="Helvetica,sans-Serif" font-size="10.00">assert.h</text>
</a>
</g>
</g>
<!-- Node7&#45;&gt;Node10 -->
<g id="edge9" class="edge">
<title>Node7&#45;&gt;Node10</title>
<path fill="none" stroke="midnightblue" d="M520.65,-57.15C493.24,-48.12 447.95,-33.21 416.3,-22.79"/>
<polygon fill="midnightblue" stroke="midnightblue" points="417.14,-19.38 406.54,-19.58 414.95,-26.03 417.14,-19.38"/>
</g>
<!-- Node14&#45;&gt;Node8 -->
<g id="edge20" class="edge">
<title>Node14&#45;&gt;Node8</title>
<path fill="none" stroke="midnightblue" d="M303.61,-112.48C304.27,-98.62 307.63,-71.18 323.5,-56 343.58,-36.78 420.27,-22.42 464.51,-15.54"/>
<polygon fill="midnightblue" stroke="midnightblue" points="465.12,-18.98 474.48,-14.02 464.07,-12.06 465.12,-18.98"/>
</g>
<!-- Node14&#45;&gt;Node10 -->
<g id="edge19" class="edge">
<title>Node14&#45;&gt;Node10</title>
<path fill="none" stroke="midnightblue" d="M297.89,-112.32C290.17,-99.17 278.42,-73.85 289.5,-56 301.19,-37.17 323.36,-25.98 342.88,-19.47"/>
<polygon fill="midnightblue" stroke="midnightblue" points="343.94,-22.81 352.49,-16.56 341.91,-16.11 343.94,-22.81"/>
</g>
<!-- Node14&#45;&gt;Node11 -->
<g id="edge17" class="edge">
<title>Node14&#45;&gt;Node11</title>
<path fill="none" stroke="midnightblue" d="M331.39,-112.44C362.57,-102.88 413.05,-87.39 446.26,-77.2"/>
<polygon fill="midnightblue" stroke="midnightblue" points="447.43,-80.5 455.97,-74.22 445.38,-73.81 447.43,-80.5"/>
</g>
<!-- Node14&#45;&gt;Node13 -->
<g id="edge18" class="edge">
<title>Node14&#45;&gt;Node13</title>
<path fill="none" stroke="midnightblue" d="M312.5,-112.32C320.69,-104.42 333.01,-92.55 342.97,-82.94"/>
<polygon fill="midnightblue" stroke="midnightblue" points="345.57,-85.29 350.34,-75.83 340.71,-80.26 345.57,-85.29"/>
</g>
<!-- Node15 -->
<g id="node15" class="node">
<title>Node15</title>
<g id="a_node15"><a xlink:href="status_8h.html" target="_top" xlink:title=" ">
<polygon fill="white" stroke="black" points="181.5,-56.5 181.5,-75.5 237.5,-75.5 237.5,-56.5 181.5,-56.5"/>
<text text-anchor="middle" x="209.5" y="-63.5" font-family="Helvetica,sans-Serif" font-size="10.00">status.h</text>
</a>
</g>
</g>
<!-- Node14&#45;&gt;Node15 -->
<g id="edge15" class="edge">
<title>Node14&#45;&gt;Node15</title>
<path fill="none" stroke="midnightblue" d="M288.4,-112.32C273.6,-103.82 250.81,-90.73 233.52,-80.8"/>
<polygon fill="midnightblue" stroke="midnightblue" points="234.98,-77.6 224.57,-75.65 231.49,-83.67 234.98,-77.6"/>
</g>
<!-- Node15&#45;&gt;Node9 -->
<g id="edge16" class="edge">
<title>Node15&#45;&gt;Node9</title>
<path fill="none" stroke="midnightblue" d="M209.5,-56.08C209.5,-49.01 209.5,-38.86 209.5,-29.99"/>
<polygon fill="midnightblue" stroke="midnightblue" points="213,-29.75 209.5,-19.75 206,-29.75 213,-29.75"/>
</g>
<!-- Node16&#45;&gt;Node8 -->
<g id="edge25" class="edge">
<title>Node16&#45;&gt;Node8</title>
<path fill="none" stroke="midnightblue" d="M163.72,-57.83C166.67,-57.17 169.64,-56.54 172.5,-56 228.08,-45.41 393.45,-24.04 464.01,-15.09"/>
<polygon fill="midnightblue" stroke="midnightblue" points="464.62,-18.54 474.1,-13.81 463.74,-11.6 464.62,-18.54"/>
</g>
<!-- Node16&#45;&gt;Node9 -->
<g id="edge22" class="edge">
<title>Node16&#45;&gt;Node9</title>
<path fill="none" stroke="midnightblue" d="M147.39,-56.32C158.65,-48.11 175.79,-35.6 189.21,-25.81"/>
<polygon fill="midnightblue" stroke="midnightblue" points="191.38,-28.56 197.39,-19.83 187.25,-22.9 191.38,-28.56"/>
</g>
<!-- Node17 -->
<g id="node17" class="node">
<title>Node17</title>
<g id="a_node17"><a xlink:title=" ">
<polygon fill="white" stroke="#bfbfbf" points="0,-0.5 0,-19.5 93,-19.5 93,-0.5 0,-0.5"/>
<text text-anchor="middle" x="46.5" y="-7.5" font-family="Helvetica,sans-Serif" font-size="10.00">SDL2/SDL_net.h</text>
</a>
</g>
</g>
<!-- Node16&#45;&gt;Node17 -->
<g id="edge23" class="edge">
<title>Node16&#45;&gt;Node17</title>
<path fill="none" stroke="midnightblue" d="M121.2,-56.32C107.32,-47.9 86.01,-34.97 69.7,-25.07"/>
<polygon fill="midnightblue" stroke="midnightblue" points="71.13,-21.85 60.76,-19.65 67.5,-27.83 71.13,-21.85"/>
</g>
<!-- Node18 -->
<g id="node18" class="node">
<title>Node18</title>
<g id="a_node18"><a xlink:title=" ">
<polygon fill="white" stroke="#bfbfbf" points="111.5,-0.5 111.5,-19.5 161.5,-19.5 161.5,-0.5 111.5,-0.5"/>
<text text-anchor="middle" x="136.5" y="-7.5" font-family="Helvetica,sans-Serif" font-size="10.00">cstring</text>
</a>
</g>
</g>
<!-- Node16&#45;&gt;Node18 -->
<g id="edge24" class="edge">
<title>Node16&#45;&gt;Node18</title>
<path fill="none" stroke="midnightblue" d="M135.67,-56.08C135.8,-49.01 135.98,-38.86 136.15,-29.99"/>
<polygon fill="midnightblue" stroke="midnightblue" points="139.65,-29.81 136.34,-19.75 132.65,-29.68 139.65,-29.81"/>
</g>
<!-- Node19&#45;&gt;Node9 -->
<g id="edge27" class="edge">
<title>Node19&#45;&gt;Node9</title>
<path fill="none" stroke="midnightblue" d="M85.79,-56.44C110.31,-47.44 149.1,-33.19 176.7,-23.05"/>
<polygon fill="midnightblue" stroke="midnightblue" points="178.14,-26.25 186.32,-19.52 175.72,-19.68 178.14,-26.25"/>
</g>
<!-- Node19&#45;&gt;Node17 -->
<g id="edge28" class="edge">
<title>Node19&#45;&gt;Node17</title>
<path fill="none" stroke="midnightblue" d="M59.86,-56.08C57.71,-48.85 54.62,-38.41 51.95,-29.4"/>
<polygon fill="midnightblue" stroke="midnightblue" points="55.29,-28.34 49.09,-19.75 48.58,-30.33 55.29,-28.34"/>
</g>
<!-- Node19&#45;&gt;Node18 -->
<g id="edge29" class="edge">
<title>Node19&#45;&gt;Node18</title>
<path fill="none" stroke="midnightblue" d="M74.39,-56.32C85.65,-48.11 102.79,-35.6 116.21,-25.81"/>
<polygon fill="midnightblue" stroke="midnightblue" points="118.38,-28.56 124.39,-19.83 114.25,-22.9 118.38,-28.56"/>
</g>
</g>
</svg>
