<?xml version="1.0" encoding="UTF-8" standalone="no"?>
<!DOCTYPE svg PUBLIC "-//W3C//DTD SVG 1.1//EN"
 "http://www.w3.org/Graphics/SVG/1.1/DTD/svg11.dtd">
<!-- Generated by graphviz version 2.43.0 (0)
 -->
<!-- Title: /mnt/c/Linux/projet&#45;lifap4&#45;2022/src/mainServer.cpp Pages: 1 -->
<!--zoomable 431 -->
<svg id="main" version="1.1" xmlns="http://www.w3.org/2000/svg" xmlns:xlink="http://www.w3.org/1999/xlink" xml:space="preserve" onload="init(evt)">
<style type="text/css"><![CDATA[
.edge:hover path { stroke: red; }
.edge:hover polygon { stroke: red; fill: red; }
]]></style>
<script type="text/javascript"><![CDATA[
var edges = document.getElementsByTagName('g');
if (edges && edges.length) {
  for (var i=0;i<edges.length;i++) {
    if (edges[i].id.substr(0,4)=='edge') {
      edges[i].setAttribute('class','edge');
    }
  }
}
]]></script>
        <defs>
                <circle id="rim" cx="0" cy="0" r="7"/>
                <circle id="rim2" cx="0" cy="0" r="3.5"/>
                <g id="zoomPlus">
                        <use xlink:href="#rim" fill="#404040">
                                <set attributeName="fill" to="#808080" begin="zoomplus.mouseover" end="zoomplus.mouseout"/>
                        </use>
                        <path d="M-4,0h8M0,-4v8" fill="none" stroke="white" stroke-width="1.5" pointer-events="none"/>
                </g>
                <g id="zoomMin">
                        <use xlink:href="#rim" fill="#404040">
                                <set attributeName="fill" to="#808080" begin="zoomminus.mouseover" end="zoomminus.mouseout"/>
                        </use>
                        <path d="M-4,0h8" fill="none" stroke="white" stroke-width="1.5" pointer-events="none"/>
                </g>
                <g id="dirArrow">
                        <path fill="none" stroke="white" stroke-width="1.5" d="M0,-3.0v7 M-2.5,-0.5L0,-3.0L2.5,-0.5"/>
                </g>
               <g id="resetDef">
                       <use xlink:href="#rim2" fill="#404040">
                               <set attributeName="fill" to="#808080" begin="reset.mouseover" end="reset.mouseout"/>
                       </use>
               </g>
        </defs>

<script type="text/javascript">
var viewWidth = 566;
var viewHeight = 431;
var sectionId = 'dynsection-0';
</script>
<script xlink:href="svgpan.js"/>
<svg id="graph" class="graph">
<g id="viewport">
<title>/mnt/c/Linux/projet&#45;lifap4&#45;2022/src/mainServer.cpp</title>
<polygon fill="white" stroke="transparent" points="-4,4 -4,-427 562.39,-427 562.39,4 -4,4"/>
<!-- Node1 -->
<g id="node1" class="node">
<title>Node1</title>
<g id="a_node1"><a xlink:title=" ">
<polygon fill="#bfbfbf" stroke="black" points="354.39,-392.5 354.39,-422.5 526.39,-422.5 526.39,-392.5 354.39,-392.5"/>
<text text-anchor="start" x="362.39" y="-410.5" font-family="Helvetica,sans-Serif" font-size="10.00">/mnt/c/Linux/projet</text>
<text text-anchor="middle" x="440.39" y="-399.5" font-family="Helvetica,sans-Serif" font-size="10.00">&#45;lifap4&#45;2022/src/mainServer.cpp</text>
</a>
</g>
</g>
<!-- Node2 -->
<g id="node2" class="node">
<title>Node2</title>
<g id="a_node2"><a xlink:href="gameConsole_8h.html" target="_top" xlink:title=" ">
<polygon fill="white" stroke="black" points="394.39,-336.5 394.39,-355.5 486.39,-355.5 486.39,-336.5 394.39,-336.5"/>
<text text-anchor="middle" x="440.39" y="-343.5" font-family="Helvetica,sans-Serif" font-size="10.00">gameConsole.h</text>
</a>
</g>
</g>
<!-- Node1&#45;&gt;Node2 -->
<g id="edge1" class="edge">
<title>Node1&#45;&gt;Node2</title>
<path fill="none" stroke="midnightblue" d="M440.39,-392.4C440.39,-384.47 440.39,-374.46 440.39,-365.86"/>
<polygon fill="midnightblue" stroke="midnightblue" points="443.89,-365.66 440.39,-355.66 436.89,-365.66 443.89,-365.66"/>
</g>
<!-- Node3 -->
<g id="node3" class="node">
<title>Node3</title>
<g id="a_node3"><a xlink:href="gameBoard_8h.html" target="_top" xlink:title=" ">
<polygon fill="white" stroke="black" points="329.39,-280.5 329.39,-299.5 411.39,-299.5 411.39,-280.5 329.39,-280.5"/>
<text text-anchor="middle" x="370.39" y="-287.5" font-family="Helvetica,sans-Serif" font-size="10.00">gameBoard.h</text>
</a>
</g>
</g>
<!-- Node2&#45;&gt;Node3 -->
<g id="edge2" class="edge">
<title>Node2&#45;&gt;Node3</title>
<path fill="none" stroke="midnightblue" d="M429.15,-336.32C418.6,-328.18 402.59,-315.84 389.95,-306.09"/>
<polygon fill="midnightblue" stroke="midnightblue" points="391.9,-303.17 381.85,-299.83 387.63,-308.71 391.9,-303.17"/>
</g>
<!-- Node16 -->
<g id="node16" class="node">
<title>Node16</title>
<g id="a_node16"><a xlink:href="server_8h.html" target="_top" xlink:title=" ">
<polygon fill="white" stroke="black" points="412.39,-56.5 412.39,-75.5 468.39,-75.5 468.39,-56.5 412.39,-56.5"/>
<text text-anchor="middle" x="440.39" y="-63.5" font-family="Helvetica,sans-Serif" font-size="10.00">server.h</text>
</a>
</g>
</g>
<!-- Node2&#45;&gt;Node16 -->
<g id="edge21" class="edge">
<title>Node2&#45;&gt;Node16</title>
<path fill="none" stroke="midnightblue" d="M440.39,-336.44C440.39,-317.94 440.39,-272.81 440.39,-235 440.39,-235 440.39,-235 440.39,-177 440.39,-144.95 440.39,-107.64 440.39,-85.75"/>
<polygon fill="midnightblue" stroke="midnightblue" points="443.89,-85.56 440.39,-75.56 436.89,-85.56 443.89,-85.56"/>
</g>
<!-- Node19 -->
<g id="node19" class="node">
<title>Node19</title>
<g id="a_node19"><a xlink:href="client_8h.html" target="_top" xlink:title=" ">
<polygon fill="white" stroke="black" points="486.89,-56.5 486.89,-75.5 539.89,-75.5 539.89,-56.5 486.89,-56.5"/>
<text text-anchor="middle" x="513.39" y="-63.5" font-family="Helvetica,sans-Serif" font-size="10.00">client.h</text>
</a>
</g>
</g>
<!-- Node2&#45;&gt;Node19 -->
<g id="edge26" class="edge">
<title>Node2&#45;&gt;Node19</title>
<path fill="none" stroke="midnightblue" d="M448.27,-336.33C463.48,-318.67 495.39,-276.64 495.39,-235 495.39,-235 495.39,-235 495.39,-177 495.39,-144.54 503.12,-107.38 508.45,-85.63"/>
<polygon fill="midnightblue" stroke="midnightblue" points="511.89,-86.32 510.97,-75.76 505.11,-84.59 511.89,-86.32"/>
</g>
<!-- Node4 -->
<g id="node4" class="node">
<title>Node4</title>
<g id="a_node4"><a xlink:href="gameSquare_8h.html" target="_top" xlink:title=" ">
<polygon fill="white" stroke="black" points="281.89,-224.5 281.89,-243.5 368.89,-243.5 368.89,-224.5 281.89,-224.5"/>
<text text-anchor="middle" x="325.39" y="-231.5" font-family="Helvetica,sans-Serif" font-size="10.00">gameSquare.h</text>
</a>
</g>
</g>
<!-- Node3&#45;&gt;Node4 -->
<g id="edge3" class="edge">
<title>Node3&#45;&gt;Node4</title>
<path fill="none" stroke="midnightblue" d="M362.96,-280.08C356.54,-272.38 347.09,-261.03 339.27,-251.65"/>
<polygon fill="midnightblue" stroke="midnightblue" points="341.78,-249.19 332.69,-243.75 336.4,-253.67 341.78,-249.19"/>
</g>
<!-- Node5 -->
<g id="node5" class="node">
<title>Node5</title>
<g id="a_node5"><a xlink:href="unit_8h.html" target="_top" xlink:title=" ">
<polygon fill="white" stroke="black" points="260.39,-168.5 260.39,-187.5 304.39,-187.5 304.39,-168.5 260.39,-168.5"/>
<text text-anchor="middle" x="282.39" y="-175.5" font-family="Helvetica,sans-Serif" font-size="10.00">unit.h</text>
</a>
</g>
</g>
<!-- Node4&#45;&gt;Node5 -->
<g id="edge4" class="edge">
<title>Node4&#45;&gt;Node5</title>
<path fill="none" stroke="midnightblue" d="M318.29,-224.08C312.16,-216.38 303.12,-205.03 295.66,-195.65"/>
<polygon fill="midnightblue" stroke="midnightblue" points="298.33,-193.39 289.36,-187.75 292.85,-197.75 298.33,-193.39"/>
</g>
<!-- Node6 -->
<g id="node6" class="node">
<title>Node6</title>
<g id="a_node6"><a xlink:href="cardLib_8h.html" target="_top" xlink:title=" ">
<polygon fill="white" stroke="black" points="251.89,-112.5 251.89,-131.5 312.89,-131.5 312.89,-112.5 251.89,-112.5"/>
<text text-anchor="middle" x="282.39" y="-119.5" font-family="Helvetica,sans-Serif" font-size="10.00">cardLib.h</text>
</a>
</g>
</g>
<!-- Node5&#45;&gt;Node6 -->
<g id="edge5" class="edge">
<title>Node5&#45;&gt;Node6</title>
<path fill="none" stroke="midnightblue" d="M282.39,-168.08C282.39,-161.01 282.39,-150.86 282.39,-141.99"/>
<polygon fill="midnightblue" stroke="midnightblue" points="285.89,-141.75 282.39,-131.75 278.89,-141.75 285.89,-141.75"/>
</g>
<!-- Node14 -->
<g id="node14" class="node">
<title>Node14</title>
<g id="a_node14"><a xlink:href="statusCodex_8h.html" target="_top" xlink:title=" ">
<polygon fill="white" stroke="black" points="66.39,-112.5 66.39,-131.5 152.39,-131.5 152.39,-112.5 66.39,-112.5"/>
<text text-anchor="middle" x="109.39" y="-119.5" font-family="Helvetica,sans-Serif" font-size="10.00">statusCodex.h</text>
</a>
</g>
</g>
<!-- Node5&#45;&gt;Node14 -->
<g id="edge14" class="edge">
<title>Node5&#45;&gt;Node14</title>
<path fill="none" stroke="midnightblue" d="M260.13,-170.05C231.39,-161.08 180.98,-145.35 146.43,-134.56"/>
<polygon fill="midnightblue" stroke="midnightblue" points="147.29,-131.16 136.7,-131.52 145.2,-137.84 147.29,-131.16"/>
</g>
<!-- Node7 -->
<g id="node7" class="node">
<title>Node7</title>
<g id="a_node7"><a xlink:href="card_8h.html" target="_top" xlink:title=" ">
<polygon fill="white" stroke="black" points="258.89,-56.5 258.89,-75.5 305.89,-75.5 305.89,-56.5 258.89,-56.5"/>
<text text-anchor="middle" x="282.39" y="-63.5" font-family="Helvetica,sans-Serif" font-size="10.00">card.h</text>
</a>
</g>
</g>
<!-- Node6&#45;&gt;Node7 -->
<g id="edge6" class="edge">
<title>Node6&#45;&gt;Node7</title>
<path fill="none" stroke="midnightblue" d="M282.39,-112.08C282.39,-105.01 282.39,-94.86 282.39,-85.99"/>
<polygon fill="midnightblue" stroke="midnightblue" points="285.89,-85.75 282.39,-75.75 278.89,-85.75 285.89,-85.75"/>
</g>
<!-- Node8 -->
<g id="node8" class="node">
<title>Node8</title>
<g id="a_node8"><a xlink:title=" ">
<polygon fill="white" stroke="#bfbfbf" points="256.39,-0.5 256.39,-19.5 300.39,-19.5 300.39,-0.5 256.39,-0.5"/>
<text text-anchor="middle" x="278.39" y="-7.5" font-family="Helvetica,sans-Serif" font-size="10.00">string</text>
</a>
</g>
</g>
<!-- Node6&#45;&gt;Node8 -->
<g id="edge13" class="edge">
<title>Node6&#45;&gt;Node8</title>
<path fill="none" stroke="midnightblue" d="M291.56,-112.46C303.44,-100.3 321.81,-77.13 314.39,-56 310.61,-45.21 303.03,-35.08 295.79,-27.18"/>
<polygon fill="midnightblue" stroke="midnightblue" points="298.06,-24.49 288.56,-19.81 293.07,-29.4 298.06,-24.49"/>
</g>
<!-- Node11 -->
<g id="node11" class="node">
<title>Node11</title>
<g id="a_node11"><a xlink:title=" ">
<polygon fill="white" stroke="#bfbfbf" points="120.89,-56.5 120.89,-75.5 167.89,-75.5 167.89,-56.5 120.89,-56.5"/>
<text text-anchor="middle" x="144.39" y="-63.5" font-family="Helvetica,sans-Serif" font-size="10.00">vector</text>
</a>
</g>
</g>
<!-- Node6&#45;&gt;Node11 -->
<g id="edge10" class="edge">
<title>Node6&#45;&gt;Node11</title>
<path fill="none" stroke="midnightblue" d="M260.53,-112.44C237.62,-103.48 201.42,-89.31 175.53,-79.18"/>
<polygon fill="midnightblue" stroke="midnightblue" points="176.75,-75.9 166.16,-75.52 174.2,-82.42 176.75,-75.9"/>
</g>
<!-- Node12 -->
<g id="node12" class="node">
<title>Node12</title>
<g id="a_node12"><a xlink:title=" ">
<polygon fill="white" stroke="#bfbfbf" points="362.39,-56.5 362.39,-75.5 394.39,-75.5 394.39,-56.5 362.39,-56.5"/>
<text text-anchor="middle" x="378.39" y="-63.5" font-family="Helvetica,sans-Serif" font-size="10.00">list</text>
</a>
</g>
</g>
<!-- Node6&#45;&gt;Node12 -->
<g id="edge11" class="edge">
<title>Node6&#45;&gt;Node12</title>
<path fill="none" stroke="midnightblue" d="M297.82,-112.32C312.93,-103.82 336.21,-90.73 353.87,-80.8"/>
<polygon fill="midnightblue" stroke="midnightblue" points="356.01,-83.61 363.01,-75.65 352.58,-77.51 356.01,-83.61"/>
</g>
<!-- Node13 -->
<g id="node13" class="node">
<title>Node13</title>
<g id="a_node13"><a xlink:title=" ">
<polygon fill="white" stroke="#bfbfbf" points="185.89,-56.5 185.89,-75.5 240.89,-75.5 240.89,-56.5 185.89,-56.5"/>
<text text-anchor="middle" x="213.39" y="-63.5" font-family="Helvetica,sans-Serif" font-size="10.00">fstream</text>
</a>
</g>
</g>
<!-- Node6&#45;&gt;Node13 -->
<g id="edge12" class="edge">
<title>Node6&#45;&gt;Node13</title>
<path fill="none" stroke="midnightblue" d="M271.31,-112.32C260.91,-104.18 245.13,-91.84 232.67,-82.09"/>
<polygon fill="midnightblue" stroke="midnightblue" points="234.71,-79.24 224.68,-75.83 230.4,-84.75 234.71,-79.24"/>
</g>
<!-- Node7&#45;&gt;Node8 -->
<g id="edge7" class="edge">
<title>Node7&#45;&gt;Node8</title>
<path fill="none" stroke="midnightblue" d="M281.73,-56.08C281.21,-49.01 280.46,-38.86 279.8,-29.99"/>
<polygon fill="midnightblue" stroke="midnightblue" points="283.27,-29.47 279.04,-19.75 276.29,-29.98 283.27,-29.47"/>
</g>
<!-- Node9 -->
<g id="node9" class="node">
<title>Node9</title>
<g id="a_node9"><a xlink:title=" ">
<polygon fill="white" stroke="#bfbfbf" points="318.39,-0.5 318.39,-19.5 378.39,-19.5 378.39,-0.5 318.39,-0.5"/>
<text text-anchor="middle" x="348.39" y="-7.5" font-family="Helvetica,sans-Serif" font-size="10.00">iostream</text>
</a>
</g>
</g>
<!-- Node7&#45;&gt;Node9 -->
<g id="edge8" class="edge">
<title>Node7&#45;&gt;Node9</title>
<path fill="none" stroke="midnightblue" d="M293,-56.32C302.85,-48.26 317.75,-36.08 329.61,-26.37"/>
<polygon fill="midnightblue" stroke="midnightblue" points="332.07,-28.88 337.6,-19.83 327.64,-23.46 332.07,-28.88"/>
</g>
<!-- Node10 -->
<g id="node10" class="node">
<title>Node10</title>
<g id="a_node10"><a xlink:title=" ">
<polygon fill="white" stroke="#bfbfbf" points="69.39,-0.5 69.39,-19.5 125.39,-19.5 125.39,-0.5 69.39,-0.5"/>
<text text-anchor="middle" x="97.39" y="-7.5" font-family="Helvetica,sans-Serif" font-size="10.00">assert.h</text>
</a>
</g>
</g>
<!-- Node7&#45;&gt;Node10 -->
<g id="edge9" class="edge">
<title>Node7&#45;&gt;Node10</title>
<path fill="none" stroke="midnightblue" d="M258.59,-58.05C227.46,-48.96 172.54,-32.93 135.57,-22.14"/>
<polygon fill="midnightblue" stroke="midnightblue" points="136.23,-18.69 125.65,-19.25 134.27,-25.41 136.23,-18.69"/>
</g>
<!-- Node14&#45;&gt;Node8 -->
<g id="edge20" class="edge">
<title>Node14&#45;&gt;Node8</title>
<path fill="none" stroke="midnightblue" d="M86.68,-112.4C59.12,-100.72 18.57,-78.67 37.39,-56 63.51,-24.56 186.07,-14.97 245.68,-12.14"/>
<polygon fill="midnightblue" stroke="midnightblue" points="246.2,-15.62 256.04,-11.68 245.89,-8.62 246.2,-15.62"/>
</g>
<!-- Node14&#45;&gt;Node10 -->
<g id="edge19" class="edge">
<title>Node14&#45;&gt;Node10</title>
<path fill="none" stroke="midnightblue" d="M66.31,-114.11C43.8,-108.09 18.15,-96.86 4.39,-76 -12.75,-49.99 26.77,-31.31 59.5,-20.83"/>
<polygon fill="midnightblue" stroke="midnightblue" points="60.81,-24.09 69.37,-17.84 58.78,-17.39 60.81,-24.09"/>
</g>
<!-- Node14&#45;&gt;Node11 -->
<g id="edge17" class="edge">
<title>Node14&#45;&gt;Node11</title>
<path fill="none" stroke="midnightblue" d="M115.17,-112.08C120.07,-104.53 127.22,-93.49 133.23,-84.23"/>
<polygon fill="midnightblue" stroke="midnightblue" points="136.22,-86.05 138.72,-75.75 130.35,-82.24 136.22,-86.05"/>
</g>
<!-- Node14&#45;&gt;Node13 -->
<g id="edge18" class="edge">
<title>Node14&#45;&gt;Node13</title>
<path fill="none" stroke="midnightblue" d="M126.1,-112.32C142.71,-103.7 168.4,-90.36 187.61,-80.39"/>
<polygon fill="midnightblue" stroke="midnightblue" points="189.46,-83.37 196.73,-75.65 186.24,-77.16 189.46,-83.37"/>
</g>
<!-- Node15 -->
<g id="node15" class="node">
<title>Node15</title>
<g id="a_node15"><a xlink:href="status_8h.html" target="_top" xlink:title=" ">
<polygon fill="white" stroke="black" points="46.39,-56.5 46.39,-75.5 102.39,-75.5 102.39,-56.5 46.39,-56.5"/>
<text text-anchor="middle" x="74.39" y="-63.5" font-family="Helvetica,sans-Serif" font-size="10.00">status.h</text>
</a>
</g>
</g>
<!-- Node14&#45;&gt;Node15 -->
<g id="edge15" class="edge">
<title>Node14&#45;&gt;Node15</title>
<path fill="none" stroke="midnightblue" d="M103.61,-112.08C98.72,-104.53 91.57,-93.49 85.56,-84.23"/>
<polygon fill="midnightblue" stroke="midnightblue" points="88.44,-82.24 80.07,-75.75 82.57,-86.05 88.44,-82.24"/>
</g>
<!-- Node15&#45;&gt;Node9 -->
<g id="edge16" class="edge">
<title>Node15&#45;&gt;Node9</title>
<path fill="none" stroke="midnightblue" d="M102.64,-57.95C105.59,-57.27 108.55,-56.6 111.39,-56 195.81,-38.08 220.1,-38.04 308.29,-20.15"/>
<polygon fill="midnightblue" stroke="midnightblue" points="309.1,-23.55 318.19,-18.12 307.69,-16.7 309.1,-23.55"/>
</g>
<!-- Node16&#45;&gt;Node8 -->
<g id="edge25" class="edge">
<title>Node16&#45;&gt;Node8</title>
<path fill="none" stroke="midnightblue" d="M414.73,-56.44C386.43,-47.01 340.88,-31.83 310.31,-21.64"/>
<polygon fill="midnightblue" stroke="midnightblue" points="311.15,-18.23 300.56,-18.39 308.94,-24.87 311.15,-18.23"/>
</g>
<!-- Node16&#45;&gt;Node9 -->
<g id="edge22" class="edge">
<title>Node16&#45;&gt;Node9</title>
<path fill="none" stroke="midnightblue" d="M425.61,-56.32C411.13,-47.82 388.82,-34.73 371.9,-24.8"/>
<polygon fill="midnightblue" stroke="midnightblue" points="373.54,-21.7 363.14,-19.65 369.99,-27.74 373.54,-21.7"/>
</g>
<!-- Node17 -->
<g id="node17" class="node">
<title>Node17</title>
<g id="a_node17"><a xlink:title=" ">
<polygon fill="white" stroke="#bfbfbf" points="396.89,-0.5 396.89,-19.5 489.89,-19.5 489.89,-0.5 396.89,-0.5"/>
<text text-anchor="middle" x="443.39" y="-7.5" font-family="Helvetica,sans-Serif" font-size="10.00">SDL2/SDL_net.h</text>
</a>
</g>
</g>
<!-- Node16&#45;&gt;Node17 -->
<g id="edge23" class="edge">
<title>Node16&#45;&gt;Node17</title>
<path fill="none" stroke="midnightblue" d="M440.89,-56.08C441.28,-49.01 441.85,-38.86 442.34,-29.99"/>
<polygon fill="midnightblue" stroke="midnightblue" points="445.85,-29.93 442.91,-19.75 438.86,-29.54 445.85,-29.93"/>
</g>
<!-- Node18 -->
<g id="node18" class="node">
<title>Node18</title>
<g id="a_node18"><a xlink:title=" ">
<polygon fill="white" stroke="#bfbfbf" points="508.39,-0.5 508.39,-19.5 558.39,-19.5 558.39,-0.5 508.39,-0.5"/>
<text text-anchor="middle" x="533.39" y="-7.5" font-family="Helvetica,sans-Serif" font-size="10.00">cstring</text>
</a>
</g>
</g>
<!-- Node16&#45;&gt;Node18 -->
<g id="edge24" class="edge">
<title>Node16&#45;&gt;Node18</title>
<path fill="none" stroke="midnightblue" d="M455.34,-56.32C469.98,-47.82 492.53,-34.73 509.63,-24.8"/>
<polygon fill="midnightblue" stroke="midnightblue" points="511.6,-27.7 518.49,-19.65 508.08,-21.65 511.6,-27.7"/>
</g>
<!-- Node19&#45;&gt;Node9 -->
<g id="edge27" class="edge">
<title>Node19&#45;&gt;Node9</title>
<path fill="none" stroke="midnightblue" d="M487.25,-56.44C459.37,-47.32 415.05,-32.81 383.99,-22.65"/>
<polygon fill="midnightblue" stroke="midnightblue" points="385.01,-19.3 374.42,-19.52 382.83,-25.95 385.01,-19.3"/>
</g>
<!-- Node19&#45;&gt;Node17 -->
<g id="edge28" class="edge">
<title>Node19&#45;&gt;Node17</title>
<path fill="none" stroke="midnightblue" d="M502.15,-56.32C491.6,-48.18 475.59,-35.84 462.95,-26.09"/>
<polygon fill="midnightblue" stroke="midnightblue" points="464.9,-23.17 454.85,-19.83 460.63,-28.71 464.9,-23.17"/>
</g>
<!-- Node19&#45;&gt;Node18 -->
<g id="edge29" class="edge">
<title>Node19&#45;&gt;Node18</title>
<path fill="none" stroke="midnightblue" d="M516.7,-56.08C519.38,-48.85 523.24,-38.41 526.58,-29.4"/>
<polygon fill="midnightblue" stroke="midnightblue" points="529.96,-30.34 530.15,-19.75 523.4,-27.91 529.96,-30.34"/>
</g>
</g>
</svg>
        <g id="navigator" transform="translate(0 0)" fill="#404254">
                <rect fill="#f2f5e9" fill-opacity="0.5" stroke="#606060" stroke-width=".5" x="0" y="0" width="60" height="60"/>
                <use id="zoomplus" xlink:href="#zoomPlus" x="17" y="9" onmousedown="handleZoom(evt,'in')"/>
                <use id="zoomminus" xlink:href="#zoomMin" x="42" y="9" onmousedown="handleZoom(evt,'out')"/>
                <use id="reset" xlink:href="#resetDef" x="30" y="36" onmousedown="handleReset()"/>
                <g id="arrowUp" xlink:href="#dirArrow" transform="translate(30 24)" onmousedown="handlePan(0,-1)">
                  <use xlink:href="#rim" fill="#404040">
                        <set attributeName="fill" to="#808080" begin="arrowUp.mouseover" end="arrowUp.mouseout"/>
                  </use>
                  <path fill="none" stroke="white" stroke-width="1.5" d="M0,-3.0v7 M-2.5,-0.5L0,-3.0L2.5,-0.5"/>
                </g>
                <g id="arrowRight" xlink:href="#dirArrow" transform="rotate(90) translate(36 -43)" onmousedown="handlePan(1,0)">
                  <use xlink:href="#rim" fill="#404040">
                        <set attributeName="fill" to="#808080" begin="arrowRight.mouseover" end="arrowRight.mouseout"/>
                  </use>
                  <path fill="none" stroke="white" stroke-width="1.5" d="M0,-3.0v7 M-2.5,-0.5L0,-3.0L2.5,-0.5"/>
                </g>
                <g id="arrowDown" xlink:href="#dirArrow" transform="rotate(180) translate(-30 -48)" onmousedown="handlePan(0,1)">
                  <use xlink:href="#rim" fill="#404040">
                        <set attributeName="fill" to="#808080" begin="arrowDown.mouseover" end="arrowDown.mouseout"/>
                  </use>
                  <path fill="none" stroke="white" stroke-width="1.5" d="M0,-3.0v7 M-2.5,-0.5L0,-3.0L2.5,-0.5"/>
                </g>
                <g id="arrowLeft" xlink:href="#dirArrow" transform="rotate(270) translate(-36 17)" onmousedown="handlePan(-1,0)">
                  <use xlink:href="#rim" fill="#404040">
                        <set attributeName="fill" to="#808080" begin="arrowLeft.mouseover" end="arrowLeft.mouseout"/>
                  </use>
                  <path fill="none" stroke="white" stroke-width="1.5" d="M0,-3.0v7 M-2.5,-0.5L0,-3.0L2.5,-0.5"/>
                </g>
        </g>
        <svg viewBox="0 0 15 15" width="100%" height="30px" preserveAspectRatio="xMaxYMin meet">
         <g id="arrow_out" transform="scale(0.3 0.3)">
          <a xlink:href="mainServer_8cpp__incl_org.svg" target="_base">
           <rect id="button" ry="5" rx="5" y="6" x="6" height="38" width="38"
                fill="#f2f5e9" fill-opacity="0.5" stroke="#606060" stroke-width="1.0"/>
           <path id="arrow"
             d="M 11.500037,31.436501 C 11.940474,20.09759 22.043105,11.32322 32.158766,21.979434 L 37.068811,17.246167 C 37.068811,17.246167 37.088388,32 37.088388,32 L 22.160133,31.978069 C 22.160133,31.978069 26.997745,27.140456 26.997745,27.140456 C 18.528582,18.264221 13.291696,25.230495 11.500037,31.436501 z"
             style="fill:#404040;"/>
          </a>
         </g>
        </svg>
</svg>
