<?xml version="1.0" encoding="UTF-8" standalone="no"?>
<!DOCTYPE svg PUBLIC "-//W3C//DTD SVG 1.1//EN"
 "http://www.w3.org/Graphics/SVG/1.1/DTD/svg11.dtd">
<!-- Generated by graphviz version 2.43.0 (0)
 -->
<!-- Title: /mnt/c/Linux/projet&#45;lifap4&#45;2022/src/mainGameTest.cpp Pages: 1 -->
<svg width="603pt" height="431pt"
 viewBox="0.00 0.00 603.00 431.00" xmlns="http://www.w3.org/2000/svg" xmlns:xlink="http://www.w3.org/1999/xlink">
<g id="graph0" class="graph" transform="scale(1 1) rotate(0) translate(4 427)">
<title>/mnt/c/Linux/projet&#45;lifap4&#45;2022/src/mainGameTest.cpp</title>
<polygon fill="white" stroke="transparent" points="-4,4 -4,-427 599,-427 599,4 -4,4"/>
<!-- Node1 -->
<g id="node1" class="node">
<title>Node1</title>
<g id="a_node1"><a xlink:title=" ">
<polygon fill="#bfbfbf" stroke="black" points="142,-392.5 142,-422.5 332,-422.5 332,-392.5 142,-392.5"/>
<text text-anchor="start" x="150" y="-410.5" font-family="Helvetica,sans-Serif" font-size="10.00">/mnt/c/Linux/projet</text>
<text text-anchor="middle" x="237" y="-399.5" font-family="Helvetica,sans-Serif" font-size="10.00">&#45;lifap4&#45;2022/src/mainGameTest.cpp</text>
</a>
</g>
</g>
<!-- Node2 -->
<g id="node2" class="node">
<title>Node2</title>
<g id="a_node2"><a xlink:href="gameConsole_8h.html" target="_top" xlink:title=" ">
<polygon fill="white" stroke="black" points="154,-336.5 154,-355.5 246,-355.5 246,-336.5 154,-336.5"/>
<text text-anchor="middle" x="200" y="-343.5" font-family="Helvetica,sans-Serif" font-size="10.00">gameConsole.h</text>
</a>
</g>
</g>
<!-- Node1&#45;&gt;Node2 -->
<g id="edge1" class="edge">
<title>Node1&#45;&gt;Node2</title>
<path fill="none" stroke="midnightblue" d="M228.23,-392.4C223.02,-384.02 216.37,-373.33 210.83,-364.42"/>
<polygon fill="midnightblue" stroke="midnightblue" points="213.64,-362.3 205.38,-355.66 207.69,-366 213.64,-362.3"/>
</g>
<!-- Node20 -->
<g id="node20" class="node">
<title>Node20</title>
<g id="a_node20"><a xlink:href="deckBuilder_8h.html" target="_top" xlink:title=" ">
<polygon fill="white" stroke="black" points="303.5,-280.5 303.5,-299.5 386.5,-299.5 386.5,-280.5 303.5,-280.5"/>
<text text-anchor="middle" x="345" y="-287.5" font-family="Helvetica,sans-Serif" font-size="10.00">deckBuilder.h</text>
</a>
</g>
</g>
<!-- Node1&#45;&gt;Node20 -->
<g id="edge30" class="edge">
<title>Node1&#45;&gt;Node20</title>
<path fill="none" stroke="midnightblue" d="M250.24,-392.34C270.41,-370.77 308.71,-329.81 329.92,-307.13"/>
<polygon fill="midnightblue" stroke="midnightblue" points="332.62,-309.36 336.89,-299.67 327.51,-304.58 332.62,-309.36"/>
</g>
<!-- Node3 -->
<g id="node3" class="node">
<title>Node3</title>
<g id="a_node3"><a xlink:href="gameBoard_8h.html" target="_top" xlink:title=" ">
<polygon fill="white" stroke="black" points="179,-280.5 179,-299.5 261,-299.5 261,-280.5 179,-280.5"/>
<text text-anchor="middle" x="220" y="-287.5" font-family="Helvetica,sans-Serif" font-size="10.00">gameBoard.h</text>
</a>
</g>
</g>
<!-- Node2&#45;&gt;Node3 -->
<g id="edge2" class="edge">
<title>Node2&#45;&gt;Node3</title>
<path fill="none" stroke="midnightblue" d="M203.3,-336.08C205.98,-328.85 209.85,-318.41 213.19,-309.4"/>
<polygon fill="midnightblue" stroke="midnightblue" points="216.57,-310.34 216.76,-299.75 210,-307.91 216.57,-310.34"/>
</g>
<!-- Node16 -->
<g id="node16" class="node">
<title>Node16</title>
<g id="a_node16"><a xlink:href="server_8h.html" target="_top" xlink:title=" ">
<polygon fill="white" stroke="black" points="97,-56.5 97,-75.5 153,-75.5 153,-56.5 97,-56.5"/>
<text text-anchor="middle" x="125" y="-63.5" font-family="Helvetica,sans-Serif" font-size="10.00">server.h</text>
</a>
</g>
</g>
<!-- Node2&#45;&gt;Node16 -->
<g id="edge21" class="edge">
<title>Node2&#45;&gt;Node16</title>
<path fill="none" stroke="midnightblue" d="M191.69,-336.41C175.65,-318.89 142,-277.1 142,-235 142,-235 142,-235 142,-177 142,-144.58 134.7,-107.42 129.67,-85.64"/>
<polygon fill="midnightblue" stroke="midnightblue" points="133.03,-84.67 127.29,-75.77 126.23,-86.31 133.03,-84.67"/>
</g>
<!-- Node19 -->
<g id="node19" class="node">
<title>Node19</title>
<g id="a_node19"><a xlink:href="client_8h.html" target="_top" xlink:title=" ">
<polygon fill="white" stroke="black" points="25.5,-56.5 25.5,-75.5 78.5,-75.5 78.5,-56.5 25.5,-56.5"/>
<text text-anchor="middle" x="52" y="-63.5" font-family="Helvetica,sans-Serif" font-size="10.00">client.h</text>
</a>
</g>
</g>
<!-- Node2&#45;&gt;Node19 -->
<g id="edge26" class="edge">
<title>Node2&#45;&gt;Node19</title>
<path fill="none" stroke="midnightblue" d="M179.8,-336.49C147.3,-321.29 87,-286.2 87,-235 87,-235 87,-235 87,-177 87,-143.07 71.69,-105.91 61.32,-84.63"/>
<polygon fill="midnightblue" stroke="midnightblue" points="64.36,-82.88 56.72,-75.54 58.12,-86.05 64.36,-82.88"/>
</g>
<!-- Node4 -->
<g id="node4" class="node">
<title>Node4</title>
<g id="a_node4"><a xlink:href="gameSquare_8h.html" target="_top" xlink:title=" ">
<polygon fill="white" stroke="black" points="212.5,-224.5 212.5,-243.5 299.5,-243.5 299.5,-224.5 212.5,-224.5"/>
<text text-anchor="middle" x="256" y="-231.5" font-family="Helvetica,sans-Serif" font-size="10.00">gameSquare.h</text>
</a>
</g>
</g>
<!-- Node3&#45;&gt;Node4 -->
<g id="edge3" class="edge">
<title>Node3&#45;&gt;Node4</title>
<path fill="none" stroke="midnightblue" d="M225.94,-280.08C230.98,-272.53 238.34,-261.49 244.51,-252.23"/>
<polygon fill="midnightblue" stroke="midnightblue" points="247.53,-254.01 250.17,-243.75 241.71,-250.13 247.53,-254.01"/>
</g>
<!-- Node5 -->
<g id="node5" class="node">
<title>Node5</title>
<g id="a_node5"><a xlink:href="unit_8h.html" target="_top" xlink:title=" ">
<polygon fill="white" stroke="black" points="271,-168.5 271,-187.5 315,-187.5 315,-168.5 271,-168.5"/>
<text text-anchor="middle" x="293" y="-175.5" font-family="Helvetica,sans-Serif" font-size="10.00">unit.h</text>
</a>
</g>
</g>
<!-- Node4&#45;&gt;Node5 -->
<g id="edge4" class="edge">
<title>Node4&#45;&gt;Node5</title>
<path fill="none" stroke="midnightblue" d="M262.11,-224.08C267.28,-216.53 274.85,-205.49 281.19,-196.23"/>
<polygon fill="midnightblue" stroke="midnightblue" points="284.24,-197.98 287,-187.75 278.46,-194.02 284.24,-197.98"/>
</g>
<!-- Node6 -->
<g id="node6" class="node">
<title>Node6</title>
<g id="a_node6"><a xlink:href="cardLib_8h.html" target="_top" xlink:title=" ">
<polygon fill="white" stroke="black" points="383.5,-112.5 383.5,-131.5 444.5,-131.5 444.5,-112.5 383.5,-112.5"/>
<text text-anchor="middle" x="414" y="-119.5" font-family="Helvetica,sans-Serif" font-size="10.00">cardLib.h</text>
</a>
</g>
</g>
<!-- Node5&#45;&gt;Node6 -->
<g id="edge5" class="edge">
<title>Node5&#45;&gt;Node6</title>
<path fill="none" stroke="midnightblue" d="M312.17,-168.44C331.91,-159.64 362.89,-145.81 385.49,-135.72"/>
<polygon fill="midnightblue" stroke="midnightblue" points="387.21,-138.79 394.92,-131.52 384.36,-132.4 387.21,-138.79"/>
</g>
<!-- Node14 -->
<g id="node14" class="node">
<title>Node14</title>
<g id="a_node14"><a xlink:href="statusCodex_8h.html" target="_top" xlink:title=" ">
<polygon fill="white" stroke="black" points="250,-112.5 250,-131.5 336,-131.5 336,-112.5 250,-112.5"/>
<text text-anchor="middle" x="293" y="-119.5" font-family="Helvetica,sans-Serif" font-size="10.00">statusCodex.h</text>
</a>
</g>
</g>
<!-- Node5&#45;&gt;Node14 -->
<g id="edge14" class="edge">
<title>Node5&#45;&gt;Node14</title>
<path fill="none" stroke="midnightblue" d="M293,-168.08C293,-161.01 293,-150.86 293,-141.99"/>
<polygon fill="midnightblue" stroke="midnightblue" points="296.5,-141.75 293,-131.75 289.5,-141.75 296.5,-141.75"/>
</g>
<!-- Node7 -->
<g id="node7" class="node">
<title>Node7</title>
<g id="a_node7"><a xlink:href="card_8h.html" target="_top" xlink:title=" ">
<polygon fill="white" stroke="black" points="459.5,-56.5 459.5,-75.5 506.5,-75.5 506.5,-56.5 459.5,-56.5"/>
<text text-anchor="middle" x="483" y="-63.5" font-family="Helvetica,sans-Serif" font-size="10.00">card.h</text>
</a>
</g>
</g>
<!-- Node6&#45;&gt;Node7 -->
<g id="edge6" class="edge">
<title>Node6&#45;&gt;Node7</title>
<path fill="none" stroke="midnightblue" d="M425.09,-112.32C435.49,-104.18 451.26,-91.84 463.72,-82.09"/>
<polygon fill="midnightblue" stroke="midnightblue" points="465.99,-84.75 471.71,-75.83 461.68,-79.24 465.99,-84.75"/>
</g>
<!-- Node8 -->
<g id="node8" class="node">
<title>Node8</title>
<g id="a_node8"><a xlink:title=" ">
<polygon fill="white" stroke="#bfbfbf" points="320,-0.5 320,-19.5 364,-19.5 364,-0.5 320,-0.5"/>
<text text-anchor="middle" x="342" y="-7.5" font-family="Helvetica,sans-Serif" font-size="10.00">string</text>
</a>
</g>
</g>
<!-- Node6&#45;&gt;Node8 -->
<g id="edge13" class="edge">
<title>Node6&#45;&gt;Node8</title>
<path fill="none" stroke="midnightblue" d="M444.61,-114.4C482.25,-104.87 538.56,-85.14 516,-56 507.26,-44.71 422.04,-26.55 374.19,-17.13"/>
<polygon fill="midnightblue" stroke="midnightblue" points="374.79,-13.68 364.31,-15.2 373.45,-20.55 374.79,-13.68"/>
</g>
<!-- Node11 -->
<g id="node11" class="node">
<title>Node11</title>
<g id="a_node11"><a xlink:title=" ">
<polygon fill="white" stroke="#bfbfbf" points="321.5,-56.5 321.5,-75.5 368.5,-75.5 368.5,-56.5 321.5,-56.5"/>
<text text-anchor="middle" x="345" y="-63.5" font-family="Helvetica,sans-Serif" font-size="10.00">vector</text>
</a>
</g>
</g>
<!-- Node6&#45;&gt;Node11 -->
<g id="edge10" class="edge">
<title>Node6&#45;&gt;Node11</title>
<path fill="none" stroke="midnightblue" d="M402.91,-112.32C392.51,-104.18 376.74,-91.84 364.28,-82.09"/>
<polygon fill="midnightblue" stroke="midnightblue" points="366.32,-79.24 356.29,-75.83 362.01,-84.75 366.32,-79.24"/>
</g>
<!-- Node12 -->
<g id="node12" class="node">
<title>Node12</title>
<g id="a_node12"><a xlink:title=" ">
<polygon fill="white" stroke="#bfbfbf" points="563,-56.5 563,-75.5 595,-75.5 595,-56.5 563,-56.5"/>
<text text-anchor="middle" x="579" y="-63.5" font-family="Helvetica,sans-Serif" font-size="10.00">list</text>
</a>
</g>
</g>
<!-- Node6&#45;&gt;Node12 -->
<g id="edge11" class="edge">
<title>Node6&#45;&gt;Node12</title>
<path fill="none" stroke="midnightblue" d="M440.14,-112.44C471.17,-102.29 522.56,-85.47 553.36,-75.39"/>
<polygon fill="midnightblue" stroke="midnightblue" points="554.54,-78.69 562.96,-72.25 552.36,-72.03 554.54,-78.69"/>
</g>
<!-- Node13 -->
<g id="node13" class="node">
<title>Node13</title>
<g id="a_node13"><a xlink:title=" ">
<polygon fill="white" stroke="#bfbfbf" points="386.5,-56.5 386.5,-75.5 441.5,-75.5 441.5,-56.5 386.5,-56.5"/>
<text text-anchor="middle" x="414" y="-63.5" font-family="Helvetica,sans-Serif" font-size="10.00">fstream</text>
</a>
</g>
</g>
<!-- Node6&#45;&gt;Node13 -->
<g id="edge12" class="edge">
<title>Node6&#45;&gt;Node13</title>
<path fill="none" stroke="midnightblue" d="M414,-112.08C414,-105.01 414,-94.86 414,-85.99"/>
<polygon fill="midnightblue" stroke="midnightblue" points="417.5,-85.75 414,-75.75 410.5,-85.75 417.5,-85.75"/>
</g>
<!-- Node7&#45;&gt;Node8 -->
<g id="edge7" class="edge">
<title>Node7&#45;&gt;Node8</title>
<path fill="none" stroke="midnightblue" d="M460.66,-56.44C437.25,-47.48 400.26,-33.31 373.81,-23.18"/>
<polygon fill="midnightblue" stroke="midnightblue" points="374.83,-19.82 364.24,-19.52 372.32,-26.36 374.83,-19.82"/>
</g>
<!-- Node9 -->
<g id="node9" class="node">
<title>Node9</title>
<g id="a_node9"><a xlink:title=" ">
<polygon fill="white" stroke="#bfbfbf" points="180,-0.5 180,-19.5 240,-19.5 240,-0.5 180,-0.5"/>
<text text-anchor="middle" x="210" y="-7.5" font-family="Helvetica,sans-Serif" font-size="10.00">iostream</text>
</a>
</g>
</g>
<!-- Node7&#45;&gt;Node9 -->
<g id="edge8" class="edge">
<title>Node7&#45;&gt;Node9</title>
<path fill="none" stroke="midnightblue" d="M459.3,-58.08C456.51,-57.34 453.7,-56.63 451,-56 380.91,-39.64 298.27,-25.26 250.23,-17.38"/>
<polygon fill="midnightblue" stroke="midnightblue" points="250.67,-13.9 240.24,-15.75 249.55,-20.81 250.67,-13.9"/>
</g>
<!-- Node10 -->
<g id="node10" class="node">
<title>Node10</title>
<g id="a_node10"><a xlink:title=" ">
<polygon fill="white" stroke="#bfbfbf" points="413,-0.5 413,-19.5 469,-19.5 469,-0.5 413,-0.5"/>
<text text-anchor="middle" x="441" y="-7.5" font-family="Helvetica,sans-Serif" font-size="10.00">assert.h</text>
</a>
</g>
</g>
<!-- Node7&#45;&gt;Node10 -->
<g id="edge9" class="edge">
<title>Node7&#45;&gt;Node10</title>
<path fill="none" stroke="midnightblue" d="M476.06,-56.08C470.07,-48.38 461.25,-37.03 453.95,-27.65"/>
<polygon fill="midnightblue" stroke="midnightblue" points="456.71,-25.5 447.81,-19.75 451.18,-29.79 456.71,-25.5"/>
</g>
<!-- Node14&#45;&gt;Node8 -->
<g id="edge20" class="edge">
<title>Node14&#45;&gt;Node8</title>
<path fill="none" stroke="midnightblue" d="M287.52,-112.1C280.28,-99.1 269.49,-74.48 279,-56 286.08,-42.25 299.52,-31.77 312.18,-24.39"/>
<polygon fill="midnightblue" stroke="midnightblue" points="314,-27.39 321.15,-19.57 310.69,-21.22 314,-27.39"/>
</g>
<!-- Node14&#45;&gt;Node10 -->
<g id="edge19" class="edge">
<title>Node14&#45;&gt;Node10</title>
<path fill="none" stroke="midnightblue" d="M293.13,-112.19C293.8,-98.4 297.1,-71.68 312,-56 335.72,-31.04 374.02,-19.91 402.74,-14.96"/>
<polygon fill="midnightblue" stroke="midnightblue" points="403.49,-18.39 412.84,-13.4 402.42,-11.47 403.49,-18.39"/>
</g>
<!-- Node14&#45;&gt;Node11 -->
<g id="edge17" class="edge">
<title>Node14&#45;&gt;Node11</title>
<path fill="none" stroke="midnightblue" d="M301.59,-112.08C309.16,-104.22 320.38,-92.57 329.51,-83.08"/>
<polygon fill="midnightblue" stroke="midnightblue" points="332.16,-85.38 336.57,-75.75 327.12,-80.53 332.16,-85.38"/>
</g>
<!-- Node14&#45;&gt;Node13 -->
<g id="edge18" class="edge">
<title>Node14&#45;&gt;Node13</title>
<path fill="none" stroke="midnightblue" d="M312.17,-112.44C331.91,-103.64 362.89,-89.81 385.49,-79.72"/>
<polygon fill="midnightblue" stroke="midnightblue" points="387.21,-82.79 394.92,-75.52 384.36,-76.4 387.21,-82.79"/>
</g>
<!-- Node15 -->
<g id="node15" class="node">
<title>Node15</title>
<g id="a_node15"><a xlink:href="status_8h.html" target="_top" xlink:title=" ">
<polygon fill="white" stroke="black" points="171,-56.5 171,-75.5 227,-75.5 227,-56.5 171,-56.5"/>
<text text-anchor="middle" x="199" y="-63.5" font-family="Helvetica,sans-Serif" font-size="10.00">status.h</text>
</a>
</g>
</g>
<!-- Node14&#45;&gt;Node15 -->
<g id="edge15" class="edge">
<title>Node14&#45;&gt;Node15</title>
<path fill="none" stroke="midnightblue" d="M277.9,-112.32C263.1,-103.82 240.31,-90.73 223.02,-80.8"/>
<polygon fill="midnightblue" stroke="midnightblue" points="224.48,-77.6 214.07,-75.65 220.99,-83.67 224.48,-77.6"/>
</g>
<!-- Node15&#45;&gt;Node9 -->
<g id="edge16" class="edge">
<title>Node15&#45;&gt;Node9</title>
<path fill="none" stroke="midnightblue" d="M200.82,-56.08C202.27,-48.93 204.37,-38.64 206.19,-29.69"/>
<polygon fill="midnightblue" stroke="midnightblue" points="209.65,-30.25 208.22,-19.75 202.79,-28.85 209.65,-30.25"/>
</g>
<!-- Node16&#45;&gt;Node8 -->
<g id="edge25" class="edge">
<title>Node16&#45;&gt;Node8</title>
<path fill="none" stroke="midnightblue" d="M153.37,-57.94C193.81,-47.88 267.79,-29.47 310.09,-18.94"/>
<polygon fill="midnightblue" stroke="midnightblue" points="311.01,-22.32 319.87,-16.51 309.32,-15.53 311.01,-22.32"/>
</g>
<!-- Node16&#45;&gt;Node9 -->
<g id="edge22" class="edge">
<title>Node16&#45;&gt;Node9</title>
<path fill="none" stroke="midnightblue" d="M138.66,-56.32C151.92,-47.9 172.27,-34.97 187.85,-25.07"/>
<polygon fill="midnightblue" stroke="midnightblue" points="189.81,-27.97 196.38,-19.65 186.06,-22.06 189.81,-27.97"/>
</g>
<!-- Node17 -->
<g id="node17" class="node">
<title>Node17</title>
<g id="a_node17"><a xlink:title=" ">
<polygon fill="white" stroke="#bfbfbf" points="68.5,-0.5 68.5,-19.5 161.5,-19.5 161.5,-0.5 68.5,-0.5"/>
<text text-anchor="middle" x="115" y="-7.5" font-family="Helvetica,sans-Serif" font-size="10.00">SDL2/SDL_net.h</text>
</a>
</g>
</g>
<!-- Node16&#45;&gt;Node17 -->
<g id="edge23" class="edge">
<title>Node16&#45;&gt;Node17</title>
<path fill="none" stroke="midnightblue" d="M123.35,-56.08C122.02,-48.93 120.12,-38.64 118.46,-29.69"/>
<polygon fill="midnightblue" stroke="midnightblue" points="121.88,-28.95 116.62,-19.75 115,-30.22 121.88,-28.95"/>
</g>
<!-- Node18 -->
<g id="node18" class="node">
<title>Node18</title>
<g id="a_node18"><a xlink:title=" ">
<polygon fill="white" stroke="#bfbfbf" points="0,-0.5 0,-19.5 50,-19.5 50,-0.5 0,-0.5"/>
<text text-anchor="middle" x="25" y="-7.5" font-family="Helvetica,sans-Serif" font-size="10.00">cstring</text>
</a>
</g>
</g>
<!-- Node16&#45;&gt;Node18 -->
<g id="edge24" class="edge">
<title>Node16&#45;&gt;Node18</title>
<path fill="none" stroke="midnightblue" d="M108.93,-56.32C93.04,-47.74 68.49,-34.49 50.04,-24.52"/>
<polygon fill="midnightblue" stroke="midnightblue" points="51.49,-21.33 41.03,-19.65 48.16,-27.49 51.49,-21.33"/>
</g>
<!-- Node19&#45;&gt;Node9 -->
<g id="edge27" class="edge">
<title>Node19&#45;&gt;Node9</title>
<path fill="none" stroke="midnightblue" d="M77.04,-56.44C103.62,-47.36 145.81,-32.94 175.52,-22.78"/>
<polygon fill="midnightblue" stroke="midnightblue" points="176.75,-26.06 185.08,-19.52 174.49,-19.44 176.75,-26.06"/>
</g>
<!-- Node19&#45;&gt;Node17 -->
<g id="edge28" class="edge">
<title>Node19&#45;&gt;Node17</title>
<path fill="none" stroke="midnightblue" d="M62.12,-56.32C71.53,-48.26 85.74,-36.08 97.07,-26.37"/>
<polygon fill="midnightblue" stroke="midnightblue" points="99.38,-29 104.69,-19.83 94.82,-23.68 99.38,-29"/>
</g>
<!-- Node19&#45;&gt;Node18 -->
<g id="edge29" class="edge">
<title>Node19&#45;&gt;Node18</title>
<path fill="none" stroke="midnightblue" d="M47.54,-56.08C43.85,-48.69 38.48,-37.95 33.91,-28.81"/>
<polygon fill="midnightblue" stroke="midnightblue" points="36.98,-27.13 29.38,-19.75 30.72,-30.26 36.98,-27.13"/>
</g>
<!-- Node20&#45;&gt;Node6 -->
<g id="edge31" class="edge">
<title>Node20&#45;&gt;Node6</title>
<path fill="none" stroke="midnightblue" d="M348.71,-280.08C359.62,-253.83 391.74,-176.55 406.47,-141.12"/>
<polygon fill="midnightblue" stroke="midnightblue" points="409.83,-142.15 410.44,-131.57 403.37,-139.46 409.83,-142.15"/>
</g>
</g>
</svg>
