<?xml version="1.0" encoding="UTF-8" standalone="no"?>
<!DOCTYPE svg PUBLIC "-//W3C//DTD SVG 1.1//EN"
 "http://www.w3.org/Graphics/SVG/1.1/DTD/svg11.dtd">
<!-- Generated by graphviz version 2.43.0 (0)
 -->
<!-- Title: /mnt/c/Linux/projet&#45;lifap4&#45;2022/src/unit.h Pages: 1 -->
<svg width="1035pt" height="385pt"
 viewBox="0.00 0.00 1035.00 385.00" xmlns="http://www.w3.org/2000/svg" xmlns:xlink="http://www.w3.org/1999/xlink">
<g id="graph0" class="graph" transform="scale(1 1) rotate(0) translate(4 381)">
<title>/mnt/c/Linux/projet&#45;lifap4&#45;2022/src/unit.h</title>
<polygon fill="white" stroke="transparent" points="-4,4 -4,-381 1031,-381 1031,4 -4,4"/>
<!-- Node1 -->
<g id="node1" class="node">
<title>Node1</title>
<g id="a_node1"><a xlink:title=" ">
<polygon fill="#bfbfbf" stroke="black" points="433,-346.5 433,-376.5 557,-376.5 557,-346.5 433,-346.5"/>
<text text-anchor="start" x="441" y="-364.5" font-family="Helvetica,sans-Serif" font-size="10.00">/mnt/c/Linux/projet</text>
<text text-anchor="middle" x="495" y="-353.5" font-family="Helvetica,sans-Serif" font-size="10.00">&#45;lifap4&#45;2022/src/unit.h</text>
</a>
</g>
</g>
<!-- Node2 -->
<g id="node2" class="node">
<title>Node2</title>
<g id="a_node2"><a xlink:href="affichage2D_8h.html" target="_top" xlink:title=" ">
<polygon fill="white" stroke="black" points="181,-279.5 181,-309.5 345,-309.5 345,-279.5 181,-279.5"/>
<text text-anchor="start" x="189" y="-297.5" font-family="Helvetica,sans-Serif" font-size="10.00">/mnt/c/Linux/projet</text>
<text text-anchor="middle" x="263" y="-286.5" font-family="Helvetica,sans-Serif" font-size="10.00">&#45;lifap4&#45;2022/src/affichage2D.h</text>
</a>
</g>
</g>
<!-- Node1&#45;&gt;Node2 -->
<g id="edge1" class="edge">
<title>Node1&#45;&gt;Node2</title>
<path fill="none" stroke="midnightblue" d="M435.09,-343.71C397.34,-333.14 349.14,-319.63 313.37,-309.61"/>
<polygon fill="midnightblue" stroke="midnightblue" points="434.37,-347.15 444.95,-346.48 436.26,-340.41 434.37,-347.15"/>
</g>
<!-- Node7 -->
<g id="node7" class="node">
<title>Node7</title>
<g id="a_node7"><a xlink:href="gameSquare_8h.html" target="_top" xlink:title=" ">
<polygon fill="white" stroke="black" points="411.5,-279.5 411.5,-309.5 578.5,-309.5 578.5,-279.5 411.5,-279.5"/>
<text text-anchor="start" x="419.5" y="-297.5" font-family="Helvetica,sans-Serif" font-size="10.00">/mnt/c/Linux/projet</text>
<text text-anchor="middle" x="495" y="-286.5" font-family="Helvetica,sans-Serif" font-size="10.00">&#45;lifap4&#45;2022/src/gameSquare.h</text>
</a>
</g>
</g>
<!-- Node1&#45;&gt;Node7 -->
<g id="edge6" class="edge">
<title>Node1&#45;&gt;Node7</title>
<path fill="none" stroke="midnightblue" d="M495,-336.11C495,-327.15 495,-317.32 495,-309.58"/>
<polygon fill="midnightblue" stroke="midnightblue" points="491.5,-336.4 495,-346.4 498.5,-336.4 491.5,-336.4"/>
</g>
<!-- Node16 -->
<g id="node16" class="node">
<title>Node16</title>
<g id="a_node16"><a xlink:href="unit_8cpp.html" target="_top" xlink:title=" ">
<polygon fill="white" stroke="black" points="596.5,-279.5 596.5,-309.5 731.5,-309.5 731.5,-279.5 596.5,-279.5"/>
<text text-anchor="start" x="604.5" y="-297.5" font-family="Helvetica,sans-Serif" font-size="10.00">/mnt/c/Linux/projet</text>
<text text-anchor="middle" x="664" y="-286.5" font-family="Helvetica,sans-Serif" font-size="10.00">&#45;lifap4&#45;2022/src/unit.cpp</text>
</a>
</g>
</g>
<!-- Node1&#45;&gt;Node16 -->
<g id="edge16" class="edge">
<title>Node1&#45;&gt;Node16</title>
<path fill="none" stroke="midnightblue" d="M541.33,-342.68C568.43,-332.26 602.17,-319.28 627.4,-309.58"/>
<polygon fill="midnightblue" stroke="midnightblue" points="539.75,-339.54 531.67,-346.4 542.26,-346.07 539.75,-339.54"/>
</g>
<!-- Node3 -->
<g id="node3" class="node">
<title>Node3</title>
<g id="a_node3"><a xlink:href="affichage2D_8cpp.html" target="_top" xlink:title=" ">
<polygon fill="white" stroke="black" points="87.5,-201.5 87.5,-242.5 234.5,-242.5 234.5,-201.5 87.5,-201.5"/>
<text text-anchor="start" x="95.5" y="-230.5" font-family="Helvetica,sans-Serif" font-size="10.00">/mnt/c/Linux/projet</text>
<text text-anchor="start" x="95.5" y="-219.5" font-family="Helvetica,sans-Serif" font-size="10.00">&#45;lifap4&#45;2022/src/affichage2</text>
<text text-anchor="middle" x="161" y="-208.5" font-family="Helvetica,sans-Serif" font-size="10.00">D.cpp</text>
</a>
</g>
</g>
<!-- Node2&#45;&gt;Node3 -->
<g id="edge2" class="edge">
<title>Node2&#45;&gt;Node3</title>
<path fill="none" stroke="midnightblue" d="M234.04,-273.48C220.03,-263.8 203.27,-252.22 189.34,-242.59"/>
<polygon fill="midnightblue" stroke="midnightblue" points="232.14,-276.43 242.36,-279.23 236.12,-270.67 232.14,-276.43"/>
</g>
<!-- Node4 -->
<g id="node4" class="node">
<title>Node4</title>
<g id="a_node4"><a xlink:href="game2D_8h.html" target="_top" xlink:title=" ">
<polygon fill="white" stroke="black" points="93,-67.5 93,-97.5 239,-97.5 239,-67.5 93,-67.5"/>
<text text-anchor="start" x="101" y="-85.5" font-family="Helvetica,sans-Serif" font-size="10.00">/mnt/c/Linux/projet</text>
<text text-anchor="middle" x="166" y="-74.5" font-family="Helvetica,sans-Serif" font-size="10.00">&#45;lifap4&#45;2022/src/game2D.h</text>
</a>
</g>
</g>
<!-- Node2&#45;&gt;Node4 -->
<g id="edge3" class="edge">
<title>Node2&#45;&gt;Node4</title>
<path fill="none" stroke="midnightblue" d="M260.23,-269.25C257.48,-250.15 252.27,-223.15 243,-201 226.05,-160.51 194.87,-118.87 177.85,-97.71"/>
<polygon fill="midnightblue" stroke="midnightblue" points="256.77,-269.77 261.56,-279.23 263.71,-268.85 256.77,-269.77"/>
</g>
<!-- Node5 -->
<g id="node5" class="node">
<title>Node5</title>
<g id="a_node5"><a xlink:href="game2D_8cpp.html" target="_top" xlink:title=" ">
<polygon fill="white" stroke="black" points="0,-0.5 0,-30.5 158,-30.5 158,-0.5 0,-0.5"/>
<text text-anchor="start" x="8" y="-18.5" font-family="Helvetica,sans-Serif" font-size="10.00">/mnt/c/Linux/projet</text>
<text text-anchor="middle" x="79" y="-7.5" font-family="Helvetica,sans-Serif" font-size="10.00">&#45;lifap4&#45;2022/src/game2D.cpp</text>
</a>
</g>
</g>
<!-- Node4&#45;&gt;Node5 -->
<g id="edge4" class="edge">
<title>Node4&#45;&gt;Node5</title>
<path fill="none" stroke="midnightblue" d="M138.79,-61.17C125.48,-51.23 109.8,-39.51 97.84,-30.58"/>
<polygon fill="midnightblue" stroke="midnightblue" points="137.02,-64.21 147.12,-67.4 141.21,-58.61 137.02,-64.21"/>
</g>
<!-- Node6 -->
<g id="node6" class="node">
<title>Node6</title>
<g id="a_node6"><a xlink:href="main2D_8cpp.html" target="_top" xlink:title=" ">
<polygon fill="white" stroke="black" points="176.5,-0.5 176.5,-30.5 331.5,-30.5 331.5,-0.5 176.5,-0.5"/>
<text text-anchor="start" x="184.5" y="-18.5" font-family="Helvetica,sans-Serif" font-size="10.00">/mnt/c/Linux/projet</text>
<text text-anchor="middle" x="254" y="-7.5" font-family="Helvetica,sans-Serif" font-size="10.00">&#45;lifap4&#45;2022/src/main2D.cpp</text>
</a>
</g>
</g>
<!-- Node4&#45;&gt;Node6 -->
<g id="edge5" class="edge">
<title>Node4&#45;&gt;Node6</title>
<path fill="none" stroke="midnightblue" d="M193.14,-61.45C206.68,-51.45 222.73,-39.6 234.94,-30.58"/>
<polygon fill="midnightblue" stroke="midnightblue" points="191.06,-58.64 185.09,-67.4 195.22,-64.27 191.06,-58.64"/>
</g>
<!-- Node8 -->
<g id="node8" class="node">
<title>Node8</title>
<g id="a_node8"><a xlink:href="gameBoard_8h.html" target="_top" xlink:title=" ">
<polygon fill="white" stroke="black" points="414.5,-207 414.5,-237 575.5,-237 575.5,-207 414.5,-207"/>
<text text-anchor="start" x="422.5" y="-225" font-family="Helvetica,sans-Serif" font-size="10.00">/mnt/c/Linux/projet</text>
<text text-anchor="middle" x="495" y="-214" font-family="Helvetica,sans-Serif" font-size="10.00">&#45;lifap4&#45;2022/src/gameBoard.h</text>
</a>
</g>
</g>
<!-- Node7&#45;&gt;Node8 -->
<g id="edge7" class="edge">
<title>Node7&#45;&gt;Node8</title>
<path fill="none" stroke="midnightblue" d="M495,-269.23C495,-258.57 495,-246.41 495,-237.25"/>
<polygon fill="midnightblue" stroke="midnightblue" points="491.5,-269.23 495,-279.23 498.5,-269.23 491.5,-269.23"/>
</g>
<!-- Node15 -->
<g id="node15" class="node">
<title>Node15</title>
<g id="a_node15"><a xlink:href="gameSquare_8cpp.html" target="_top" xlink:title=" ">
<polygon fill="white" stroke="black" points="594,-207 594,-237 772,-237 772,-207 594,-207"/>
<text text-anchor="start" x="602" y="-225" font-family="Helvetica,sans-Serif" font-size="10.00">/mnt/c/Linux/projet</text>
<text text-anchor="middle" x="683" y="-214" font-family="Helvetica,sans-Serif" font-size="10.00">&#45;lifap4&#45;2022/src/gameSquare.cpp</text>
</a>
</g>
</g>
<!-- Node7&#45;&gt;Node15 -->
<g id="edge15" class="edge">
<title>Node7&#45;&gt;Node15</title>
<path fill="none" stroke="midnightblue" d="M542.17,-275.81C574.13,-263.83 615.77,-248.21 645.47,-237.07"/>
<polygon fill="midnightblue" stroke="midnightblue" points="540.73,-272.61 532.59,-279.4 543.19,-279.17 540.73,-272.61"/>
</g>
<!-- Node9 -->
<g id="node9" class="node">
<title>Node9</title>
<g id="a_node9"><a xlink:href="gameConsole_8h.html" target="_top" xlink:title=" ">
<polygon fill="white" stroke="black" points="409,-134.5 409,-164.5 581,-164.5 581,-134.5 409,-134.5"/>
<text text-anchor="start" x="417" y="-152.5" font-family="Helvetica,sans-Serif" font-size="10.00">/mnt/c/Linux/projet</text>
<text text-anchor="middle" x="495" y="-141.5" font-family="Helvetica,sans-Serif" font-size="10.00">&#45;lifap4&#45;2022/src/gameConsole.h</text>
</a>
</g>
</g>
<!-- Node8&#45;&gt;Node9 -->
<g id="edge8" class="edge">
<title>Node8&#45;&gt;Node9</title>
<path fill="none" stroke="midnightblue" d="M495,-196.73C495,-186.07 495,-173.91 495,-164.75"/>
<polygon fill="midnightblue" stroke="midnightblue" points="491.5,-196.73 495,-206.73 498.5,-196.73 491.5,-196.73"/>
</g>
<!-- Node14 -->
<g id="node14" class="node">
<title>Node14</title>
<g id="a_node14"><a xlink:href="gameBoard_8cpp.html" target="_top" xlink:title=" ">
<polygon fill="white" stroke="black" points="599.5,-134.5 599.5,-164.5 772.5,-164.5 772.5,-134.5 599.5,-134.5"/>
<text text-anchor="start" x="607.5" y="-152.5" font-family="Helvetica,sans-Serif" font-size="10.00">/mnt/c/Linux/projet</text>
<text text-anchor="middle" x="686" y="-141.5" font-family="Helvetica,sans-Serif" font-size="10.00">&#45;lifap4&#45;2022/src/gameBoard.cpp</text>
</a>
</g>
</g>
<!-- Node8&#45;&gt;Node14 -->
<g id="edge14" class="edge">
<title>Node8&#45;&gt;Node14</title>
<path fill="none" stroke="midnightblue" d="M542.93,-203.31C575.39,-191.33 617.7,-175.71 647.87,-164.57"/>
<polygon fill="midnightblue" stroke="midnightblue" points="541.36,-200.16 533.19,-206.9 543.79,-206.72 541.36,-200.16"/>
</g>
<!-- Node9&#45;&gt;Node4 -->
<g id="edge9" class="edge">
<title>Node9&#45;&gt;Node4</title>
<path fill="none" stroke="midnightblue" d="M414.1,-132.52C359.89,-121.81 289.19,-107.84 237.14,-97.55"/>
<polygon fill="midnightblue" stroke="midnightblue" points="413.53,-135.97 424.02,-134.48 414.88,-129.1 413.53,-135.97"/>
</g>
<!-- Node10 -->
<g id="node10" class="node">
<title>Node10</title>
<g id="a_node10"><a xlink:href="gameConsole_8cpp.html" target="_top" xlink:title=" ">
<polygon fill="white" stroke="black" points="257.5,-67.5 257.5,-97.5 440.5,-97.5 440.5,-67.5 257.5,-67.5"/>
<text text-anchor="start" x="265.5" y="-85.5" font-family="Helvetica,sans-Serif" font-size="10.00">/mnt/c/Linux/projet</text>
<text text-anchor="middle" x="349" y="-74.5" font-family="Helvetica,sans-Serif" font-size="10.00">&#45;lifap4&#45;2022/src/gameConsole.cpp</text>
</a>
</g>
</g>
<!-- Node9&#45;&gt;Node10 -->
<g id="edge10" class="edge">
<title>Node9&#45;&gt;Node10</title>
<path fill="none" stroke="midnightblue" d="M454.05,-130.27C430.8,-119.92 402.13,-107.15 380.62,-97.58"/>
<polygon fill="midnightblue" stroke="midnightblue" points="452.76,-133.53 463.32,-134.4 455.61,-127.13 452.76,-133.53"/>
</g>
<!-- Node11 -->
<g id="node11" class="node">
<title>Node11</title>
<g id="a_node11"><a xlink:href="mainClient_8cpp.html" target="_top" xlink:title=" ">
<polygon fill="white" stroke="black" points="459,-67.5 459,-97.5 629,-97.5 629,-67.5 459,-67.5"/>
<text text-anchor="start" x="467" y="-85.5" font-family="Helvetica,sans-Serif" font-size="10.00">/mnt/c/Linux/projet</text>
<text text-anchor="middle" x="544" y="-74.5" font-family="Helvetica,sans-Serif" font-size="10.00">&#45;lifap4&#45;2022/src/mainClient.cpp</text>
</a>
</g>
</g>
<!-- Node9&#45;&gt;Node11 -->
<g id="edge11" class="edge">
<title>Node9&#45;&gt;Node11</title>
<path fill="none" stroke="midnightblue" d="M511.84,-126.16C518.99,-116.68 527.1,-105.92 533.39,-97.58"/>
<polygon fill="midnightblue" stroke="midnightblue" points="508.86,-124.3 505.63,-134.4 514.45,-128.52 508.86,-124.3"/>
</g>
<!-- Node12 -->
<g id="node12" class="node">
<title>Node12</title>
<g id="a_node12"><a xlink:href="mainGameTest_8cpp.html" target="_top" xlink:title=" ">
<polygon fill="white" stroke="black" points="647,-67.5 647,-97.5 837,-97.5 837,-67.5 647,-67.5"/>
<text text-anchor="start" x="655" y="-85.5" font-family="Helvetica,sans-Serif" font-size="10.00">/mnt/c/Linux/projet</text>
<text text-anchor="middle" x="742" y="-74.5" font-family="Helvetica,sans-Serif" font-size="10.00">&#45;lifap4&#45;2022/src/mainGameTest.cpp</text>
</a>
</g>
</g>
<!-- Node9&#45;&gt;Node12 -->
<g id="edge12" class="edge">
<title>Node9&#45;&gt;Node12</title>
<path fill="none" stroke="midnightblue" d="M558.01,-131.92C598.32,-121.31 650.04,-107.7 688.38,-97.61"/>
<polygon fill="midnightblue" stroke="midnightblue" points="557.07,-128.55 548.29,-134.48 558.85,-135.32 557.07,-128.55"/>
</g>
<!-- Node13 -->
<g id="node13" class="node">
<title>Node13</title>
<g id="a_node13"><a xlink:href="mainServer_8cpp.html" target="_top" xlink:title=" ">
<polygon fill="white" stroke="black" points="855,-67.5 855,-97.5 1027,-97.5 1027,-67.5 855,-67.5"/>
<text text-anchor="start" x="863" y="-85.5" font-family="Helvetica,sans-Serif" font-size="10.00">/mnt/c/Linux/projet</text>
<text text-anchor="middle" x="941" y="-74.5" font-family="Helvetica,sans-Serif" font-size="10.00">&#45;lifap4&#45;2022/src/mainServer.cpp</text>
</a>
</g>
</g>
<!-- Node9&#45;&gt;Node13 -->
<g id="edge13" class="edge">
<title>Node9&#45;&gt;Node13</title>
<path fill="none" stroke="midnightblue" d="M590.69,-134.04C590.8,-134.03 590.9,-134.01 591,-134 704.25,-117.45 732.76,-114.64 846,-98 848.89,-97.58 851.83,-97.14 854.79,-96.7"/>
<polygon fill="midnightblue" stroke="midnightblue" points="590.47,-130.54 581.09,-135.46 591.49,-137.47 590.47,-130.54"/>
</g>
</g>
</svg>
