<?xml version="1.0" encoding="UTF-8" standalone="no"?>
<!DOCTYPE svg PUBLIC "-//W3C//DTD SVG 1.1//EN"
 "http://www.w3.org/Graphics/SVG/1.1/DTD/svg11.dtd">
<!-- Generated by graphviz version 2.43.0 (0)
 -->
<!-- Title: /mnt/c/Linux/projet&#45;lifap4&#45;2022/src/unit.h Pages: 1 -->
<svg width="387pt" height="207pt"
 viewBox="0.00 0.00 386.54 207.00" xmlns="http://www.w3.org/2000/svg" xmlns:xlink="http://www.w3.org/1999/xlink">
<g id="graph0" class="graph" transform="scale(1 1) rotate(0) translate(4 203)">
<title>/mnt/c/Linux/projet&#45;lifap4&#45;2022/src/unit.h</title>
<polygon fill="white" stroke="transparent" points="-4,4 -4,-203 382.54,-203 382.54,4 -4,4"/>
<!-- Node1 -->
<g id="node1" class="node">
<title>Node1</title>
<g id="a_node1"><a xlink:title=" ">
<polygon fill="#bfbfbf" stroke="black" points="117.54,-168.5 117.54,-198.5 241.54,-198.5 241.54,-168.5 117.54,-168.5"/>
<text text-anchor="start" x="125.54" y="-186.5" font-family="Helvetica,sans-Serif" font-size="10.00">/mnt/c/Linux/projet</text>
<text text-anchor="middle" x="179.54" y="-175.5" font-family="Helvetica,sans-Serif" font-size="10.00">&#45;lifap4&#45;2022/src/unit.h</text>
</a>
</g>
</g>
<!-- Node2 -->
<g id="node2" class="node">
<title>Node2</title>
<g id="a_node2"><a xlink:href="cardLib_8h.html" target="_top" xlink:title=" ">
<polygon fill="white" stroke="black" points="103.04,-112.5 103.04,-131.5 164.04,-131.5 164.04,-112.5 103.04,-112.5"/>
<text text-anchor="middle" x="133.54" y="-119.5" font-family="Helvetica,sans-Serif" font-size="10.00">cardLib.h</text>
</a>
</g>
</g>
<!-- Node1&#45;&gt;Node2 -->
<g id="edge1" class="edge">
<title>Node1&#45;&gt;Node2</title>
<path fill="none" stroke="midnightblue" d="M168.64,-168.4C161.95,-159.75 153.36,-148.64 146.35,-139.58"/>
<polygon fill="midnightblue" stroke="midnightblue" points="149.12,-137.43 140.23,-131.66 143.58,-141.71 149.12,-137.43"/>
</g>
<!-- Node10 -->
<g id="node10" class="node">
<title>Node10</title>
<g id="a_node10"><a xlink:href="statusCodex_8h.html" target="_top" xlink:title=" ">
<polygon fill="white" stroke="black" points="205.54,-112.5 205.54,-131.5 291.54,-131.5 291.54,-112.5 205.54,-112.5"/>
<text text-anchor="middle" x="248.54" y="-119.5" font-family="Helvetica,sans-Serif" font-size="10.00">statusCodex.h</text>
</a>
</g>
</g>
<!-- Node1&#45;&gt;Node10 -->
<g id="edge10" class="edge">
<title>Node1&#45;&gt;Node10</title>
<path fill="none" stroke="midnightblue" d="M195.89,-168.4C206.43,-159.31 220.14,-147.49 230.92,-138.19"/>
<polygon fill="midnightblue" stroke="midnightblue" points="233.21,-140.84 238.5,-131.66 228.64,-135.54 233.21,-140.84"/>
</g>
<!-- Node3 -->
<g id="node3" class="node">
<title>Node3</title>
<g id="a_node3"><a xlink:href="card_8h.html" target="_top" xlink:title=" ">
<polygon fill="white" stroke="black" points="64.04,-56.5 64.04,-75.5 111.04,-75.5 111.04,-56.5 64.04,-56.5"/>
<text text-anchor="middle" x="87.54" y="-63.5" font-family="Helvetica,sans-Serif" font-size="10.00">card.h</text>
</a>
</g>
</g>
<!-- Node2&#45;&gt;Node3 -->
<g id="edge2" class="edge">
<title>Node2&#45;&gt;Node3</title>
<path fill="none" stroke="midnightblue" d="M125.94,-112.08C119.31,-104.3 109.52,-92.8 101.48,-83.37"/>
<polygon fill="midnightblue" stroke="midnightblue" points="104.14,-81.09 94.99,-75.75 98.81,-85.63 104.14,-81.09"/>
</g>
<!-- Node4 -->
<g id="node4" class="node">
<title>Node4</title>
<g id="a_node4"><a xlink:title=" ">
<polygon fill="white" stroke="#bfbfbf" points="65.54,-0.5 65.54,-19.5 109.54,-19.5 109.54,-0.5 65.54,-0.5"/>
<text text-anchor="middle" x="87.54" y="-7.5" font-family="Helvetica,sans-Serif" font-size="10.00">string</text>
</a>
</g>
</g>
<!-- Node2&#45;&gt;Node4 -->
<g id="edge9" class="edge">
<title>Node2&#45;&gt;Node4</title>
<path fill="none" stroke="midnightblue" d="M102.85,-119.9C72.25,-116.97 26.72,-107.23 4.54,-76 -12.7,-51.73 25.46,-32.07 55.58,-20.95"/>
<polygon fill="midnightblue" stroke="midnightblue" points="57.12,-24.12 65.4,-17.51 54.81,-17.51 57.12,-24.12"/>
</g>
<!-- Node7 -->
<g id="node7" class="node">
<title>Node7</title>
<g id="a_node7"><a xlink:title=" ">
<polygon fill="white" stroke="#bfbfbf" points="202.04,-56.5 202.04,-75.5 249.04,-75.5 249.04,-56.5 202.04,-56.5"/>
<text text-anchor="middle" x="225.54" y="-63.5" font-family="Helvetica,sans-Serif" font-size="10.00">vector</text>
</a>
</g>
</g>
<!-- Node2&#45;&gt;Node7 -->
<g id="edge6" class="edge">
<title>Node2&#45;&gt;Node7</title>
<path fill="none" stroke="midnightblue" d="M148.32,-112.32C162.81,-103.82 185.11,-90.73 202.03,-80.8"/>
<polygon fill="midnightblue" stroke="midnightblue" points="203.94,-83.74 210.79,-75.65 200.4,-77.7 203.94,-83.74"/>
</g>
<!-- Node8 -->
<g id="node8" class="node">
<title>Node8</title>
<g id="a_node8"><a xlink:title=" ">
<polygon fill="white" stroke="#bfbfbf" points="13.54,-56.5 13.54,-75.5 45.54,-75.5 45.54,-56.5 13.54,-56.5"/>
<text text-anchor="middle" x="29.54" y="-63.5" font-family="Helvetica,sans-Serif" font-size="10.00">list</text>
</a>
</g>
</g>
<!-- Node2&#45;&gt;Node8 -->
<g id="edge7" class="edge">
<title>Node2&#45;&gt;Node8</title>
<path fill="none" stroke="midnightblue" d="M116.83,-112.32C100.13,-103.65 74.23,-90.21 54.98,-80.21"/>
<polygon fill="midnightblue" stroke="midnightblue" points="56.35,-76.98 45.86,-75.48 53.13,-83.19 56.35,-76.98"/>
</g>
<!-- Node9 -->
<g id="node9" class="node">
<title>Node9</title>
<g id="a_node9"><a xlink:title=" ">
<polygon fill="white" stroke="#bfbfbf" points="129.04,-56.5 129.04,-75.5 184.04,-75.5 184.04,-56.5 129.04,-56.5"/>
<text text-anchor="middle" x="156.54" y="-63.5" font-family="Helvetica,sans-Serif" font-size="10.00">fstream</text>
</a>
</g>
</g>
<!-- Node2&#45;&gt;Node9 -->
<g id="edge8" class="edge">
<title>Node2&#45;&gt;Node9</title>
<path fill="none" stroke="midnightblue" d="M137.34,-112.08C140.45,-104.77 144.96,-94.18 148.83,-85.1"/>
<polygon fill="midnightblue" stroke="midnightblue" points="152.11,-86.32 152.81,-75.75 145.67,-83.58 152.11,-86.32"/>
</g>
<!-- Node3&#45;&gt;Node4 -->
<g id="edge3" class="edge">
<title>Node3&#45;&gt;Node4</title>
<path fill="none" stroke="midnightblue" d="M87.54,-56.08C87.54,-49.01 87.54,-38.86 87.54,-29.99"/>
<polygon fill="midnightblue" stroke="midnightblue" points="91.04,-29.75 87.54,-19.75 84.04,-29.75 91.04,-29.75"/>
</g>
<!-- Node5 -->
<g id="node5" class="node">
<title>Node5</title>
<g id="a_node5"><a xlink:title=" ">
<polygon fill="white" stroke="#bfbfbf" points="205.54,-0.5 205.54,-19.5 265.54,-19.5 265.54,-0.5 205.54,-0.5"/>
<text text-anchor="middle" x="235.54" y="-7.5" font-family="Helvetica,sans-Serif" font-size="10.00">iostream</text>
</a>
</g>
</g>
<!-- Node3&#45;&gt;Node5 -->
<g id="edge4" class="edge">
<title>Node3&#45;&gt;Node5</title>
<path fill="none" stroke="midnightblue" d="M110.99,-56.44C135.67,-47.44 174.72,-33.19 202.51,-23.05"/>
<polygon fill="midnightblue" stroke="midnightblue" points="204,-26.23 212.2,-19.52 201.6,-19.66 204,-26.23"/>
</g>
<!-- Node6 -->
<g id="node6" class="node">
<title>Node6</title>
<g id="a_node6"><a xlink:title=" ">
<polygon fill="white" stroke="#bfbfbf" points="322.54,-0.5 322.54,-19.5 378.54,-19.5 378.54,-0.5 322.54,-0.5"/>
<text text-anchor="middle" x="350.54" y="-7.5" font-family="Helvetica,sans-Serif" font-size="10.00">assert.h</text>
</a>
</g>
</g>
<!-- Node3&#45;&gt;Node6 -->
<g id="edge5" class="edge">
<title>Node3&#45;&gt;Node6</title>
<path fill="none" stroke="midnightblue" d="M111.25,-58.1C114.03,-57.36 116.84,-56.64 119.54,-56 186.84,-40.01 266.16,-25.49 312.16,-17.48"/>
<polygon fill="midnightblue" stroke="midnightblue" points="313.03,-20.89 322.29,-15.74 311.84,-13.99 313.03,-20.89"/>
</g>
<!-- Node10&#45;&gt;Node4 -->
<g id="edge16" class="edge">
<title>Node10&#45;&gt;Node4</title>
<path fill="none" stroke="midnightblue" d="M253.31,-112.41C260.08,-98.92 270.32,-72.61 257.54,-56 240.86,-34.33 164.28,-20.95 119.8,-14.87"/>
<polygon fill="midnightblue" stroke="midnightblue" points="120.14,-11.39 109.77,-13.55 119.22,-18.33 120.14,-11.39"/>
</g>
<!-- Node10&#45;&gt;Node6 -->
<g id="edge15" class="edge">
<title>Node10&#45;&gt;Node6</title>
<path fill="none" stroke="midnightblue" d="M291.65,-117.32C319.16,-112.48 352.85,-101.37 370.54,-76 380.52,-61.68 372.3,-42.21 363.57,-28.33"/>
<polygon fill="midnightblue" stroke="midnightblue" points="366.21,-25.99 357.67,-19.73 360.45,-29.96 366.21,-25.99"/>
</g>
<!-- Node10&#45;&gt;Node7 -->
<g id="edge13" class="edge">
<title>Node10&#45;&gt;Node7</title>
<path fill="none" stroke="midnightblue" d="M244.74,-112.08C241.63,-104.77 237.12,-94.18 233.25,-85.1"/>
<polygon fill="midnightblue" stroke="midnightblue" points="236.4,-83.58 229.27,-75.75 229.96,-86.32 236.4,-83.58"/>
</g>
<!-- Node10&#45;&gt;Node9 -->
<g id="edge14" class="edge">
<title>Node10&#45;&gt;Node9</title>
<path fill="none" stroke="midnightblue" d="M233.76,-112.32C219.27,-103.82 196.96,-90.73 180.04,-80.8"/>
<polygon fill="midnightblue" stroke="midnightblue" points="181.68,-77.7 171.28,-75.65 178.14,-83.74 181.68,-77.7"/>
</g>
<!-- Node11 -->
<g id="node11" class="node">
<title>Node11</title>
<g id="a_node11"><a xlink:href="status_8h.html" target="_top" xlink:title=" ">
<polygon fill="white" stroke="black" points="305.54,-56.5 305.54,-75.5 361.54,-75.5 361.54,-56.5 305.54,-56.5"/>
<text text-anchor="middle" x="333.54" y="-63.5" font-family="Helvetica,sans-Serif" font-size="10.00">status.h</text>
</a>
</g>
</g>
<!-- Node10&#45;&gt;Node11 -->
<g id="edge11" class="edge">
<title>Node10&#45;&gt;Node11</title>
<path fill="none" stroke="midnightblue" d="M262.19,-112.32C275.45,-103.9 295.81,-90.97 311.38,-81.07"/>
<polygon fill="midnightblue" stroke="midnightblue" points="313.35,-83.97 319.92,-75.65 309.6,-78.06 313.35,-83.97"/>
</g>
<!-- Node11&#45;&gt;Node5 -->
<g id="edge12" class="edge">
<title>Node11&#45;&gt;Node5</title>
<path fill="none" stroke="midnightblue" d="M317.79,-56.32C302.22,-47.74 278.16,-34.49 260.08,-24.52"/>
<polygon fill="midnightblue" stroke="midnightblue" points="261.69,-21.42 251.24,-19.65 258.31,-27.55 261.69,-21.42"/>
</g>
</g>
</svg>
